{"glyphs":{"0":{"ha":650,"x_min":0,"x_max":0,"o":"m 620 598 b 550 783 616 663 597 734 b 330 830 491 845 410 864 b 56 483 185 769 109 622 b 8 284 33 419 17 352 b 66 -29 -7 183 -8 50 b 328 -72 130 -99 245 -121 b 413 3 360 -52 389 -27 b 526 185 459 58 497 119 b 621 566 580 303 622 435 b 620 598 621 577 621 587 z m 437 252 b 439 246 437 250 438 248 b 439 243 439 245 439 244 b 437 245 439 243 438 244 b 437 251 437 247 437 249 b 450 259 441 254 445 256 b 449 272 448 263 448 268 b 480 367 459 304 469 336 b 485 371 480 369 483 370 b 492 399 484 382 481 392 l 491 414 b 495 409 494 411 495 410 b 492 400 494 406 493 403 b 484 372 489 391 487 382 b 449 260 480 333 468 294 b 437 252 448 253 444 250 z m 510 200 l 511 205 b 518 225 514 212 516 218 b 526 239 520 230 519 237 b 533 264 528 248 530 256 b 544 269 534 267 540 267 b 542 284 543 274 542 279 l 544 284 l 544 269 b 533 249 541 262 537 256 b 525 240 531 246 528 243 b 517 226 525 234 528 226 b 510 206 519 218 519 210 z m 255 581 b 254 603 249 587 249 596 b 261 614 256 607 259 610 b 275 618 265 621 270 620 b 271 627 272 620 271 624 b 277 637 271 631 273 635 b 299 664 282 648 285 661 b 319 695 297 677 308 682 b 299 664 311 675 311 675 b 282 637 299 652 290 644 b 276 637 281 636 278 637 b 274 619 275 631 275 625 b 264 606 271 614 268 610 b 253 604 260 605 257 604 l 254 581 b 232 570 246 580 243 566 b 232 562 232 567 232 564 b 233 558 232 560 233 559 b 232 561 233 559 232 560 b 232 569 231 564 232 567 b 239 576 234 572 237 573 b 246 582 240 579 243 581 b 255 581 249 583 252 583 z m 134 460 b 133 490 126 470 130 480 b 147 524 137 502 142 513 b 157 537 150 529 154 533 b 158 547 157 540 157 543 b 265 720 186 609 218 669 b 284 737 270 725 275 729 b 280 724 282 729 282 726 b 164 543 235 668 196 607 b 157 537 163 540 159 539 b 138 492 157 519 148 505 b 132 491 137 491 134 491 b 133 461 140 481 132 471 b 114 433 129 453 123 446 b 123 460 119 446 121 454 l 134 460 z m 457 222 b 460 217 458 221 459 219 b 460 212 461 215 461 214 b 458 212 459 212 458 212 b 458 215 458 213 458 214 b 457 222 458 218 458 220 b 491 298 468 247 479 273 b 507 327 495 308 496 320 b 507 333 507 329 507 331 b 508 328 507 331 507 330 b 467 222 497 292 488 255 l 457 222 z m 214 706 b 235 735 214 720 226 725 b 213 707 232 720 226 711 b 201 682 210 698 206 690 b 49 298 123 567 71 436 b 32 185 43 260 38 222 b 38 288 30 219 32 254 b 145 611 53 401 89 511 b 201 696 162 640 182 668 b 214 706 205 700 209 704 z m 435 758 b 482 501 507 770 486 540 b 348 121 466 366 420 236 b 190 -9 330 93 234 -65 b 155 153 156 33 154 101 b 286 598 160 309 209 464 b 435 758 300 623 383 750 z m 110 412 l 112 415 l 112 412 z m 105 388 l 104 386 l 103 388 z "},"1":{"ha":440,"x_min":0,"x_max":0,"o":"m 146 73 b 154 101 149 82 152 91 b 165 124 158 108 162 116 b 171 147 164 132 163 141 b 173 164 171 153 171 158 b 181 173 174 167 178 170 b 185 197 178 182 177 190 b 200 262 190 219 194 241 b 314 577 233 369 271 474 b 328 599 317 585 317 596 b 336 614 327 605 326 612 b 343 633 335 621 334 629 b 348 652 344 639 346 645 b 351 656 349 653 350 655 l 347 653 b 342 634 345 647 343 641 b 335 615 339 628 337 621 b 328 600 332 610 330 605 b 310 543 322 581 317 562 b 197 222 273 436 235 328 b 184 198 194 213 195 202 b 180 174 183 190 181 182 b 170 148 177 165 180 154 b 165 124 171 140 172 131 b 153 102 163 116 166 105 b 146 74 157 91 160 80 b 145 38 150 62 150 49 b 136 -22 141 18 138 -2 b 136 -84 136 -42 128 -63 b 172 -60 166 -88 166 -88 b 176 -57 173 -59 174 -58 b 179 -82 177 -65 178 -73 b 198 -48 192 -69 195 -65 b 242 116 206 8 224 62 b 319 347 267 193 292 270 b 390 543 342 413 366 478 b 461 732 414 606 437 669 b 443 815 473 764 470 792 b 439 817 442 816 441 816 l 426 814 b 418 795 424 808 421 802 b 416 802 417 798 415 801 b 427 813 420 806 424 809 b 416 825 425 818 423 825 b 357 820 396 823 377 822 b 337 827 350 832 343 834 b 309 791 327 815 319 802 b 191 689 275 751 233 719 b 14 593 136 651 79 615 b 5 565 -2 587 -3 578 b 38 530 13 551 24 539 b 128 537 66 513 101 524 b 228 590 162 552 196 570 b 256 594 233 593 258 609 b 254 588 256 592 255 590 b 202 449 234 542 219 495 b 159 329 187 409 173 369 b 126 221 147 293 137 257 b 74 -21 103 142 85 61 b 74 -53 72 -32 72 -42 b 79 -64 74 -57 76 -61 b 91 -68 83 -67 87 -68 l 102 0 b 103 -39 104 -13 104 -26 b 106 -70 103 -50 104 -60 b 118 -81 107 -74 112 -76 b 122 -61 120 -72 121 -66 b 137 26 127 -32 132 -3 b 146 37 138 30 143 33 b 146 73 146 49 146 61 z m 359 529 b 360 526 359 528 360 527 b 356 521 359 525 357 523 b 354 495 355 513 354 504 b 343 478 350 490 346 484 b 328 443 338 466 333 455 b 290 330 316 405 303 368 b 281 327 290 329 284 328 b 273 308 285 312 285 312 b 266 286 279 292 279 291 b 259 265 272 271 272 271 l 263 251 l 259 250 b 260 264 259 255 260 259 b 267 285 262 271 265 278 b 274 307 269 293 271 300 b 283 326 276 314 279 320 b 319 431 294 361 306 396 b 329 442 320 437 321 443 b 344 494 324 462 335 478 b 354 495 345 496 350 495 b 357 520 350 504 345 513 b 359 529 358 523 358 526 z m 138 154 l 139 155 l 139 141 b 131 129 136 137 134 133 b 139 141 128 137 134 139 b 138 154 138 146 138 150 z m 162 242 b 160 232 162 239 161 235 l 160 252 b 166 266 162 257 164 262 b 178 289 170 274 174 282 b 192 344 183 308 186 326 b 291 616 222 436 254 527 b 303 643 294 624 298 631 b 302 617 307 634 306 625 b 219 398 274 544 246 471 b 183 299 207 365 195 332 b 177 290 182 296 180 293 b 170 258 175 280 173 269 b 160 252 169 255 163 254 b 162 242 161 249 162 246 z m 264 683 b 294 706 269 696 281 705 z m 145 184 b 145 190 145 186 145 188 b 147 190 146 190 147 190 l 147 184 z m 124 98 b 124 101 124 99 124 100 b 125 104 124 102 125 103 l 126 101 z m 118 76 b 119 73 119 75 119 74 b 117 71 119 72 118 71 b 117 73 117 72 117 72 b 118 76 117 74 118 75 z m 110 34 b 110 39 110 35 110 37 b 112 39 110 39 111 39 l 110 34 z m 155 211 l 153 208 l 152 211 z m 247 205 l 246 202 l 245 205 z m 366 549 b 365 551 365 550 365 551 b 367 552 365 552 366 552 l 368 550 z m 181 -25 l 181 -22 l 183 -23 z m 250 674 l 250 676 l 253 675 z "},"2":{"ha":833,"x_min":0,"x_max":0,"o":"m 109 9 b 133 12 115 11 122 11 b 44 -5 106 -3 75 -10 b 36 -15 42 -9 40 -14 b 2 -29 24 -20 12 -21 b 22 -58 3 -52 6 -57 b 46 -55 31 -58 38 -57 b 89 -55 61 -53 75 -50 b 125 -48 99 -40 112 -44 b 138 -38 127 -42 132 -38 b 225 -28 167 -35 196 -31 b 311 -26 254 -21 282 -23 b 224 -28 282 -29 254 -35 b 203 -37 220 -36 211 -36 b 124 -47 177 -40 151 -44 l 89 -54 b 46 -55 75 -58 61 -61 b 30 -66 45 -64 37 -65 b 18 -78 25 -67 18 -66 b 30 -81 22 -79 26 -80 b 76 -76 45 -80 60 -79 b 135 -66 95 -73 115 -69 b 290 -49 186 -57 238 -53 b 537 -59 372 -42 455 -46 b 588 -86 557 -62 575 -66 b 626 -84 597 -101 615 -98 b 644 -14 642 -63 646 -39 b 599 53 644 16 626 42 b 384 89 534 83 454 89 b 322 89 363 89 342 89 b 261 86 302 88 281 86 b 259 100 249 86 254 93 b 364 193 284 137 327 167 b 681 398 467 265 584 317 b 798 558 732 440 780 493 b 713 785 822 641 775 732 l 711 787 b 276 716 581 896 368 852 b 244 583 250 678 231 628 b 321 488 255 542 284 508 b 361 537 356 471 362 513 b 457 696 359 604 405 660 b 576 752 493 722 533 741 b 690 734 609 759 665 764 b 694 668 704 716 701 690 b 550 491 670 595 609 538 b 322 340 479 435 398 390 b 194 240 277 311 234 277 b 96 106 154 202 120 157 b 76 61 90 91 83 76 b 56 54 69 59 63 57 b 16 40 43 50 29 46 b 6 32 12 39 8 36 b 7 19 4 27 5 23 l 33 22 b 81 33 48 26 62 37 b 33 22 57 20 57 20 b 11 7 30 10 17 13 b 0 -8 7 2 3 -3 b 44 -5 15 -11 30 -11 b 109 9 66 0 87 5 z m 534 -41 b 527 -36 532 -39 530 -37 b 523 -34 526 -35 525 -34 b 529 -33 526 -33 528 -32 b 534 -40 531 -36 533 -38 l 552 -39 l 552 -42 l 534 -41 z m 682 522 b 682 528 682 524 681 526 b 687 532 683 529 685 530 b 687 524 687 529 687 526 b 682 523 687 523 683 523 b 644 479 677 502 661 491 b 682 522 652 501 660 510 z m 275 657 b 275 659 275 658 276 659 b 273 662 275 660 274 661 b 300 705 282 676 291 691 b 314 713 303 710 307 715 b 315 722 314 716 314 719 b 321 722 316 723 319 722 b 320 719 321 721 321 719 b 313 714 318 717 315 716 b 283 662 308 694 294 679 b 274 662 282 661 277 662 z m 675 572 b 685 585 674 579 677 584 b 674 572 684 578 683 572 b 675 566 675 570 676 567 b 634 522 665 548 651 533 b 675 572 642 543 656 560 z m 317 662 l 316 669 b 365 722 332 687 342 710 b 326 667 357 704 336 675 b 316 669 324 666 319 668 z m 349 25 b 225 17 307 23 266 20 b 211 19 220 17 216 18 b 218 25 215 22 217 25 b 420 31 285 33 353 35 b 487 25 442 30 465 27 b 499 15 493 25 498 21 b 578 1 528 26 553 13 b 564 1 574 0 569 0 b 500 16 543 6 522 11 b 349 25 450 25 399 28 z m 555 37 b 397 55 503 50 450 56 b 241 52 345 54 293 53 b 234 55 239 52 237 54 b 241 61 237 57 239 60 b 510 55 331 67 421 70 b 586 37 536 51 561 43 b 587 32 586 35 587 34 b 588 29 588 31 588 30 b 584 32 586 30 584 31 b 586 37 584 34 585 36 b 555 37 576 34 565 33 z m 688 436 b 710 460 692 452 692 452 z m 364 638 b 373 649 367 642 370 645 b 365 638 378 641 373 638 z m 381 -20 b 384 -19 382 -19 383 -19 b 387 -20 385 -20 386 -20 l 384 -21 z m 472 -27 b 470 -27 471 -27 471 -27 b 469 -26 470 -27 469 -27 l 472 -27 z m 722 479 b 721 476 722 478 722 477 b 719 477 721 476 719 476 b 720 479 719 478 719 479 z "},"3":{"ha":779,"x_min":0,"x_max":0,"o":"m 523 252 b 371 60 509 168 444 99 b 228 23 327 36 278 23 b 164 40 206 22 183 28 b 114 89 145 53 134 76 b 70 111 100 97 86 105 b 40 110 61 116 50 115 b 32 115 39 109 35 114 b 3 85 11 124 -7 107 b 6 80 4 84 5 82 b 167 -63 44 18 100 -32 b 509 -58 275 -114 404 -116 b 659 232 609 -2 703 112 b 586 347 643 275 618 315 b 567 361 580 352 574 357 b 584 375 575 367 579 371 b 726 543 647 418 692 476 b 738 572 731 553 735 562 b 464 865 798 744 634 899 b 257 651 361 845 269 757 b 342 483 249 580 287 523 b 393 470 355 474 378 458 b 397 492 400 475 402 485 b 377 530 391 505 383 517 b 366 654 358 568 354 612 b 534 792 386 729 457 783 b 636 750 570 796 631 797 b 609 636 640 713 625 668 b 402 439 565 548 492 479 b 313 421 374 427 345 418 b 281 421 302 422 292 422 b 261 414 274 420 268 418 b 253 401 257 411 254 407 b 258 387 252 396 254 391 b 269 379 262 384 265 381 b 312 349 284 369 294 354 b 355 322 320 330 339 327 b 468 321 392 312 431 312 b 505 330 480 323 493 327 b 523 252 534 314 528 279 z m 302 716 b 299 715 301 715 300 715 b 301 720 300 717 301 720 b 307 718 303 719 305 719 b 309 737 306 724 303 731 b 320 754 312 742 315 746 b 308 738 317 741 317 741 b 307 718 308 731 307 725 b 302 716 305 717 303 716 z m 340 723 b 346 742 337 736 339 741 b 358 762 350 749 354 755 b 345 743 355 749 355 749 z m 596 546 b 602 565 593 560 594 564 b 642 642 609 591 626 612 b 627 595 641 625 636 609 b 601 565 620 584 617 569 b 596 546 600 561 599 557 z m 534 173 b 529 169 536 168 533 169 b 526 146 533 162 532 153 b 493 105 517 133 506 121 b 530 168 498 127 505 139 z m 651 584 b 618 526 647 554 644 548 b 651 584 623 547 638 561 z m 662 486 b 690 530 667 503 677 518 b 662 486 685 513 678 497 z m 516 75 b 528 94 522 86 525 90 b 552 123 534 102 541 110 b 516 75 549 98 539 86 z m 599 68 b 576 36 593 46 593 46 z "},"4":{"ha":671,"x_min":0,"x_max":0,"o":"m 367 29 b 416 235 379 99 396 168 b 424 245 417 239 421 242 b 437 295 420 264 428 279 b 448 313 437 303 435 313 b 450 329 445 322 445 322 b 447 314 449 324 448 319 b 436 296 444 308 440 302 b 423 245 438 278 433 260 b 409 180 419 224 414 202 b 368 -4 395 119 382 57 b 362 -84 366 -31 358 -57 b 405 -55 389 -91 392 -89 b 410 -87 407 -66 408 -76 b 428 -52 425 -71 426 -69 b 433 -17 430 -41 430 -29 b 465 123 442 30 453 76 b 523 317 482 188 502 253 b 550 329 529 335 535 333 b 573 322 558 327 565 324 b 597 347 590 317 599 332 b 584 371 597 357 592 366 b 549 392 573 378 562 384 b 607 537 569 441 587 489 b 678 707 630 594 655 650 b 698 768 686 725 696 748 b 676 814 698 785 688 802 b 645 833 668 822 654 824 b 633 830 644 835 636 833 b 612 810 625 824 618 817 b 622 840 612 823 626 828 b 592 831 611 843 599 840 b 579 815 587 826 583 821 b 515 697 551 779 533 737 b 420 449 478 616 447 534 b 407 416 417 438 412 427 b 397 412 406 412 401 412 b 242 404 346 412 294 408 b 263 453 233 403 261 449 b 298 514 275 473 287 494 b 371 711 331 575 361 641 b 318 827 378 761 362 800 b 257 841 299 839 278 844 b 246 826 249 840 243 832 b 239 732 260 797 248 761 b 203 641 229 701 216 671 b 84 416 169 563 129 488 b 15 314 62 381 38 348 b 0 289 9 306 4 298 b 4 270 -1 284 3 277 b 23 276 12 272 17 274 b 30 251 25 268 27 261 b 46 263 35 256 40 260 b 59 264 50 264 55 264 l 55 271 b 57 271 56 271 57 271 b 58 264 58 269 58 266 b 49 244 55 257 52 250 b 76 234 57 234 67 230 b 103 232 86 238 94 235 b 124 251 108 231 121 249 b 237 301 156 276 200 288 b 362 332 278 315 320 325 b 379 328 368 334 376 334 b 379 318 380 325 380 322 b 342 172 369 269 355 220 b 304 -30 326 105 313 38 b 304 -48 303 -36 303 -42 b 315 -62 305 -55 309 -60 b 318 -62 316 -63 317 -63 b 320 -59 319 -61 320 -60 b 328 -21 324 -47 327 -34 b 398 297 343 87 367 193 b 411 331 401 309 405 321 b 411 308 417 329 412 313 b 341 12 383 210 357 112 b 332 -58 338 -11 335 -35 b 333 -69 331 -62 331 -66 b 343 -75 336 -72 339 -74 b 350 -64 346 -71 348 -68 b 361 -16 354 -48 357 -32 b 369 -6 362 -12 366 -9 b 367 29 367 6 367 18 z m 246 581 b 249 585 246 583 248 584 b 250 583 249 584 250 583 b 247 577 249 581 248 579 b 238 565 244 573 241 569 b 238 562 238 564 239 563 b 178 453 225 522 204 486 b 172 453 178 452 174 453 b 174 447 173 451 174 449 b 169 444 174 446 171 445 b 169 448 169 446 168 447 b 173 452 170 449 172 451 b 231 559 192 488 211 524 b 239 564 232 562 236 563 b 248 576 238 572 239 577 b 246 581 247 578 246 580 z m 291 539 b 291 544 291 540 291 542 b 289 541 290 543 289 542 b 291 539 290 540 291 540 b 285 524 286 537 283 530 b 260 487 277 512 268 500 b 256 482 260 485 258 483 b 249 483 254 482 251 482 b 247 464 255 476 252 470 b 240 459 245 462 242 460 b 240 462 240 460 240 462 b 248 463 243 462 245 463 b 250 482 244 469 245 477 b 270 519 257 494 263 507 b 276 525 271 521 273 524 b 285 524 279 526 282 525 b 291 539 284 530 282 537 z m 176 514 b 179 532 177 520 178 526 b 232 643 197 569 214 606 b 246 663 236 650 241 657 b 246 669 246 665 246 667 b 248 672 246 670 247 671 b 250 667 248 670 250 668 b 245 664 249 666 246 665 b 245 661 245 663 245 662 b 187 533 233 615 211 574 b 178 533 186 532 181 533 b 181 523 181 530 182 526 b 175 515 181 519 178 516 b 171 497 174 509 172 503 b 164 490 169 495 166 493 b 148 485 161 484 154 482 b 152 476 149 482 151 479 l 150 475 b 148 485 149 478 148 481 b 158 492 151 487 155 489 b 172 496 162 499 167 497 b 176 514 166 508 167 509 z m 591 787 b 592 781 591 785 592 783 b 588 778 592 780 589 779 b 588 781 588 779 587 780 b 592 786 589 783 590 784 b 596 791 593 788 594 789 b 598 790 596 791 597 790 l 591 787 z m 501 585 b 509 599 502 591 499 599 b 517 629 505 611 510 621 b 526 632 518 631 523 631 b 531 649 521 643 522 645 b 538 668 529 656 532 663 b 541 688 539 675 540 681 b 548 703 543 693 545 698 b 553 709 549 706 551 708 b 561 708 556 710 559 710 l 560 717 b 561 709 561 714 561 711 b 551 696 558 704 555 700 b 540 689 548 693 544 691 b 537 669 539 683 538 676 b 530 650 535 663 532 656 l 525 633 b 508 600 519 622 514 611 b 500 586 507 595 508 587 b 495 563 498 579 497 571 b 472 508 489 544 486 524 b 468 484 471 500 470 492 b 439 415 460 460 451 437 b 438 426 438 419 438 422 b 464 498 447 450 455 474 b 473 507 466 502 470 504 b 493 562 472 527 479 547 b 496 562 493 563 495 562 b 501 585 492 570 494 580 z m 490 309 b 503 319 494 312 498 316 b 503 325 503 321 503 323 b 503 319 503 323 503 321 b 490 309 500 314 497 309 b 488 280 491 299 494 289 b 484 266 486 275 485 271 b 488 278 478 274 484 276 z m 476 226 b 474 242 475 231 474 237 l 476 242 l 476 226 b 465 210 472 221 469 215 b 455 186 464 201 467 190 l 455 148 b 443 116 451 137 448 126 b 433 109 441 112 436 111 l 437 87 b 433 108 428 93 433 101 b 445 141 437 119 440 130 b 455 148 446 144 451 146 b 456 185 453 160 450 173 b 466 209 460 193 455 204 b 476 226 465 217 465 225 z m 423 67 b 424 39 431 52 429 45 b 422 22 423 33 422 28 b 411 11 421 15 416 13 l 415 -16 b 411 11 408 -8 413 2 b 416 24 413 15 414 20 b 425 38 419 29 422 33 b 423 67 424 45 424 52 z m 156 421 b 155 423 156 422 155 422 b 157 426 155 424 156 425 l 158 423 z m 477 417 l 476 414 l 475 416 z m 228 436 l 226 436 l 228 439 z m 255 691 l 256 693 l 257 691 z "},"5":{"ha":611,"x_min":0,"x_max":0,"o":"m 238 366 b 408 377 294 384 350 392 b 469 271 460 363 498 326 b 218 46 413 170 325 91 b 31 48 156 21 93 13 b 11 55 25 51 18 54 b 16 3 -14 59 12 11 b 158 -90 47 -48 99 -82 b 468 13 267 -105 386 -56 b 503 48 480 24 492 35 b 574 269 556 109 582 189 b 431 457 565 350 513 434 b 358 462 407 463 383 465 b 292 451 336 460 315 453 b 285 457 287 450 282 451 b 337 558 302 491 321 524 b 361 612 345 576 353 594 b 382 663 363 617 380 663 b 402 660 388 662 395 662 b 507 649 437 654 472 651 b 608 660 541 649 575 649 b 677 813 674 683 687 752 b 656 833 676 824 667 832 b 588 810 635 822 612 814 b 479 804 552 805 515 803 b 367 810 442 804 404 806 b 285 832 338 814 311 818 b 260 830 273 840 266 838 b 266 809 252 820 267 816 l 249 801 b 248 795 248 797 248 796 b 258 780 251 790 255 785 b 238 760 250 774 234 774 b 268 703 244 740 239 713 b 276 694 270 702 272 698 b 262 659 272 683 268 671 b 131 437 228 580 184 505 b 122 422 127 433 124 428 b 125 410 122 418 123 414 b 148 389 141 412 139 395 l 168 401 b 161 373 165 391 163 382 l 202 355 b 238 366 207 352 231 364 z m 255 583 b 257 606 256 591 257 598 b 261 605 259 606 260 605 l 261 608 l 257 606 b 254 585 256 599 255 592 b 247 571 252 580 249 575 b 242 554 246 565 244 560 b 237 539 241 549 239 544 b 225 527 233 535 229 531 b 217 523 222 526 219 524 b 198 506 215 506 214 505 l 203 496 l 200 495 l 198 506 l 217 523 b 237 538 223 538 224 539 b 243 553 232 551 233 552 b 248 569 239 565 239 566 b 255 583 248 575 246 582 z m 249 510 b 250 517 249 512 249 514 l 249 510 b 239 498 246 506 242 502 b 230 496 236 497 233 496 b 217 463 235 481 223 473 b 202 453 214 458 211 450 b 193 440 206 445 200 442 l 203 453 b 231 495 212 467 222 481 b 249 510 235 503 239 510 z m 389 -9 b 399 -1 388 -1 394 -2 b 388 -9 398 -9 394 -10 b 355 -33 384 -23 370 -24 b 389 -9 369 -14 369 -14 z m 529 773 b 380 779 459 765 411 767 b 380 781 380 780 379 781 b 383 783 380 782 381 783 b 386 783 384 783 385 784 b 529 773 432 780 477 777 z m 368 104 b 367 93 375 98 370 95 b 290 43 344 72 318 55 b 281 44 288 42 286 43 z m 365 52 b 303 17 353 30 329 16 b 348 43 318 26 333 34 b 365 52 354 46 359 49 z m 457 740 b 393 748 425 732 409 733 z m 447 683 b 386 691 426 676 403 679 z m 255 451 l 258 452 l 257 450 z m 180 415 l 178 416 l 179 418 z m 186 471 b 185 473 185 472 185 472 b 185 476 185 474 185 475 b 188 472 186 475 187 473 b 186 471 188 472 186 471 z "},"6":{"ha":593,"x_min":0,"x_max":0,"o":"m 310 504 b 313 511 310 506 311 509 b 416 659 344 563 379 612 b 488 726 437 684 462 707 b 568 758 511 744 539 755 b 604 773 580 758 600 759 b 592 800 607 783 599 794 b 538 826 576 813 558 822 b 429 816 501 833 463 830 b 261 706 366 792 308 754 b 121 529 206 654 159 594 b 10 240 70 438 27 344 b 8 64 0 181 -5 123 b 280 -74 36 -62 162 -120 l 283 -73 b 421 13 334 -53 380 -24 b 548 230 484 69 536 145 b 459 457 559 312 527 406 b 326 497 420 485 373 499 b 313 500 321 496 316 497 b 310 504 311 500 310 502 z m 174 451 b 183 460 172 460 177 460 b 191 476 180 472 180 472 b 193 495 185 483 185 489 b 215 529 195 509 203 521 b 217 540 215 533 215 536 b 378 731 261 611 311 678 b 399 742 385 735 392 739 l 412 757 b 399 743 411 744 407 741 b 390 729 396 738 393 733 b 228 544 328 675 274 612 b 214 530 224 539 219 534 b 192 495 213 515 208 502 l 190 477 b 182 462 188 471 185 467 b 173 452 179 458 176 455 l 169 432 b 161 420 166 428 164 424 b 148 414 156 418 152 416 l 148 407 l 147 414 b 161 418 152 416 157 417 b 169 432 157 427 163 429 b 174 451 169 438 162 447 z m 49 212 b 50 254 43 225 44 241 b 66 330 52 280 57 306 b 240 643 106 445 160 551 b 270 672 249 654 260 663 b 296 697 274 684 284 693 b 273 670 292 685 284 675 b 255 644 267 661 261 652 b 65 289 168 540 104 419 b 50 255 61 278 62 263 l 49 212 b 40 197 46 207 43 202 b 49 212 38 205 42 209 z m 306 9 l 312 9 b 312 19 312 12 310 17 b 331 35 318 24 324 30 b 325 20 335 25 328 23 b 312 9 320 16 316 13 z m 179 16 b 169 44 170 22 170 34 b 248 389 164 165 208 276 b 254 402 249 393 251 398 b 335 421 267 420 314 422 b 421 396 365 420 395 411 b 442 358 434 388 443 373 b 426 268 442 327 436 297 b 288 65 399 189 351 119 b 232 29 271 51 252 39 b 179 16 219 23 193 6 z m 435 709 b 399 671 424 697 413 686 b 435 709 413 695 413 695 z m 350 89 b 317 57 344 74 332 63 b 350 89 324 72 338 79 z m 337 731 b 335 733 336 732 335 733 b 340 738 337 735 338 736 b 341 736 340 737 341 736 b 337 731 339 734 338 733 z m 300 46 b 305 44 301 47 304 45 b 303 42 305 43 304 42 b 292 37 301 41 298 40 b 300 46 294 41 297 44 z m 359 -12 b 379 4 361 -3 369 4 z m 360 632 l 361 629 l 359 629 z "},"7":{"ha":626,"x_min":0,"x_max":0,"o":"m 78 118 b 90 158 76 133 85 145 b 109 199 96 172 103 186 b 131 213 115 206 121 213 b 134 232 131 219 124 227 b 142 246 135 238 134 244 b 144 265 142 252 143 258 b 151 271 146 266 149 268 b 167 276 154 276 161 278 b 165 301 166 284 166 293 b 174 308 168 303 171 305 b 188 312 177 313 183 315 b 185 318 187 314 186 316 b 186 323 185 320 185 322 b 188 319 187 322 188 321 b 187 313 188 317 188 315 b 181 306 185 311 182 309 b 164 301 177 300 170 298 b 167 276 165 293 166 285 b 159 271 164 275 161 273 b 143 265 156 266 149 263 b 141 247 146 259 151 252 l 133 233 b 131 213 133 226 132 219 b 119 203 127 209 124 206 b 109 200 116 201 112 200 b 110 183 109 194 112 187 b 77 119 100 161 88 140 b 70 105 76 113 78 106 b 64 77 68 95 66 86 b 38 -4 56 50 46 24 b 31 -45 35 -17 32 -31 b 45 -59 29 -53 33 -59 b 68 -13 51 -46 58 -32 b 58 -70 64 -37 61 -54 b 111 -56 86 -87 88 -86 l 111 -85 b 133 -62 125 -82 129 -72 b 147 -18 139 -48 143 -33 b 203 126 161 32 180 80 b 311 310 235 190 271 251 b 361 377 326 333 341 357 b 447 355 391 374 420 366 b 482 353 459 351 470 346 b 483 363 482 356 482 360 b 482 403 490 376 500 390 b 485 415 481 404 487 412 b 473 426 482 419 472 423 b 452 447 475 443 463 444 b 426 455 443 449 434 452 b 442 482 426 468 435 475 b 622 673 498 549 558 613 b 654 693 631 682 642 689 b 667 703 659 694 667 699 b 689 743 670 720 683 729 b 690 779 694 756 699 768 b 687 804 682 788 698 794 b 671 810 682 807 677 809 b 590 807 644 812 617 818 b 545 800 576 803 560 800 b 333 787 474 795 404 790 b 188 798 284 785 236 789 b 129 832 165 803 142 808 b 100 832 122 845 110 844 b 111 721 74 801 79 746 b 192 687 136 704 163 692 b 333 670 239 677 286 671 b 397 669 354 670 375 669 b 409 660 402 669 415 667 b 366 611 396 642 380 627 b 265 486 331 571 296 529 b 226 464 255 474 241 466 b 138 430 194 460 164 448 b 119 380 123 418 115 399 b 141 361 120 367 128 358 b 176 364 153 363 164 370 b 168 347 173 358 171 352 b 102 234 146 310 123 272 b 12 31 65 170 35 101 b 1 -17 7 15 3 -1 b 3 -33 -1 -23 0 -29 b 16 -43 6 -38 11 -41 b 29 -7 22 -32 27 -20 b 61 91 39 26 50 58 b 70 104 63 95 66 100 b 78 118 70 110 69 117 z m 134 732 b 137 732 135 732 137 732 b 138 726 138 730 138 728 b 145 727 140 726 143 727 b 148 723 146 727 147 724 b 145 723 147 723 146 722 b 139 727 143 724 141 725 b 134 732 138 728 136 730 z m 175 126 b 174 113 176 122 175 117 b 147 47 166 91 157 69 b 140 42 146 45 142 44 b 134 20 143 34 141 25 b 133 13 134 17 133 15 b 131 11 133 13 132 12 b 129 13 130 12 129 13 b 135 19 131 15 133 17 b 141 41 133 27 132 35 b 176 126 146 71 158 100 l 180 144 b 187 158 182 149 184 154 b 193 173 192 161 195 167 b 207 191 198 179 203 185 b 224 198 212 197 218 197 b 226 219 221 205 218 212 b 229 237 227 225 228 231 b 247 254 235 243 241 248 b 267 269 253 270 254 270 b 265 292 263 276 262 285 b 282 311 271 299 276 305 b 294 330 285 316 289 321 b 281 312 294 317 292 311 b 264 293 281 296 279 294 b 266 269 265 285 266 277 b 254 260 262 266 258 263 b 246 255 251 258 249 256 b 229 237 245 239 243 238 b 225 220 230 231 237 223 l 224 198 b 208 178 213 196 212 185 b 193 174 205 173 198 171 b 186 159 197 166 194 161 b 179 145 191 147 191 146 b 175 126 185 133 184 131 z m 300 484 b 318 508 303 497 308 505 b 347 544 323 523 333 536 b 377 582 351 561 366 570 b 346 544 365 557 365 557 b 318 509 338 525 333 519 b 300 484 317 498 312 491 z m 73 23 b 114 132 83 60 97 97 b 248 363 153 212 198 290 b 264 383 253 370 258 376 b 260 363 272 373 263 368 b 166 210 229 312 196 262 b 91 47 136 158 111 103 b 75 5 86 33 81 19 l 71 6 b 73 23 71 12 72 17 z m 338 474 b 335 474 338 473 336 474 b 334 480 335 476 333 479 b 497 665 384 546 438 608 b 509 672 501 668 505 670 l 512 669 b 338 474 454 604 396 539 z m 396 599 b 461 666 411 627 434 650 b 396 599 439 642 423 621 z m 514 594 b 514 603 514 599 513 602 b 558 649 529 619 544 634 b 514 594 549 627 532 612 z m 477 563 b 442 520 472 546 472 546 b 477 563 451 536 463 551 z m 423 502 b 428 504 424 503 426 504 b 429 498 428 502 430 499 b 409 476 422 491 416 483 l 405 480 b 423 502 411 488 417 495 z m 322 362 b 331 374 317 370 324 373 z m 200 442 l 199 440 l 197 441 z m 225 449 l 228 448 l 225 447 z m 215 370 b 217 370 216 370 217 370 b 217 367 217 369 217 368 l 214 367 l 215 370 z m 170 719 l 170 715 b 168 716 169 715 168 716 b 167 718 167 716 167 717 z m 203 346 b 202 344 203 345 202 344 b 200 347 201 344 200 345 b 202 349 200 347 201 348 l 203 346 z m 310 347 b 308 342 309 345 309 344 b 306 344 307 343 306 343 b 308 349 306 346 307 347 l 310 347 z m 123 -12 l 123 -9 l 124 -10 z m 115 -37 l 117 -37 l 116 -40 z "},"8":{"ha":646,"x_min":0,"x_max":0,"o":"m 427 384 b 487 424 447 397 467 410 b 618 633 553 469 620 549 b 503 822 616 709 568 784 b 250 808 423 869 325 860 b 132 598 179 761 135 683 b 160 503 130 564 140 530 b 201 447 173 484 188 466 b 211 431 205 442 213 439 b 206 426 209 429 208 427 b 38 260 134 390 75 332 b 6 62 8 198 -11 133 b 186 -100 26 -20 106 -81 b 382 -50 258 -117 324 -93 b 497 120 441 -7 477 51 b 489 264 512 168 512 218 b 406 369 469 304 437 337 b 427 384 414 374 420 379 z m 415 84 b 417 75 416 81 417 78 b 415 73 417 74 416 74 b 413 77 415 74 413 76 b 416 83 414 79 415 82 b 418 86 416 84 417 85 b 423 87 420 86 421 87 b 421 83 422 86 422 83 b 415 84 419 82 417 84 z m 393 89 b 392 92 393 90 392 91 b 398 95 394 93 396 94 b 405 109 398 101 397 107 b 408 116 406 111 407 114 b 409 114 408 115 409 114 b 404 110 407 112 406 111 b 397 96 404 104 405 98 z m 53 239 b 52 234 53 238 52 236 l 52 239 b 63 248 56 242 59 245 b 69 263 65 253 67 258 b 91 297 73 276 77 290 b 108 321 90 309 99 315 b 90 297 105 311 103 300 b 68 264 90 283 82 270 b 62 249 70 257 71 251 b 53 239 63 242 60 238 z m 126 290 b 133 304 124 297 124 303 b 137 316 134 308 134 313 b 183 363 151 332 167 346 b 184 357 184 359 185 357 b 138 306 169 340 154 323 b 135 305 137 305 137 305 b 132 304 134 305 133 304 z m 286 360 b 299 356 291 360 295 358 b 361 312 322 345 343 330 b 397 254 378 296 390 276 b 389 132 407 214 405 171 b 319 28 375 92 351 57 b 197 -31 286 -1 241 -27 b 130 83 140 -36 129 42 b 138 152 131 106 133 129 b 244 337 155 222 192 287 b 282 361 254 347 267 361 b 286 360 284 361 285 361 z m 512 726 b 498 644 523 702 510 669 b 443 567 484 616 466 590 b 305 451 401 525 357 482 b 255 521 284 439 258 509 b 265 631 246 558 250 597 b 339 719 281 667 306 698 b 423 753 364 736 393 748 b 487 747 445 756 467 754 b 512 726 498 743 507 736 z m 475 565 b 451 527 471 547 471 547 b 414 503 440 518 431 506 z m 420 469 b 469 511 436 483 452 498 b 478 516 472 513 475 515 b 420 469 463 491 456 484 z m 294 771 b 253 732 282 757 268 743 b 294 771 264 755 264 755 z m 496 463 l 499 459 l 484 445 l 479 449 z m 231 764 b 211 741 232 754 232 754 z m 384 475 b 384 478 384 476 384 477 b 389 481 386 479 387 480 l 388 478 z m 407 452 l 405 455 l 408 455 z m 178 288 l 177 291 l 179 290 z m 209 731 b 206 726 208 729 207 728 b 204 728 205 727 203 728 b 206 734 204 730 205 732 l 209 731 z m 449 51 l 448 54 l 451 54 z "},"9":{"ha":633,"x_min":0,"x_max":0,"o":"m 295 237 b 292 229 295 234 294 231 b 189 82 261 178 226 128 b 116 14 167 56 143 33 b 36 -17 93 -4 65 -15 b 1 -32 25 -18 5 -19 b 13 -59 -2 -42 6 -53 b 67 -86 28 -73 47 -82 b 176 -76 104 -93 141 -89 b 344 34 239 -51 296 -14 b 483 212 398 87 445 146 b 595 500 535 303 577 397 b 597 676 605 559 610 617 b 324 814 569 802 442 860 l 322 813 b 184 728 271 793 224 764 b 57 510 120 671 68 596 b 146 284 46 428 78 334 b 279 244 184 255 231 241 b 292 241 284 244 288 243 b 295 237 293 240 294 238 z m 431 289 b 421 280 433 281 427 280 b 414 265 425 268 425 268 b 412 246 420 258 420 251 b 390 211 410 232 402 219 b 388 201 390 207 389 204 b 227 9 344 129 294 62 b 206 -2 220 5 213 1 b 192 -16 202 -6 198 -10 b 206 -2 193 -4 198 -1 b 215 12 209 3 212 7 b 376 196 277 66 331 128 b 391 210 381 202 385 206 b 413 245 392 226 397 239 l 415 264 b 422 279 417 269 420 274 b 432 288 425 282 429 285 l 435 309 b 444 321 438 313 441 317 b 457 326 448 323 453 324 l 457 333 l 457 326 b 443 322 453 325 448 323 b 435 309 448 313 441 311 b 431 289 436 302 443 294 z m 555 529 b 554 486 562 515 561 499 b 538 410 553 460 548 434 b 365 97 499 295 445 189 b 335 68 355 87 345 78 b 308 44 330 56 321 47 b 332 70 312 55 321 65 b 350 96 338 79 343 88 b 540 451 436 201 501 321 b 555 485 544 463 543 477 b 556 528 555 499 556 514 b 565 543 559 534 562 539 b 555 529 567 536 563 531 z m 299 731 l 293 731 b 293 722 293 728 295 723 b 274 706 287 716 280 711 b 280 720 270 715 277 717 b 293 732 284 724 289 728 z m 425 725 b 435 697 434 719 435 706 b 357 352 440 575 396 464 b 351 338 356 347 354 342 b 270 319 337 320 290 319 b 184 345 240 320 210 329 b 163 382 170 352 162 367 b 179 473 163 413 168 444 b 317 675 206 551 253 621 b 372 711 334 689 352 702 b 425 725 385 718 411 734 z m 170 32 b 205 69 181 43 192 55 b 170 32 192 45 192 45 z m 255 652 b 287 683 261 666 273 677 b 255 652 280 669 267 661 z m 268 9 b 270 7 269 9 270 7 b 265 3 268 6 267 4 b 264 5 265 3 264 4 b 268 9 265 6 267 8 z m 313 703 b 304 694 310 700 307 697 b 300 696 303 694 301 695 b 301 699 300 697 301 698 b 313 703 304 700 307 701 z m 246 752 b 226 736 244 743 236 736 z m 244 109 l 244 111 l 246 111 z "},"\u0000":{"ha":0,"x_min":0,"x_max":0,"o":""},"\n":{"ha":0,"x_min":0,"x_max":0,"o":""},"\r":{"ha":0,"x_min":0,"x_max":0,"o":""}," ":{"ha":413,"x_min":0,"x_max":0,"o":""},"!":{"ha":528,"x_min":0,"x_max":0,"o":"m 455 881 l 442 876 b 442 890 442 883 442 889 b 419 914 436 903 429 911 b 412 915 417 914 414 915 l 397 900 b 396 923 397 909 396 916 b 373 921 395 932 375 923 b 354 894 365 913 359 904 b 361 914 358 900 361 907 b 356 927 361 919 359 924 b 349 930 354 929 351 930 b 337 925 344 930 340 928 b 326 903 331 918 328 911 b 147 287 260 700 192 496 b 152 173 142 262 109 176 b 163 169 156 173 160 171 b 184 168 173 160 173 160 b 191 171 186 169 189 170 l 192 156 b 218 151 209 149 209 149 b 230 153 222 152 226 153 b 272 200 255 148 266 182 b 305 303 283 234 295 268 b 381 560 332 388 356 474 b 455 835 408 651 434 742 b 459 868 458 846 459 857 b 455 881 458 873 457 877 z m 180 267 b 165 209 175 248 170 229 b 162 201 164 206 163 204 l 158 202 b 157 209 157 204 157 206 b 200 391 171 269 184 330 b 252 570 216 451 235 510 b 268 631 258 590 263 611 b 305 750 280 670 292 710 b 334 839 314 780 324 809 b 350 867 336 850 342 859 b 325 782 342 839 334 810 b 285 646 312 737 298 692 b 219 421 263 571 240 496 b 180 267 205 370 193 319 z m 232 319 b 205 230 223 289 214 260 b 197 223 203 226 202 222 b 336 704 211 308 306 637 b 332 688 334 695 333 691 b 267 444 312 606 291 525 b 232 319 254 403 244 361 z m 371 615 b 365 582 369 604 367 593 b 357 550 363 571 360 561 b 286 308 333 469 310 389 b 268 254 281 290 274 272 b 379 645 298 386 335 517 b 371 615 376 635 373 625 z m 199 52 b 173 84 196 73 186 86 l 158 69 b 160 91 159 79 160 85 b 138 90 151 98 144 97 b 129 76 135 85 132 81 b 113 48 124 67 118 57 l 111 49 b 128 98 116 65 122 81 b 105 92 120 102 110 99 b 91 70 99 86 95 78 b 71 -1 81 47 75 24 b 70 -13 70 -5 70 -9 b 85 -44 69 -26 70 -38 b 91 -51 88 -46 90 -48 b 112 -63 94 -61 100 -65 b 125 -88 111 -73 116 -83 b 153 -90 134 -92 144 -93 b 160 -100 154 -94 153 -99 b 180 -86 169 -98 176 -93 b 193 -61 186 -78 190 -69 b 212 38 203 -29 209 5 b 211 52 212 43 212 47 z "},"\"":{"ha":457,"x_min":0,"x_max":0,"o":"m 185 920 b 77 928 155 941 108 956 b 80 892 63 916 71 905 b 124 876 92 875 105 873 b 155 865 135 878 156 882 b 109 781 153 832 136 801 b 95 769 104 778 99 774 b 100 757 91 766 95 758 b 109 756 103 756 106 760 b 106 750 108 754 107 752 b 107 742 106 747 105 743 b 115 741 108 740 112 740 b 122 744 117 741 119 743 b 130 744 124 744 126 749 l 116 728 b 135 711 119 717 128 716 b 164 711 144 705 155 704 b 224 771 189 725 210 746 b 185 920 253 823 231 886 z m 139 785 l 152 800 b 139 785 147 787 147 787 z m 151 760 l 147 763 l 159 774 b 151 760 162 764 153 764 z m 335 920 b 226 928 305 941 257 956 b 229 892 213 916 221 905 b 274 876 241 875 254 873 b 305 865 285 878 306 882 b 259 781 303 832 286 801 b 244 769 254 778 249 774 b 250 757 241 766 244 758 b 259 756 253 756 256 760 b 256 750 258 754 257 752 b 256 742 256 747 255 743 b 265 741 258 740 262 740 b 271 744 267 741 269 743 b 279 744 274 744 276 749 l 266 728 b 285 711 269 717 278 716 b 313 711 293 705 305 704 b 374 771 339 725 360 746 b 335 920 403 823 381 886 z m 288 785 l 302 800 b 288 785 297 787 297 787 z m 300 760 l 297 763 l 308 774 b 300 760 312 764 303 764 z "},"#":{"ha":742,"x_min":0,"x_max":0,"o":"m 672 531 b 669 543 671 535 669 538 b 664 548 669 544 666 547 b 653 551 660 549 657 551 b 613 554 640 552 627 554 b 560 555 596 555 578 555 b 600 702 574 604 587 653 b 611 758 605 721 609 739 b 590 789 614 774 607 783 l 584 782 b 582 792 583 785 583 788 b 565 791 576 792 571 790 b 557 787 563 792 559 789 b 549 774 553 783 551 779 b 530 724 542 757 536 741 b 504 638 521 695 513 666 b 483 564 497 613 490 589 b 481 556 482 562 481 559 b 420 557 460 556 440 557 b 347 557 396 557 372 557 b 332 556 342 557 337 557 b 372 702 346 605 359 654 b 383 758 377 721 380 739 b 362 789 386 774 378 783 l 356 782 b 354 792 355 785 355 788 b 337 791 348 792 343 790 b 328 787 335 792 331 789 b 321 774 325 783 323 779 b 302 723 314 757 307 741 b 276 638 293 695 285 666 b 255 564 269 613 262 589 b 252 556 254 562 253 559 b 245 556 250 556 247 556 b 162 556 217 556 189 556 b 146 555 157 555 151 555 b 123 553 139 554 131 553 b 118 545 119 552 118 552 b 128 542 120 542 125 546 b 120 539 125 541 122 541 b 118 533 117 538 116 536 b 124 533 120 533 122 533 b 131 532 127 533 129 532 l 131 531 l 117 527 b 118 518 116 524 116 521 b 126 514 120 516 123 514 b 126 512 126 514 126 513 b 122 509 125 511 122 512 b 128 507 124 508 126 507 b 173 503 143 505 158 504 b 237 502 195 503 216 502 b 229 472 234 492 231 482 b 202 377 220 440 211 408 b 196 356 200 370 198 363 b 115 356 169 356 142 356 b 99 355 109 356 104 355 b 76 353 91 354 84 354 b 70 345 72 352 71 352 b 81 342 73 342 78 346 b 72 340 78 341 75 341 b 70 333 69 338 69 336 b 77 333 73 333 75 333 b 84 332 79 333 82 332 l 84 331 l 70 327 b 71 318 69 324 69 321 b 78 314 73 316 75 314 b 79 312 79 314 79 313 b 75 309 78 311 75 312 b 81 307 77 308 79 307 b 126 303 96 305 111 304 b 182 302 145 303 163 302 b 165 243 176 282 170 262 b 136 134 155 206 145 170 b 131 114 134 127 133 120 b 125 83 129 103 127 93 b 133 73 124 77 125 76 b 141 86 138 75 135 83 b 141 73 141 81 141 77 b 149 68 142 69 144 67 b 152 77 150 71 151 74 b 155 86 153 80 154 83 l 157 86 b 157 66 157 79 157 72 b 169 64 160 63 165 62 b 177 71 173 65 176 68 b 179 72 177 72 179 72 b 183 66 181 70 178 67 b 187 72 184 68 186 70 b 208 130 194 92 202 111 b 244 249 221 170 232 210 b 259 301 249 267 254 284 b 313 300 277 301 295 301 b 409 300 345 300 377 300 b 393 243 404 281 398 262 b 364 134 383 206 374 170 b 359 114 362 127 361 120 b 354 83 357 103 355 93 b 361 73 353 77 353 76 b 369 86 366 75 363 83 b 370 73 369 81 369 77 b 377 68 370 69 372 67 b 380 77 378 71 379 74 b 383 86 381 80 382 83 l 385 86 b 385 66 385 79 385 72 b 397 64 388 63 393 62 b 405 71 401 65 404 68 b 408 72 406 72 407 72 b 411 66 409 70 407 67 b 415 72 413 68 414 70 b 436 130 423 92 430 111 b 472 249 449 170 460 210 b 487 300 477 266 482 283 b 565 300 513 300 539 300 b 607 303 579 300 593 301 b 624 324 619 305 624 311 l 618 327 l 625 330 b 621 342 624 335 621 338 b 616 348 621 344 618 347 b 606 351 613 349 609 350 b 566 354 593 352 579 354 b 503 355 545 355 524 355 b 508 373 505 361 506 367 b 544 500 520 415 532 457 b 612 500 567 500 589 500 b 654 503 626 500 640 501 b 672 524 666 505 671 511 l 665 527 z m 197 235 l 197 237 l 197 237 z m 201 246 b 200 246 200 246 200 246 b 200 247 200 246 200 247 b 201 247 200 247 201 247 b 201 246 201 247 201 246 z m 562 608 b 561 608 561 608 561 608 b 561 609 561 608 561 609 b 562 609 561 609 562 609 b 562 608 562 609 562 608 z m 520 645 b 557 763 532 685 544 724 b 566 779 558 769 561 775 b 566 774 566 777 566 776 b 529 657 552 736 540 696 b 500 556 520 623 510 590 l 495 556 b 520 645 503 586 511 616 z m 558 596 b 559 598 557 596 558 597 b 559 597 559 597 559 597 b 559 594 559 596 559 595 b 558 596 558 595 558 595 z m 558 593 b 555 585 557 591 556 588 b 558 593 554 590 555 592 z m 548 664 l 547 663 l 547 665 z m 545 653 l 544 652 b 544 653 544 653 544 653 b 544 654 544 654 544 654 z m 540 641 b 542 643 540 641 541 642 b 542 642 542 642 542 642 b 542 639 542 641 542 640 b 540 641 541 640 541 640 z m 542 639 b 535 619 541 632 538 625 b 540 638 534 626 536 633 b 542 639 540 639 541 639 z m 506 529 b 507 532 506 530 507 531 l 513 532 b 512 529 512 531 512 530 z m 506 510 b 506 508 506 510 506 509 l 500 508 b 501 511 500 509 500 510 b 506 510 503 510 504 510 z m 510 542 b 511 546 510 544 510 545 b 516 546 513 546 515 546 b 515 542 516 545 516 544 z m 492 546 b 497 546 494 546 496 546 b 496 542 497 545 497 544 l 491 542 z m 488 533 l 493 533 l 492 529 l 487 529 b 488 533 487 530 488 531 z m 482 511 l 487 511 l 486 508 l 481 508 b 482 511 481 509 481 510 z m 484 500 b 479 483 482 494 481 488 b 452 389 470 451 461 420 b 448 382 451 387 449 384 b 449 392 447 385 447 389 b 479 500 459 428 469 464 z m 434 342 b 436 347 435 344 436 345 l 440 347 b 438 342 439 345 439 344 z m 436 332 b 435 331 436 331 435 331 b 433 331 434 331 434 331 b 435 332 434 331 434 332 b 436 332 435 332 436 332 z m 439 356 b 439 357 439 357 439 357 b 445 371 441 361 440 367 b 443 356 445 366 444 361 b 439 356 442 356 440 356 z m 448 381 b 445 371 449 378 448 374 b 444 377 444 373 444 375 b 448 381 445 379 446 380 z m 325 530 b 325 533 325 531 325 532 b 448 533 366 533 407 533 b 474 533 456 533 465 533 b 473 529 474 532 473 530 b 400 529 449 529 424 529 b 325 530 375 529 350 530 z m 348 509 b 340 509 345 508 342 508 b 348 509 342 511 346 511 z m 340 509 l 333 509 b 340 510 337 511 338 512 z m 327 510 b 326 510 327 510 327 510 b 326 510 326 510 326 510 b 326 510 326 510 326 510 b 327 510 326 511 327 510 z m 317 556 b 321 572 318 562 320 567 b 327 583 323 576 323 580 b 324 569 326 578 325 574 b 321 556 323 565 322 561 b 317 556 319 556 318 556 z m 319 510 b 319 510 319 510 319 510 l 319 511 b 319 510 319 510 319 510 z m 319 663 l 319 664 l 320 663 z m 330 593 b 327 585 329 590 328 588 b 330 593 326 590 327 592 z m 329 596 b 330 598 329 596 330 597 b 331 597 331 597 331 597 b 331 594 331 596 331 595 b 329 596 330 595 330 595 z m 350 511 b 377 510 359 512 368 511 b 385 511 380 511 382 511 b 467 511 413 511 440 511 l 468 511 l 467 508 b 391 508 441 508 416 508 b 377 509 386 507 381 508 b 348 510 367 508 358 508 b 350 511 349 510 349 511 z m 361 546 b 465 546 396 546 431 547 l 478 546 b 477 542 477 545 477 544 l 432 543 b 360 544 408 543 384 543 b 354 545 358 544 356 544 b 361 546 356 546 359 547 z m 354 545 b 346 545 352 543 348 543 b 350 547 347 546 349 547 b 354 545 351 547 353 546 z m 335 546 b 346 545 338 546 342 548 b 328 544 340 543 334 543 b 329 546 329 545 329 546 b 335 546 331 547 333 547 z m 334 608 b 333 608 333 608 333 608 b 333 609 333 608 333 609 b 334 609 333 609 334 609 b 334 608 334 609 334 608 z m 292 645 b 328 763 304 685 316 724 b 337 779 330 769 333 775 b 338 774 338 777 338 776 b 301 657 323 736 312 696 b 272 556 292 623 282 590 b 266 556 270 556 268 556 b 292 645 275 586 283 616 z m 316 652 b 315 653 316 653 316 653 b 316 654 315 654 316 654 l 317 653 z m 316 543 b 315 544 316 544 316 544 b 315 545 315 545 315 545 b 316 545 315 545 316 545 b 316 543 316 544 316 544 z m 264 361 b 263 363 263 362 263 363 b 274 399 265 375 269 387 b 275 410 274 402 274 406 b 301 501 284 441 292 471 l 305 501 b 281 416 297 473 290 444 b 275 398 281 409 278 403 b 264 361 273 385 270 373 z m 275 348 b 271 344 274 346 273 345 l 272 345 z m 278 531 b 279 533 278 532 279 532 l 280 532 b 278 531 279 532 279 532 z m 281 532 b 285 533 282 533 283 533 b 284 531 284 532 284 532 b 281 532 283 531 282 532 z m 305 606 b 291 556 300 589 296 573 l 286 556 b 301 609 291 574 296 591 b 306 618 302 612 302 617 b 305 606 308 614 306 610 z m 307 619 b 311 638 306 626 307 633 b 313 639 312 639 313 639 b 307 619 313 632 310 625 z m 312 641 b 313 643 312 641 313 642 b 314 642 314 642 314 642 b 313 639 314 641 314 640 b 312 641 313 640 313 640 z m 310 533 l 314 533 b 313 530 314 532 314 531 l 309 531 b 310 533 310 531 310 532 z m 262 533 b 263 533 263 533 263 533 l 263 532 l 262 532 b 262 533 262 532 262 532 z m 220 391 b 251 502 231 428 241 465 l 256 502 l 251 483 b 223 389 242 451 233 420 b 220 382 222 387 221 384 b 220 391 219 385 219 388 z m 204 256 b 202 257 203 257 203 257 b 203 259 202 258 203 258 l 204 258 z m 207 267 b 205 269 206 268 205 268 b 205 271 205 269 205 270 b 207 269 206 270 206 269 b 207 267 207 268 207 268 z m 205 272 b 209 280 206 275 208 278 b 205 272 211 274 210 273 z m 210 281 b 213 291 209 285 210 288 b 213 286 213 290 214 288 b 210 281 213 284 211 282 z m 213 292 b 216 301 212 295 213 299 b 213 292 217 298 217 294 z m 215 356 l 211 356 b 211 357 211 357 211 357 b 216 371 213 361 212 367 b 215 356 217 366 216 361 z m 217 371 b 216 377 216 373 215 375 b 220 381 216 379 218 380 b 217 371 221 378 220 374 z m 224 332 b 223 332 224 331 224 332 b 224 333 223 332 223 333 b 225 334 224 333 225 334 b 224 332 225 333 225 332 z m 227 333 b 226 334 227 333 226 333 b 227 334 226 334 227 334 z m 239 274 l 238 275 l 239 275 z m 255 332 b 255 333 255 332 255 332 b 255 333 255 333 255 333 b 255 333 255 333 255 333 b 256 333 255 333 256 333 b 255 332 256 332 255 332 z m 257 436 b 234 356 250 409 242 383 l 229 356 b 269 499 242 404 256 452 b 270 502 269 500 269 501 l 276 502 b 257 436 270 480 264 458 z m 264 360 b 264 357 264 359 264 358 l 261 357 b 264 360 261 358 262 359 z m 264 310 l 262 310 b 262 311 262 310 262 311 b 264 311 263 311 264 311 z m 271 310 l 271 311 l 272 311 b 272 310 272 311 272 310 b 271 310 272 310 272 310 z m 279 310 b 279 310 279 310 279 310 b 279 311 279 310 279 310 b 280 311 279 311 280 311 b 279 310 280 310 280 310 z m 286 309 b 292 310 289 311 291 312 z m 293 310 b 300 310 295 312 298 312 b 293 310 298 308 295 308 z m 412 310 b 411 308 412 310 412 309 b 343 308 389 308 366 308 b 330 309 339 307 334 308 b 301 310 320 308 310 308 b 302 311 301 310 302 311 b 330 310 312 312 321 312 b 338 311 332 311 335 311 b 412 311 363 311 388 311 z m 417 329 b 353 329 396 329 374 329 b 267 330 324 329 296 330 b 268 333 268 331 268 332 b 401 333 312 333 356 333 b 418 333 406 333 412 333 b 417 329 418 332 418 330 z m 275 348 b 288 347 279 345 284 347 b 298 345 291 346 295 348 b 276 344 291 343 284 343 z m 299 345 b 303 347 300 346 301 347 b 307 345 304 347 306 346 b 299 345 304 343 301 343 z m 421 343 l 385 343 b 313 344 361 343 337 344 b 307 345 311 344 309 345 b 314 347 309 347 312 347 b 418 347 349 347 383 347 l 422 347 b 421 343 422 345 421 344 z m 425 235 l 425 237 l 426 237 z m 427 310 b 428 310 428 310 428 310 b 428 309 428 310 428 309 b 427 309 428 309 427 309 b 427 310 427 310 427 310 z m 429 246 b 428 246 428 246 428 246 b 428 247 428 246 428 247 b 429 247 428 247 429 247 b 429 246 429 247 429 246 z m 425 357 b 373 357 407 357 390 357 b 300 357 349 357 324 357 b 275 357 292 357 283 357 b 280 373 277 362 278 368 b 316 501 292 416 304 458 b 360 501 331 501 346 501 b 465 500 395 500 430 500 b 457 472 462 491 459 481 b 430 377 448 440 439 409 b 425 357 428 370 427 363 z m 432 256 b 430 257 431 257 431 257 b 431 259 430 258 431 258 l 432 258 z m 435 267 b 433 269 434 268 433 268 b 433 271 433 269 433 270 b 435 269 434 270 435 269 b 435 267 436 268 435 268 z m 433 272 b 438 280 435 275 436 278 b 433 272 439 274 438 273 z m 438 281 b 441 291 437 285 438 288 b 441 286 442 290 442 288 b 438 281 441 284 440 282 z m 441 292 b 443 300 440 295 441 298 l 444 300 b 441 292 445 297 444 293 z m 448 308 l 445 308 b 445 311 445 309 445 310 b 449 311 446 311 447 311 b 448 308 448 310 448 309 z m 454 329 l 450 329 l 451 333 l 455 333 z m 458 342 l 454 342 l 455 346 l 459 346 z m 467 274 l 466 275 l 467 275 z m 483 332 b 483 332 483 332 483 332 l 484 332 b 483 332 484 332 484 332 z m 462 356 l 457 356 b 497 499 471 404 484 452 l 497 500 l 503 500 b 485 436 498 478 492 457 b 462 356 478 409 470 383 z m 487 342 l 487 342 b 486 346 487 343 486 345 l 488 346 z m 490 309 b 490 310 490 309 490 310 b 491 310 490 310 491 310 b 491 309 491 310 491 309 b 490 309 491 309 491 309 z m 492 356 l 489 356 b 492 360 489 358 490 359 b 492 356 492 359 492 357 z m 495 330 l 496 332 b 508 331 500 332 504 332 b 508 329 508 331 508 330 b 495 330 504 329 500 329 z m 511 329 b 509 329 510 329 509 329 b 509 331 509 330 509 330 b 511 330 510 331 510 330 b 511 329 511 330 511 329 z m 519 330 l 518 330 b 519 331 519 330 519 331 b 520 330 519 331 519 331 z m 527 330 l 527 330 l 528 331 z m 509 346 b 599 343 539 345 569 344 b 613 340 604 344 609 343 b 609 339 612 340 610 339 b 519 342 579 341 549 342 b 499 342 512 342 506 342 b 500 346 499 343 500 345 b 509 346 503 346 506 346 z m 510 416 b 503 398 509 409 507 403 b 492 361 501 385 498 373 b 491 363 492 362 491 363 b 502 399 493 375 497 387 b 503 410 502 402 503 406 b 529 500 512 440 520 470 l 533 500 b 510 416 525 472 518 444 z m 533 606 b 519 556 528 589 524 573 l 514 556 b 530 609 519 574 524 591 b 535 618 531 612 530 617 b 533 606 536 614 534 610 z m 537 529 b 538 532 537 530 538 531 b 540 530 538 531 539 531 b 537 529 539 530 538 529 z m 541 530 b 540 530 541 530 541 530 b 542 531 541 531 541 531 z m 545 542 l 541 542 b 542 546 541 543 542 545 b 546 546 543 546 545 546 z m 549 556 l 545 556 b 550 572 546 561 548 567 b 555 583 551 576 551 580 b 552 569 554 578 553 574 b 549 556 551 565 550 560 z m 553 529 b 553 531 553 530 553 530 l 555 531 b 555 529 555 531 555 530 b 553 529 554 529 553 529 z m 558 529 b 556 529 557 529 556 529 b 557 531 556 530 556 530 b 558 530 557 531 558 530 b 558 529 558 530 558 529 z m 566 530 l 566 530 b 566 531 566 530 566 531 b 567 530 566 531 567 531 z m 574 530 l 574 530 l 575 531 z m 656 539 b 566 542 626 541 596 542 b 556 542 563 542 559 542 l 557 546 b 646 543 587 545 617 544 b 660 540 651 544 656 543 b 656 539 659 540 658 539 z "},"$":{"ha":758,"x_min":0,"x_max":0,"o":"m 685 782 b 585 922 673 843 635 896 b 591 946 587 930 590 938 b 570 1000 592 950 590 1018 l 561 991 b 560 1005 561 996 560 1000 b 535 1005 560 1005 537 1006 b 510 980 522 1003 515 991 b 491 938 503 966 497 952 b 449 926 476 936 462 932 b 225 739 359 885 285 816 b 121 438 164 659 93 543 b 239 299 136 377 181 321 b 154 68 210 222 182 145 b 151 75 153 70 152 73 b 146 167 139 104 138 137 b 192 259 155 201 176 228 b 191 278 197 265 196 273 b 154 286 183 290 167 293 b 140 275 149 283 145 280 b 70 124 99 233 73 184 b 110 32 68 88 85 56 b 133 11 117 24 125 17 b 130 2 132 8 131 5 b 121 -25 126 -7 124 -16 b 110 -66 117 -39 113 -52 b 119 -80 108 -74 109 -75 b 131 -63 126 -77 123 -67 b 130 -80 130 -70 130 -75 b 139 -88 130 -86 133 -89 b 144 -77 141 -84 142 -80 b 150 -65 146 -73 148 -69 l 152 -65 b 150 -92 151 -74 150 -83 b 166 -96 154 -96 160 -97 b 178 -87 171 -95 175 -91 b 181 -86 178 -86 180 -86 b 184 -95 182 -89 179 -93 b 191 -86 187 -92 189 -90 b 217 -33 200 -68 209 -51 b 246 -36 227 -35 236 -36 b 438 54 316 -36 386 10 b 551 222 490 98 534 155 b 553 236 552 227 553 231 b 440 408 566 315 514 385 b 403 402 427 413 414 410 b 381 388 396 397 389 392 b 432 524 398 434 415 479 b 480 513 447 516 461 509 b 669 667 569 532 631 586 b 685 782 687 703 693 743 z m 473 125 b 484 138 476 129 479 132 b 466 111 484 126 478 120 b 473 125 468 116 470 121 z m 522 969 b 536 990 525 977 529 984 b 536 983 536 987 536 985 b 517 940 531 974 525 959 b 510 940 515 940 513 940 b 522 969 515 952 519 962 z m 265 233 b 256 216 263 227 262 220 b 259 229 257 221 257 225 b 281 288 266 249 273 269 b 287 288 283 288 285 288 z m 284 178 l 283 176 l 282 178 z m 252 270 l 246 270 b 255 290 252 275 252 284 b 257 293 256 291 256 292 b 262 292 258 292 260 292 b 252 270 259 284 255 277 z m 251 203 b 256 216 250 208 252 213 b 251 203 257 210 256 206 z m 246 270 b 249 259 248 267 249 263 b 246 270 248 262 247 266 z m 249 257 b 247 256 248 256 247 256 b 245 256 246 256 246 256 b 247 257 246 256 246 257 b 249 257 248 257 248 257 z m 265 368 b 257 483 231 389 249 453 b 386 723 279 572 328 653 b 412 754 390 728 400 739 b 320 515 381 674 351 594 b 265 368 302 466 283 417 z m 320 675 b 314 661 319 672 317 668 b 320 675 313 670 315 674 z m 321 677 b 338 699 323 687 329 695 b 321 677 336 689 330 681 z m 339 700 b 362 729 342 713 350 723 b 339 700 359 716 351 705 z m 372 735 b 362 729 369 732 366 731 b 363 734 362 731 362 733 b 432 804 383 760 406 784 b 428 793 431 800 429 797 b 372 735 409 773 390 754 z m 413 844 b 405 835 409 840 407 837 b 250 658 346 782 295 723 b 245 653 249 656 247 654 b 247 663 245 656 245 659 b 404 842 287 733 340 794 b 413 844 407 844 410 844 z m 158 562 b 159 567 159 563 159 565 l 159 567 b 158 562 159 565 159 564 z m 167 575 b 159 568 165 572 162 569 b 273 758 185 638 223 702 b 339 825 294 782 317 803 b 350 828 342 828 346 829 b 343 821 348 826 345 823 b 181 601 277 757 222 683 b 167 575 177 592 172 583 z m 230 638 b 229 638 229 638 229 638 b 238 648 232 642 235 645 b 244 651 240 649 242 650 b 229 638 243 644 237 638 z m 223 130 l 223 131 l 224 131 z m 229 143 b 228 143 229 143 228 143 b 228 145 228 144 228 145 b 229 145 228 145 229 145 b 229 143 229 144 229 144 z m 235 157 b 233 158 234 157 233 158 b 233 160 232 158 233 159 l 235 159 z m 235 227 b 234 228 235 227 234 227 b 234 229 234 228 234 229 b 236 229 235 229 236 229 b 235 227 236 229 236 228 z m 240 171 b 238 173 239 172 238 172 b 238 176 238 174 238 175 b 240 173 239 175 240 174 b 240 171 241 172 240 172 z m 238 177 b 245 188 240 181 243 184 b 238 177 246 180 245 179 z m 245 189 b 250 202 245 194 247 199 b 250 195 251 200 251 197 b 245 190 250 192 248 191 z m 413 115 b 413 125 409 119 411 122 b 441 159 422 136 431 148 b 413 115 438 142 428 126 z m 384 128 b 441 217 402 157 420 185 b 384 129 432 182 412 151 z m 455 96 l 448 89 l 445 93 l 453 99 z m 417 326 b 446 341 426 331 436 336 b 443 299 451 330 446 311 b 431 258 440 285 436 271 b 393 182 420 232 408 207 b 305 77 371 142 341 106 b 247 41 287 62 268 50 b 347 296 281 126 314 211 b 417 326 371 304 395 314 z m 300 224 b 301 227 300 225 301 226 l 302 226 b 302 223 302 225 302 224 b 300 224 301 224 300 224 z m 306 239 l 306 240 b 307 240 306 240 307 240 b 308 239 307 240 307 239 z m 326 288 b 322 275 327 283 325 279 b 327 288 320 280 322 286 z m 321 275 b 318 263 321 272 320 269 b 321 275 317 271 317 274 z m 326 291 b 328 291 327 291 327 291 b 327 289 328 291 327 290 b 326 291 326 290 326 290 z m 327 390 b 317 366 324 382 320 374 b 309 364 314 365 312 365 b 350 474 322 401 336 437 b 386 568 362 505 374 536 b 389 565 387 567 388 566 b 392 563 390 565 391 564 b 327 390 370 505 349 447 z m 312 253 b 312 251 312 252 312 252 b 311 252 312 252 311 252 b 312 254 311 253 311 253 b 312 253 312 253 312 253 z m 364 380 b 357 377 362 379 359 378 b 400 492 371 415 385 454 b 419 542 406 509 413 526 b 424 539 421 542 423 541 b 364 380 404 486 384 433 z m 394 586 b 405 616 398 596 402 606 b 413 628 407 620 407 626 b 410 611 415 622 412 617 b 401 589 407 604 404 596 b 394 586 399 588 396 587 z m 414 629 b 422 654 413 638 417 647 b 425 654 423 654 424 654 b 414 629 421 646 421 636 z m 425 655 b 424 657 425 656 424 656 b 426 660 424 658 425 659 b 426 658 426 659 426 659 b 425 655 426 657 426 656 z m 430 672 b 430 674 430 672 430 673 b 431 674 430 674 430 674 l 431 673 z m 435 686 l 435 688 l 436 687 z m 448 611 b 447 611 448 611 447 611 b 447 613 447 612 447 612 b 449 612 448 612 448 612 b 448 611 449 612 448 611 z m 411 680 b 323 453 382 604 353 529 b 288 362 312 423 300 392 b 282 362 286 362 284 362 b 338 512 301 412 320 462 b 397 666 358 563 377 615 b 451 798 406 688 428 741 b 462 809 455 801 458 805 b 411 680 440 754 419 702 z m 466 613 b 546 825 493 684 519 755 b 566 873 552 841 559 857 b 587 849 575 871 583 864 b 582 750 596 816 594 782 b 466 613 558 689 520 642 z m 582 694 b 583 709 583 699 583 704 b 582 694 585 704 588 698 z m 581 692 b 555 655 579 677 568 668 b 581 692 568 681 568 682 z m 580 650 l 594 666 b 580 650 594 656 592 650 z m 614 618 b 619 626 615 620 617 623 b 614 618 624 619 618 618 z "},"%":{"ha":860,"x_min":0,"x_max":0,"o":"m 768 913 l 755 905 l 758 922 b 731 928 748 925 739 923 b 716 926 728 931 720 928 b 698 910 709 921 703 916 b 645 842 680 887 661 865 b 565 722 618 802 591 762 b 497 620 542 689 520 655 b 414 492 469 578 441 535 b 328 359 385 447 357 403 b 269 266 308 328 289 297 b 208 171 249 234 228 203 b 112 19 176 121 144 70 b 95 -10 106 9 101 0 b 72 -55 87 -25 79 -40 b 79 -74 68 -63 68 -65 b 97 -57 88 -72 87 -59 b 92 -77 95 -65 93 -71 b 101 -88 90 -84 93 -88 b 109 -76 103 -84 106 -80 b 119 -64 112 -72 116 -68 l 121 -65 b 112 -95 118 -75 115 -86 b 129 -104 115 -101 122 -105 b 146 -96 136 -104 142 -101 b 149 -97 146 -96 148 -96 b 151 -108 151 -100 145 -104 b 162 -100 155 -106 159 -103 b 221 -21 182 -74 203 -48 b 332 144 259 33 295 89 b 446 316 370 202 408 259 b 593 543 495 392 544 468 b 742 776 643 621 693 698 b 785 856 758 802 772 828 b 768 913 797 879 790 897 z m 254 145 l 253 147 l 255 146 z m 264 159 b 262 160 263 159 262 159 b 263 162 263 160 263 161 b 265 161 264 161 265 161 b 264 159 264 160 264 160 z m 357 357 b 348 343 357 351 354 345 b 349 352 347 346 348 349 b 357 357 351 355 354 356 z m 332 324 b 347 342 337 330 339 339 b 323 301 343 326 332 314 l 315 303 b 332 324 325 307 326 318 z m 317 289 b 315 303 316 293 316 298 b 317 289 318 298 318 293 z m 314 288 b 316 287 314 287 315 287 b 313 286 315 286 314 286 b 311 286 312 286 312 286 b 314 288 312 287 313 288 z m 292 258 b 293 258 292 258 293 258 b 293 256 293 257 293 257 b 291 256 292 256 291 256 b 292 258 292 257 292 258 z m 274 174 b 272 176 273 174 272 175 b 273 177 272 176 273 177 l 275 176 z m 284 189 b 282 192 283 190 282 191 b 282 195 282 193 282 194 b 285 191 283 194 284 192 b 284 189 285 190 284 190 z m 283 196 b 294 208 287 200 290 204 b 283 196 293 198 291 197 z m 295 209 b 304 223 296 215 299 220 b 302 214 304 220 304 217 b 295 209 300 212 298 210 z m 304 224 b 314 237 305 230 308 235 b 304 224 313 230 312 225 z m 329 255 b 314 238 325 249 322 241 b 320 252 316 243 318 248 b 489 514 376 340 432 427 b 590 666 522 565 556 616 b 602 679 593 671 594 678 b 593 660 603 671 597 666 b 440 422 543 581 492 501 b 329 255 404 366 366 311 z m 623 707 b 622 710 622 708 622 709 b 624 712 622 711 623 712 b 625 711 625 712 625 711 b 623 707 624 709 624 708 z m 627 629 b 618 617 624 625 621 621 b 627 629 619 626 620 628 z m 622 706 b 603 680 616 697 613 686 b 619 707 604 691 612 699 b 622 707 620 707 621 707 z m 335 184 l 335 186 l 337 186 z m 369 234 b 368 236 369 235 368 235 b 369 239 368 237 369 238 l 371 238 b 369 234 370 237 370 235 z m 378 251 l 378 253 b 380 253 379 253 380 253 b 380 251 380 252 380 252 z m 388 264 b 388 266 388 265 388 265 b 389 267 388 266 388 267 b 389 266 389 267 389 266 b 388 264 389 265 389 265 z m 405 289 l 398 276 b 405 289 399 286 399 290 z m 406 290 b 415 304 404 297 408 301 b 406 290 414 298 411 293 z m 468 380 b 449 357 463 372 459 362 b 415 305 441 338 429 320 b 415 309 415 306 414 308 b 448 358 424 326 435 343 b 456 375 450 364 453 369 b 552 523 488 424 520 474 b 603 601 569 549 586 575 b 616 615 607 606 609 613 b 606 595 613 608 610 601 b 468 380 560 523 514 452 z m 628 630 b 626 633 627 631 627 632 b 629 635 626 634 628 635 b 630 634 629 635 630 634 b 628 630 629 633 628 631 z m 633 726 b 632 728 633 726 632 727 b 634 728 632 728 633 728 l 634 726 z m 639 650 b 637 650 638 650 637 650 b 638 652 637 651 638 651 b 639 651 638 652 639 652 b 639 650 639 651 639 650 z m 642 741 l 643 743 l 644 741 z m 724 902 b 612 740 684 850 648 795 b 453 497 559 659 506 578 b 367 367 424 454 395 410 b 357 358 364 364 361 361 b 363 372 356 364 360 368 b 485 562 404 435 444 499 b 593 726 521 617 556 672 b 704 889 629 781 667 835 b 726 909 709 898 716 905 b 724 902 725 907 725 904 z m 319 484 b 385 555 346 502 369 527 b 436 743 419 612 437 677 b 395 862 435 786 421 827 b 205 912 351 918 272 953 b 113 624 117 858 86 717 b 319 484 136 545 226 426 z m 307 584 l 308 585 l 309 585 z m 319 597 l 316 598 l 319 602 z m 332 573 b 353 616 333 587 336 593 b 332 573 354 598 343 586 z m 382 589 l 384 600 b 382 589 386 596 389 591 z m 382 587 b 378 579 383 583 383 580 b 382 587 377 582 378 586 z m 377 578 b 373 569 378 574 378 570 b 377 578 372 573 373 576 z m 372 568 b 372 563 372 566 372 564 b 370 561 372 562 371 562 b 369 565 370 563 368 564 b 372 568 370 566 371 567 z m 354 617 b 356 622 354 619 355 620 b 354 617 358 618 357 617 z m 345 660 l 345 671 b 345 660 349 665 348 662 z m 344 659 b 324 604 342 639 335 620 b 320 603 323 603 321 603 b 343 658 325 622 333 641 b 344 659 343 659 344 659 z m 265 821 b 245 791 261 809 254 799 b 265 821 248 803 252 815 z m 231 659 b 266 783 234 702 246 745 b 316 841 278 803 293 831 b 323 841 318 842 321 842 b 338 731 343 832 339 744 b 307 624 334 694 324 657 b 257 557 295 600 279 572 b 233 594 236 543 235 581 b 231 659 230 616 229 638 z m 230 860 b 196 805 228 847 215 826 b 230 860 198 828 211 848 z m 191 865 b 194 865 191 866 192 865 b 193 859 194 863 193 861 b 155 792 180 836 168 814 b 152 790 155 791 153 791 b 151 792 151 790 151 791 b 191 865 156 820 170 846 z m 151 789 b 146 777 152 784 153 779 b 151 789 147 782 145 787 z m 146 775 l 146 769 l 144 770 z m 543 314 b 438 187 492 293 456 237 b 499 -76 406 94 406 -20 b 632 -92 536 -98 592 -120 b 679 -48 650 -80 666 -65 b 705 -6 689 -35 698 -21 b 746 153 731 43 745 98 b 702 286 747 200 737 251 b 543 314 663 325 594 336 z m 666 107 b 664 120 666 111 665 115 b 666 107 670 115 668 111 z m 568 223 b 576 232 568 228 570 232 b 574 226 576 230 576 228 b 569 222 573 224 571 223 b 568 218 569 221 569 219 b 554 192 564 210 559 202 b 568 223 554 209 555 210 z m 548 181 l 547 179 l 546 181 z m 447 105 l 445 104 b 445 107 445 105 445 106 b 447 107 446 107 446 107 z m 451 120 b 500 248 446 157 469 218 b 451 120 477 208 461 165 z m 495 171 b 493 175 494 172 492 174 b 496 179 493 176 494 178 b 496 173 496 177 496 175 b 495 171 496 173 495 172 z m 537 248 b 503 188 526 228 515 208 b 496 180 502 185 501 181 b 538 258 501 210 516 237 b 537 248 538 254 538 251 z m 627 50 b 567 -27 618 29 598 -30 b 564 -26 566 -27 565 -26 b 540 36 544 -20 541 20 b 598 231 534 106 554 176 b 621 257 605 241 612 250 b 643 253 629 264 638 264 b 652 151 656 223 655 183 b 627 50 648 116 639 83 z m 638 37 l 640 39 l 639 37 z m 641 41 b 645 50 641 44 640 48 b 641 41 646 45 646 42 z m 646 50 b 662 105 649 69 654 88 b 666 106 662 105 664 105 b 650 54 664 88 659 70 b 646 50 649 52 647 52 z m 657 29 b 664 35 660 31 662 33 b 657 29 665 29 662 28 z m 671 41 b 665 36 670 39 667 38 b 680 77 664 52 675 63 b 671 41 680 64 677 52 z m 699 18 b 711 47 700 29 704 39 b 699 18 711 37 706 26 z "},"&":{"ha":649,"x_min":0,"x_max":0,"o":"m 569 844 b 566 850 567 845 567 848 b 551 867 561 856 555 862 l 536 862 b 534 874 535 867 534 872 b 512 877 525 884 516 877 b 498 886 505 882 502 886 b 472 872 487 887 477 882 b 456 830 464 859 459 845 b 437 748 449 803 443 776 b 434 743 437 746 435 745 b 425 744 432 742 428 743 b 353 767 402 756 378 763 b 192 687 288 778 225 743 b 189 537 162 637 160 587 b 221 495 198 522 209 508 b 230 485 224 492 227 489 b 221 473 234 478 226 475 b 185 454 208 469 196 462 b 115 110 83 377 23 219 b 162 61 129 92 145 76 b 217 20 168 56 217 24 b 216 1 217 13 216 7 b 214 -28 215 -9 215 -18 b 227 -69 214 -43 218 -57 b 271 -103 240 -82 255 -94 b 276 -103 273 -104 274 -103 l 290 -90 b 288 -107 289 -96 289 -101 b 297 -102 291 -106 294 -104 b 319 -55 310 -90 318 -73 b 324 -24 320 -45 322 -34 b 331 5 326 -14 325 -3 b 354 14 339 8 346 11 b 445 103 393 33 426 64 b 433 190 460 132 455 167 b 334 237 406 219 373 233 b 264 201 301 241 280 228 b 240 138 253 182 244 160 b 237 117 239 131 238 124 b 224 111 235 109 231 100 b 208 230 203 147 200 190 b 277 359 216 280 241 325 b 385 395 307 386 342 402 b 472 403 414 390 444 393 b 498 432 486 406 496 418 b 488 441 495 435 490 437 b 468 459 486 450 478 457 b 442 468 459 461 452 467 b 333 488 409 473 360 467 b 300 567 310 508 297 537 b 416 670 305 627 354 678 b 471 626 444 666 453 645 b 515 606 480 618 502 601 b 524 612 519 607 522 609 b 548 654 535 624 544 638 b 578 799 566 701 573 750 b 569 844 580 815 581 831 z m 419 97 b 422 99 420 98 421 99 b 425 100 423 99 424 100 b 424 96 425 98 425 96 b 419 97 422 96 421 96 l 418 93 b 419 97 418 94 419 96 z m 396 123 b 397 120 397 122 397 121 b 391 116 396 118 395 114 b 393 122 392 118 392 120 b 396 123 394 122 395 122 z m 391 116 l 389 111 b 391 116 386 114 387 115 z m 373 133 b 383 143 375 137 378 141 b 380 134 382 140 381 137 b 371 124 377 131 374 127 b 373 133 371 127 372 130 z m 345 161 b 347 162 346 162 346 162 l 347 161 l 346 160 b 345 161 345 160 345 161 z m 314 189 b 303 165 316 179 309 175 b 314 189 304 178 306 185 z m 289 200 b 291 200 290 200 291 200 b 292 198 292 199 292 199 l 268 149 b 289 200 271 171 273 189 z m 206 643 b 243 702 206 668 220 691 b 206 643 231 683 219 663 z m 145 363 b 123 327 137 351 130 339 b 202 433 128 365 161 408 b 171 397 190 418 180 408 b 145 363 162 386 154 375 z m 171 344 b 231 412 179 375 202 400 z m 222 331 b 224 334 223 332 223 333 l 223 330 b 222 331 223 331 222 331 z m 239 345 b 228 335 236 341 232 338 b 225 335 228 335 226 335 b 265 374 241 362 246 367 b 239 345 255 363 247 354 z m 245 649 b 278 693 248 668 260 685 b 245 649 272 675 260 660 z m 294 626 b 311 651 295 637 301 646 b 294 626 308 640 308 640 z m 497 858 b 496 858 497 858 496 858 b 496 859 496 858 496 859 b 497 860 496 860 497 860 b 497 858 497 859 497 858 z "},"'":{"ha":307,"x_min":0,"x_max":0,"o":"m 185 920 b 77 928 155 941 108 956 b 80 892 63 916 71 905 b 124 876 92 875 105 873 b 155 865 135 878 156 882 b 109 781 153 832 136 801 b 95 769 104 778 99 774 b 100 757 91 766 95 758 b 109 756 103 756 106 760 b 106 750 108 754 107 752 b 107 742 106 747 105 743 b 115 741 108 740 112 740 b 122 744 117 741 119 743 b 130 744 124 744 126 749 l 116 728 b 135 711 119 717 128 716 b 164 711 144 705 155 704 b 224 771 189 725 210 746 b 185 920 253 823 231 886 z m 139 785 l 152 800 b 139 785 147 787 147 787 z m 151 760 l 147 763 l 159 774 b 151 760 162 764 153 764 z "},"(":{"ha":686,"x_min":0,"x_max":0,"o":"m 587 1040 b 514 1054 565 1053 539 1057 b 217 821 383 1036 281 926 b 75 375 136 685 87 532 b 88 104 67 285 64 192 b 141 -18 99 61 117 19 b 270 -110 169 -61 215 -108 b 296 -61 303 -111 309 -85 b 257 -9 286 -41 270 -26 b 202 129 229 33 210 80 b 214 425 183 227 197 329 b 362 810 238 562 289 692 b 440 909 383 847 410 880 b 597 989 485 949 535 981 b 616 1001 609 990 615 995 b 587 1040 619 1014 601 1032 z m 409 959 l 400 953 b 409 959 399 959 404 960 z m 361 958 b 362 955 362 957 362 956 b 362 951 363 954 363 953 l 362 951 b 361 955 362 953 361 954 b 361 958 361 956 361 957 z m 362 951 b 348 944 357 949 352 946 b 362 951 351 954 353 954 z m 96 180 b 93 304 91 221 90 263 b 116 496 96 368 104 433 b 177 695 129 565 149 631 b 285 882 206 761 242 824 b 341 942 301 904 320 924 b 346 943 342 943 344 943 b 229 776 300 892 261 836 b 132 526 185 698 152 613 b 100 260 112 439 101 349 b 102 177 100 232 102 205 b 102 162 103 172 102 167 b 96 180 96 166 97 174 z m 129 299 l 130 282 b 129 299 122 287 127 293 z m 102 160 l 108 153 b 102 160 104 154 99 155 z m 108 153 b 105 139 107 148 106 144 b 108 153 101 144 105 148 z m 126 234 l 126 235 l 127 235 z m 127 251 b 126 252 127 251 126 252 b 127 254 126 253 126 253 b 128 253 127 254 128 253 b 127 251 128 252 127 251 z m 126 272 b 130 281 127 275 128 278 l 128 272 z m 129 301 b 127 313 124 304 127 309 b 133 344 128 324 126 335 b 129 301 134 330 133 315 z m 137 369 b 133 346 135 361 134 353 b 130 353 132 348 130 351 b 134 396 131 367 132 382 b 183 616 145 471 158 545 b 320 879 215 710 262 799 b 388 949 340 905 362 929 b 399 953 391 951 394 956 b 396 947 398 951 397 949 b 258 764 339 895 296 831 b 156 491 211 679 176 586 b 137 369 147 450 143 409 z m 177 288 l 178 287 b 176 282 177 286 177 284 l 175 282 b 177 288 176 284 176 286 z m 176 252 l 178 258 b 175 260 177 259 175 259 b 174 263 174 260 174 262 b 176 261 175 263 176 262 b 178 258 177 260 178 259 z m 177 305 b 177 307 177 305 177 306 b 179 309 177 307 178 308 l 179 307 z m 178 327 b 181 366 179 340 180 353 b 183 364 182 366 182 365 b 178 327 185 352 183 338 z m 181 366 l 181 367 b 186 389 183 374 185 381 l 189 388 z m 190 410 l 188 410 l 193 425 l 194 424 z m 422 912 b 322 779 382 873 349 829 b 263 663 301 741 281 703 b 224 554 247 628 234 591 b 204 474 215 527 209 501 b 195 447 202 464 199 455 b 204 496 198 463 200 480 b 246 638 215 544 229 592 b 315 779 265 687 288 734 b 373 868 332 810 352 840 b 421 919 387 887 403 904 b 430 923 423 922 426 925 b 422 912 428 919 425 916 z m 431 924 b 441 930 431 928 434 930 z "},")":{"ha":640,"x_min":0,"x_max":0,"o":"m 569 670 b 548 819 568 720 561 770 b 489 946 535 864 517 908 b 476 964 484 952 480 958 b 414 1027 459 989 438 1010 b 328 1046 389 1045 358 1052 b 296 1029 312 1043 312 1043 b 310 1008 297 1020 303 1012 b 412 866 361 973 390 922 b 435 744 425 827 433 786 b 432 545 440 678 440 611 b 390 348 424 478 410 412 b 322 174 371 289 349 230 b 248 57 302 132 277 92 b 126 -31 215 18 173 -12 b 108 -38 121 -34 115 -36 b 69 -84 85 -45 74 -62 b 84 -100 75 -90 79 -95 b 92 -105 86 -102 89 -104 b 153 -116 112 -109 132 -117 b 183 -110 163 -116 174 -114 b 255 -77 207 -99 232 -89 b 327 -26 282 -64 306 -46 b 431 111 369 14 404 60 b 488 230 452 150 471 189 b 543 393 511 283 529 338 b 562 500 552 428 556 464 b 569 670 570 556 573 613 z m 510 854 b 500 867 507 858 504 863 b 510 854 510 866 511 864 z m 502 871 b 504 872 503 872 504 872 b 504 870 504 872 504 871 b 500 867 503 869 501 868 l 500 867 b 502 871 501 869 501 870 z m 477 877 b 504 785 490 848 499 817 b 504 491 519 688 519 589 b 445 276 493 417 470 347 b 429 237 441 263 435 250 b 423 232 428 235 425 233 b 430 253 426 239 428 246 b 470 369 444 292 459 330 b 506 656 496 462 508 559 b 469 879 504 732 495 807 b 468 886 468 881 468 883 b 477 877 474 886 475 881 z m 423 230 b 413 200 424 219 417 210 b 406 191 411 197 411 191 b 423 230 409 205 415 218 z m 468 886 b 463 896 466 890 465 893 b 468 887 468 894 471 891 z m 427 875 l 421 885 b 427 875 428 882 429 879 z m 419 376 b 439 455 428 402 434 429 b 455 569 447 493 453 531 b 456 698 457 612 458 655 b 429 861 456 754 447 808 b 427 874 428 865 428 870 b 434 866 432 873 433 870 b 453 800 442 845 449 822 b 463 695 458 765 461 730 b 458 539 465 643 464 591 b 430 396 452 491 442 443 b 415 348 426 380 420 364 b 419 376 415 358 417 367 z m 405 328 l 407 328 l 404 313 l 402 314 z m 405 189 b 396 174 404 183 405 176 z m 396 294 l 390 272 l 390 272 b 393 294 391 280 392 287 z m 396 173 b 395 164 396 170 396 167 l 393 164 z m 388 271 b 390 272 388 271 389 272 b 374 236 385 260 380 248 b 388 271 375 249 380 261 z m 386 146 b 384 146 386 146 385 146 b 385 148 384 146 384 147 b 386 148 385 148 386 148 b 386 147 386 148 387 147 z m 378 132 l 377 130 l 377 132 z m 365 221 b 366 218 366 220 366 219 b 365 216 366 217 365 217 l 364 219 z m 357 201 l 357 201 l 356 196 l 355 196 b 357 201 356 198 356 200 z m 346 176 b 342 176 345 175 344 176 l 341 170 l 342 176 l 345 177 l 348 179 b 346 176 348 178 347 176 z m 352 38 l 356 51 b 352 38 357 46 358 41 z m 356 51 l 364 55 b 356 51 365 49 360 51 z m 546 558 b 508 355 541 489 528 421 b 439 176 489 294 466 234 b 379 70 422 139 402 104 b 365 56 375 64 373 57 b 372 70 367 61 370 66 b 412 141 385 94 400 117 b 507 389 453 220 485 303 b 538 652 530 475 540 563 b 511 852 536 720 528 787 b 515 849 513 851 515 850 b 537 771 525 824 532 797 b 546 558 548 700 551 629 z "},"*":{"ha":356,"x_min":0,"x_max":0,"o":"m 286 821 b 251 845 283 838 266 846 b 239 844 247 845 243 844 b 226 847 235 844 230 841 b 253 895 232 865 250 876 b 225 915 249 909 237 912 b 206 909 218 917 211 915 b 186 882 199 900 193 891 b 177 873 183 879 180 876 b 160 901 171 883 165 892 b 123 915 152 914 137 920 b 101 904 116 914 104 911 b 103 890 100 899 101 894 b 120 852 108 877 114 865 b 124 839 122 848 123 844 b 72 829 123 842 77 832 b 71 813 68 827 70 817 b 95 798 72 800 83 798 b 128 797 98 798 128 798 b 121 782 126 791 124 786 b 99 745 114 769 106 757 b 83 712 93 735 84 724 b 96 695 82 704 90 699 b 121 697 106 687 113 687 b 145 730 129 708 137 719 b 166 758 151 740 158 750 b 174 753 170 761 173 755 b 181 741 176 749 179 745 b 227 702 191 724 201 696 b 234 703 229 702 231 703 b 239 701 235 702 237 701 b 260 714 246 699 254 709 b 251 750 260 726 257 739 b 230 788 244 763 237 775 b 229 798 228 791 225 794 b 286 821 248 801 293 788 z m 196 855 l 196 857 l 197 855 z m 206 869 l 205 871 l 207 870 z "},"+":{"ha":626,"x_min":0,"x_max":0,"o":"m 544 326 b 550 355 555 333 560 342 l 530 358 l 542 368 b 520 378 539 382 526 372 l 526 387 b 510 393 522 392 516 395 b 395 390 472 387 433 391 b 382 392 391 390 386 391 b 380 400 381 394 380 397 b 386 500 382 433 384 467 b 389 560 387 520 388 540 b 386 573 389 565 388 573 b 372 591 376 576 376 584 b 348 609 367 600 359 607 b 342 604 346 607 344 606 b 336 602 340 603 338 602 b 305 612 333 624 325 625 b 301 618 304 614 302 616 b 298 624 300 620 299 622 b 280 619 285 623 283 622 b 271 603 275 615 272 609 b 270 593 271 600 271 596 b 249 400 263 529 253 465 b 244 386 248 395 246 390 b 214 386 233 386 224 386 b 97 381 175 384 136 383 b 69 372 87 382 77 379 b 77 346 72 364 75 355 b 102 316 80 326 86 319 b 122 314 109 314 115 314 b 225 310 156 312 190 311 b 237 309 228 309 232 309 b 235 253 237 289 238 271 b 230 171 231 226 231 199 b 231 138 229 160 230 149 b 244 119 231 129 236 122 l 254 130 b 257 109 255 122 256 115 b 271 106 259 103 266 102 b 275 112 272 108 273 110 b 279 112 276 113 278 112 b 281 92 280 105 280 98 b 308 83 288 84 298 81 b 312 84 310 83 311 84 b 325 101 318 88 316 98 l 325 77 b 336 83 329 78 333 80 b 351 110 344 90 349 100 b 365 210 358 143 363 176 b 372 296 369 238 370 267 b 375 307 373 300 374 303 b 383 309 378 308 380 309 b 522 308 429 309 475 309 b 548 311 530 307 539 308 b 557 319 551 313 554 316 z "},",":{"ha":350,"x_min":0,"x_max":0,"o":"m 273 65 b 174 143 255 110 219 132 b 151 140 166 145 158 144 b 146 125 146 136 143 128 b 164 101 156 120 153 106 b 168 96 166 100 167 98 b 180 78 168 88 173 81 b 189 51 193 71 192 62 b 185 37 188 46 186 42 b 130 -49 172 5 154 -24 b 82 -80 117 -63 101 -74 b 74 -84 79 -81 76 -82 b 70 -92 71 -86 70 -89 b 76 -101 69 -96 72 -100 b 82 -109 80 -102 83 -104 b 82 -115 81 -111 81 -113 b 87 -119 83 -117 85 -118 b 91 -119 88 -119 90 -119 b 98 -121 94 -120 96 -120 l 94 -132 b 100 -140 96 -135 98 -138 b 117 -147 106 -143 113 -143 b 139 -151 124 -155 131 -153 b 188 -127 157 -147 174 -138 b 279 11 237 -96 270 -46 b 273 65 282 29 280 48 z m 180 -19 b 182 -21 181 -20 182 -20 b 182 -25 182 -23 182 -24 b 180 -23 181 -25 180 -24 b 180 -19 179 -22 180 -20 z m 144 -66 b 176 -24 146 -55 152 -47 l 182 -26 b 171 -38 179 -30 175 -34 b 144 -66 164 -49 155 -58 z m 161 -79 b 181 -57 165 -70 172 -62 b 161 -79 178 -71 178 -71 z m 203 -98 b 195 -104 200 -100 197 -102 b 212 -87 200 -93 200 -93 b 203 -98 209 -91 206 -95 z "},"-":{"ha":640,"x_min":0,"x_max":0,"o":"m 553 370 b 567 377 558 372 562 374 b 571 389 570 380 572 385 b 564 399 571 393 568 397 b 557 401 562 400 559 400 b 555 404 556 401 556 403 l 563 411 b 554 418 560 413 557 416 b 547 424 552 420 547 422 b 537 434 548 432 542 433 b 515 436 530 435 523 436 b 395 437 475 436 435 437 b 266 436 352 436 309 436 b 169 436 234 435 202 436 b 120 436 153 436 136 436 b 77 432 106 436 90 437 b 70 419 66 429 70 427 b 75 395 70 411 72 402 b 80 374 69 386 76 381 b 99 362 84 367 91 362 b 428 354 209 357 318 357 b 531 354 462 354 496 354 b 564 359 542 355 553 356 b 568 362 566 359 567 360 b 568 367 569 363 569 365 z "},".":{"ha":315,"x_min":0,"x_max":0,"o":"m 215 151 b 151 174 196 166 174 174 b 94 152 129 175 109 167 b 155 -16 38 94 88 6 b 240 46 196 -30 228 11 b 215 151 253 83 246 125 z m 94 110 b 105 139 92 124 97 131 b 94 110 104 127 98 121 z m 125 121 b 118 114 124 119 122 118 b 121 125 118 118 120 121 b 129 133 123 128 126 131 b 125 121 128 129 127 125 z m 153 107 l 153 109 l 155 108 b 153 107 154 108 153 107 z m 167 59 l 170 64 b 170 59 170 62 170 60 z m 170 65 b 170 67 170 65 170 66 b 173 70 171 68 172 70 b 170 65 176 70 174 66 z m 188 46 b 184 44 187 45 185 45 b 184 49 184 46 184 48 b 188 53 185 51 186 51 b 188 46 188 51 188 48 z m 216 28 b 215 31 215 29 215 30 b 216 32 215 31 216 31 z "},"/":{"ha":619,"x_min":0,"x_max":0,"o":"m 540 946 b 535 957 539 950 537 954 b 521 968 530 961 526 965 l 506 960 b 507 977 507 966 507 972 b 491 979 502 979 497 982 b 474 970 486 975 480 973 b 474 966 474 969 474 968 b 474 970 474 968 474 969 b 480 984 480 972 480 978 b 466 987 476 987 471 988 b 455 978 461 985 457 983 b 446 961 451 973 448 967 b 414 881 435 935 424 908 b 354 722 394 828 374 775 b 297 564 335 670 316 617 b 262 465 285 531 273 498 b 212 322 245 417 229 370 b 140 121 189 255 164 188 b 87 -33 122 70 105 19 b 73 -78 82 -48 77 -63 b 69 -102 71 -86 69 -94 b 82 -115 69 -109 74 -114 b 99 -81 92 -106 87 -90 b 97 -102 98 -89 98 -95 b 97 -119 97 -108 97 -113 b 103 -125 98 -122 100 -124 b 110 -121 106 -125 109 -123 b 124 -85 115 -109 119 -97 b 129 -79 125 -83 127 -81 b 122 -132 127 -97 124 -115 b 163 -122 142 -141 148 -140 b 166 -138 164 -127 165 -131 b 177 -127 170 -135 174 -131 b 192 -97 183 -118 188 -108 b 235 17 206 -59 221 -21 b 284 155 251 63 268 109 b 395 464 321 258 358 361 b 449 616 413 515 431 565 b 484 718 461 650 472 684 b 546 904 506 780 529 841 b 550 928 548 912 550 920 b 540 946 548 935 545 941 z m 102 -66 b 102 -64 102 -65 102 -64 b 104 -61 102 -63 103 -62 l 105 -64 z m 114 -34 b 110 -34 113 -34 112 -34 b 110 -44 110 -37 110 -41 l 109 -44 l 110 -34 b 113 -31 111 -33 112 -32 l 115 -30 b 114 -34 115 -31 115 -33 z m 120 -15 l 120 -13 l 121 -13 z m 174 141 b 172 118 173 134 173 126 b 174 141 170 126 167 134 z m 163 113 b 172 118 165 117 168 117 b 163 103 166 115 166 108 b 156 98 162 100 158 100 b 153 80 155 92 159 85 l 156 98 b 163 113 158 103 161 108 z m 152 78 b 151 67 152 75 151 71 b 152 78 147 73 149 76 z m 144 53 l 143 51 l 143 53 z m 138 34 l 137 27 b 136 34 136 29 136 32 z m 136 25 b 128 13 133 21 134 14 b 136 25 130 17 130 23 z m 126 3 b 127 11 126 6 127 8 l 128 3 z m 130 -76 b 146 -32 131 -61 136 -45 b 147 -32 146 -32 146 -32 b 130 -76 141 -47 136 -62 z m 147 -31 b 157 3 144 -18 151 -8 b 148 -31 159 -10 151 -20 z m 196 -33 b 192 -34 195 -33 194 -34 l 192 -35 b 192 -34 192 -35 192 -35 b 195 -31 193 -33 194 -32 b 197 -31 196 -31 196 -31 b 196 -33 197 -31 197 -32 z m 224 49 l 225 50 l 225 49 z m 230 65 b 230 67 230 66 230 66 b 231 67 230 67 231 67 l 232 66 z m 205 127 b 167 21 192 92 180 56 b 157 4 165 15 166 7 b 164 29 159 12 161 21 b 290 388 206 148 247 268 b 365 592 314 456 339 524 b 377 607 367 598 368 606 b 352 540 369 585 360 563 b 205 127 306 402 257 264 z m 377 609 b 375 618 376 612 376 615 l 377 618 b 377 609 377 615 377 612 z m 236 84 b 238 90 236 86 237 88 b 238 84 238 88 238 86 z m 239 92 b 244 103 240 96 242 99 b 239 92 244 98 245 93 z m 269 164 b 249 110 263 146 256 128 b 245 106 248 108 247 107 b 250 127 246 113 248 120 b 367 458 289 238 328 348 b 377 475 369 464 369 473 b 361 421 374 457 368 438 b 269 164 331 335 300 249 z m 401 534 b 382 484 395 517 388 500 b 377 477 381 481 379 479 b 377 483 376 479 376 481 b 394 529 382 498 388 514 b 401 534 395 531 399 532 b 401 543 401 537 401 540 l 402 543 z m 382 635 l 384 635 l 383 633 z m 342 597 b 242 317 308 504 275 411 b 184 157 223 264 204 211 b 175 143 182 152 182 145 b 188 188 179 158 183 173 b 234 319 203 232 219 275 b 316 551 261 396 288 474 b 400 780 344 628 372 704 b 409 796 402 785 403 792 b 405 778 408 790 406 784 b 342 597 384 718 363 657 z m 407 561 b 407 563 407 562 407 562 b 408 564 407 563 408 563 l 408 562 z m 410 797 l 413 813 b 410 797 415 808 414 801 z m 413 815 b 421 835 416 821 418 828 b 427 840 422 837 425 838 b 419 819 425 833 422 826 b 413 815 417 817 415 816 z m 428 841 l 429 862 b 428 841 430 855 430 848 z "},":":{"ha":358,"x_min":0,"x_max":0,"o":"m 226 579 b 136 503 184 596 130 545 b 202 432 140 471 166 431 b 288 508 238 433 289 468 b 226 579 288 541 254 568 z m 168 545 b 160 541 166 543 163 542 b 166 548 164 545 165 546 b 168 549 167 548 168 548 b 168 545 168 547 169 545 z m 224 498 l 220 496 b 220 499 220 497 220 499 b 224 502 221 500 223 501 z m 228 481 b 228 483 228 482 228 482 b 230 485 229 483 229 484 b 231 483 231 484 231 484 b 228 481 230 483 229 482 z m 161 357 b 141 359 155 359 148 360 b 82 325 121 357 96 340 b 91 237 58 299 73 263 b 220 269 127 185 201 219 b 221 298 224 278 224 288 b 161 357 212 326 189 347 z m 104 322 b 96 319 101 321 98 319 b 102 325 99 322 100 324 b 104 326 102 325 103 326 b 104 322 104 325 104 323 z m 159 275 l 155 273 b 155 277 155 274 155 276 b 160 279 157 278 158 278 b 159 275 159 278 159 277 z m 164 258 b 163 260 163 259 163 260 b 166 262 164 261 165 261 b 166 261 166 262 166 261 b 164 258 165 260 164 259 z "},";":{"ha":371,"x_min":0,"x_max":0,"o":"m 140 371 b 99 364 126 373 111 371 b 98 330 87 356 95 341 b 120 305 101 316 106 308 b 151 299 131 303 141 302 b 158 276 165 295 162 287 b 141 250 153 266 148 257 b 90 217 127 234 110 223 b 72 210 84 215 78 213 b 74 197 68 208 69 199 b 82 193 76 195 80 197 b 78 188 80 192 79 190 b 75 180 76 186 74 182 b 83 176 76 178 80 177 b 90 177 85 176 88 178 b 98 175 92 177 96 181 l 80 165 b 93 142 79 153 88 149 b 109 132 96 137 102 133 b 124 134 114 132 119 132 b 222 208 164 143 206 168 b 209 319 236 245 231 286 b 140 371 194 342 168 366 z m 123 183 l 120 187 l 135 195 b 123 183 135 184 127 187 z m 119 211 l 137 221 b 119 211 128 210 128 210 z m 243 587 b 208 587 232 591 219 591 b 152 505 173 572 138 547 b 213 441 161 477 179 441 b 302 510 249 440 299 472 b 243 587 304 544 273 577 z m 184 555 b 176 551 181 553 179 552 b 182 557 179 555 181 556 b 184 558 183 558 183 558 b 184 555 184 557 185 555 z m 238 506 l 234 504 b 234 507 234 505 234 507 b 238 509 235 508 237 509 b 238 506 238 508 238 507 z m 242 489 b 241 490 241 489 241 490 b 244 492 242 491 243 492 b 244 491 244 492 244 491 b 242 489 243 490 242 489 z "},"<":{"ha":565,"x_min":0,"x_max":0,"o":"m 390 444 b 469 511 418 465 443 488 b 492 535 478 518 485 526 b 495 545 495 538 496 542 b 489 554 495 549 492 552 b 463 533 478 549 472 540 b 454 532 460 531 458 529 b 470 550 459 538 465 544 b 480 563 473 554 477 559 b 475 576 483 568 481 573 b 454 561 467 571 460 567 b 434 548 448 556 441 552 b 427 539 432 545 430 542 b 165 332 340 470 253 401 b 149 328 161 328 156 322 b 153 335 148 332 151 334 b 236 400 181 357 209 379 b 417 540 297 447 357 493 b 433 549 422 543 428 546 l 467 588 b 430 603 460 609 444 604 l 435 617 b 420 613 430 616 425 615 b 387 594 409 607 398 601 b 247 488 338 562 293 524 b 138 402 211 460 174 431 b 82 353 119 386 101 370 b 81 299 63 336 68 319 b 188 232 104 264 153 249 b 461 103 278 187 369 144 b 476 98 465 100 471 99 b 487 104 480 98 484 100 b 488 116 489 107 490 112 b 468 159 483 131 476 145 b 451 175 464 166 458 171 b 356 225 419 192 388 209 b 218 293 310 248 264 271 b 207 300 215 295 212 297 b 239 327 218 310 229 318 b 390 444 289 366 340 405 z m 345 542 b 347 542 345 542 346 542 b 348 540 347 542 348 540 b 343 536 346 539 344 537 b 341 537 343 536 342 537 z m 334 529 l 321 519 b 334 529 322 525 324 527 z m 312 510 l 274 481 b 312 510 278 493 289 503 z m 109 349 l 106 352 b 112 359 108 354 110 357 b 254 472 160 397 207 434 b 262 476 257 474 259 475 b 264 474 263 475 264 474 b 263 472 264 473 264 472 b 116 353 214 432 165 393 b 109 349 114 351 111 350 z m 439 519 b 424 500 438 508 429 506 l 420 504 z m 416 495 l 401 482 b 416 495 402 489 406 494 z m 392 476 b 367 458 383 467 377 459 b 392 476 374 468 374 469 z m 366 457 b 363 451 366 455 365 453 b 357 450 362 450 359 450 b 366 457 358 456 361 458 z m 186 314 b 177 315 185 313 183 314 b 324 428 228 354 276 391 b 339 434 328 432 334 434 b 334 428 338 432 336 430 b 186 314 285 390 235 352 z "},"=":{"ha":624,"x_min":0,"x_max":0,"o":"m 73 456 b 77 436 67 448 73 442 b 159 424 89 416 140 424 b 284 422 201 423 243 422 b 529 418 366 421 448 420 b 552 426 538 417 546 420 l 541 434 b 551 459 556 442 556 442 l 523 461 b 547 472 532 467 541 463 b 541 478 545 474 543 477 b 529 479 537 479 533 479 b 526 482 528 479 527 481 l 536 488 b 514 494 530 494 522 496 b 432 493 487 494 460 493 b 356 492 407 492 381 492 b 87 486 266 492 177 490 b 70 475 79 485 71 483 b 73 456 69 470 76 460 z m 523 319 b 547 330 532 325 541 321 b 541 336 545 332 543 335 b 529 337 537 337 533 337 b 526 340 528 337 527 339 l 536 346 b 514 352 530 352 522 354 b 432 351 487 352 460 351 b 356 350 407 350 381 350 b 209 348 307 349 258 349 b 101 344 173 347 137 346 b 72 339 91 345 81 343 b 73 314 69 331 69 322 b 77 295 67 306 73 300 b 95 285 81 288 88 285 b 140 282 110 284 125 282 b 342 279 208 281 275 280 b 529 276 404 278 467 277 b 552 284 537 275 546 278 l 541 292 b 550 317 556 300 556 300 z "},">":{"ha":565,"x_min":0,"x_max":0,"o":"m 484 417 b 376 484 461 451 412 466 b 104 612 287 528 196 571 b 89 617 100 615 94 617 b 78 611 85 617 81 615 b 77 599 76 608 75 603 b 97 557 82 584 89 570 b 114 540 101 549 107 544 b 209 490 146 523 177 506 b 347 422 255 467 301 445 b 358 415 350 420 353 418 b 326 389 346 406 336 397 b 175 271 276 349 225 311 b 96 205 147 250 122 227 b 73 180 87 197 79 189 b 70 170 70 177 69 173 b 76 161 70 166 73 163 b 102 182 87 166 93 176 b 111 183 105 184 107 187 b 95 165 106 177 100 171 b 85 152 92 161 88 157 b 90 140 82 147 84 143 b 111 154 98 144 105 149 b 131 167 117 159 124 163 b 138 176 133 170 135 173 b 400 383 225 245 312 314 b 416 388 404 387 409 393 b 412 380 417 383 414 382 b 328 315 384 358 356 336 b 148 176 268 268 208 222 b 132 166 143 172 137 169 l 98 127 b 135 112 105 106 121 111 l 130 98 b 145 102 135 99 140 100 b 178 122 156 108 167 114 b 318 227 227 154 272 191 b 427 313 354 255 391 284 b 483 362 446 329 464 346 b 484 417 502 379 497 396 z m 126 196 b 141 215 127 207 136 209 l 145 211 z m 149 220 l 164 233 b 159 223 163 229 162 226 b 149 220 156 221 152 220 z m 173 239 b 198 258 182 249 188 256 b 173 239 191 247 191 247 z m 199 258 b 202 264 199 260 200 262 b 208 265 203 265 206 266 b 199 258 207 260 204 257 z m 241 287 b 226 281 237 283 231 281 b 231 287 227 283 229 285 b 379 402 280 325 330 363 b 388 400 380 402 382 401 b 241 287 337 361 289 324 z m 220 173 b 218 173 220 173 219 173 b 217 175 218 174 217 175 b 222 179 219 176 220 178 b 224 178 222 179 223 178 z m 231 186 l 244 196 b 231 186 243 190 241 188 z m 253 205 l 291 235 b 253 205 287 222 276 212 z m 453 356 b 311 243 406 319 358 281 b 303 239 308 242 306 240 b 301 241 302 240 301 241 b 302 243 301 242 301 243 b 449 362 351 283 400 322 b 456 367 451 364 454 365 l 459 363 b 453 356 457 361 455 358 z "},"?":{"ha":661,"x_min":0,"x_max":0,"o":"m 591 810 b 426 1001 581 899 511 975 b 411 1005 421 1002 416 1004 b 159 925 320 1025 228 985 b 77 795 119 891 91 845 b 92 707 71 775 57 708 b 109 719 102 706 105 711 b 151 796 121 746 135 772 b 472 910 218 895 354 971 b 512 856 493 899 511 882 b 435 705 514 804 465 744 b 317 578 398 661 359 619 b 140 296 239 498 160 411 b 160 195 134 262 144 225 b 241 176 180 157 222 122 b 260 267 252 205 250 237 b 466 542 296 375 393 457 b 591 810 528 615 602 707 z m 146 892 b 146 894 146 892 146 893 b 148 898 147 895 147 897 b 149 894 148 897 149 896 b 146 892 149 893 147 893 z m 148 898 b 160 905 152 901 155 903 b 148 898 158 898 154 895 z m 182 897 l 179 895 b 179 898 179 896 178 898 b 183 899 180 899 182 899 z m 171 914 b 188 928 174 921 181 926 b 171 914 185 921 178 916 z m 195 907 l 193 911 b 209 924 198 915 204 920 b 226 933 214 927 220 930 b 218 922 227 926 221 925 b 207 914 215 919 211 917 b 195 907 203 912 199 910 z m 212 884 b 232 897 216 891 223 896 z m 400 615 l 386 607 b 400 615 389 615 391 616 z m 366 586 l 362 575 b 366 586 360 582 360 583 z m 354 575 b 362 574 356 576 359 575 b 341 557 355 569 348 563 b 354 575 343 565 347 572 z m 232 424 b 232 431 228 427 231 430 b 284 497 247 455 265 476 b 289 499 285 498 287 498 b 286 491 289 496 288 493 b 232 424 268 469 250 447 z m 290 500 b 314 527 295 512 303 521 b 290 500 309 516 301 507 z m 316 529 b 340 556 320 541 329 550 b 316 529 334 545 326 536 z m 367 587 b 370 598 368 591 369 594 b 367 587 373 591 372 590 z m 371 599 b 380 604 373 601 377 602 b 385 606 381 605 383 605 b 371 599 380 597 379 596 z m 400 615 b 402 628 400 620 399 625 b 400 615 401 624 401 620 z m 407 630 b 405 630 406 630 405 630 b 408 631 406 630 407 631 b 407 630 407 630 407 630 z m 169 104 b 74 47 127 113 85 88 b 113 -67 62 6 83 -39 b 223 -52 151 -103 194 -90 b 227 69 249 -17 255 33 b 169 104 212 87 191 99 z m 100 52 b 117 79 101 67 107 72 b 100 52 114 67 107 63 z m 133 57 b 124 51 130 55 127 53 b 130 62 126 55 128 58 b 139 68 133 64 136 66 b 133 57 138 64 135 61 z m 157 38 l 158 39 l 159 38 z m 161 -12 l 165 -8 l 164 -13 z m 166 -7 b 166 -5 166 -6 166 -6 b 170 -3 167 -4 169 -3 b 166 -7 172 -3 170 -6 z m 179 -29 b 175 -30 179 -30 177 -29 b 177 -25 176 -28 176 -27 b 181 -22 178 -24 179 -24 b 179 -29 181 -24 180 -27 z m 203 -52 b 203 -49 203 -51 203 -50 b 205 -49 203 -49 204 -49 b 203 -52 204 -50 204 -50 z "},"@":{"ha":951,"x_min":0,"x_max":0,"o":"m 840 715 b 750 798 815 748 784 775 b 163 611 546 928 263 822 b 119 323 121 521 102 422 b 331 33 140 196 211 85 b 714 31 452 -20 591 -12 b 732 52 723 34 730 42 b 721 77 733 62 729 71 b 643 71 699 92 664 79 b 280 207 505 16 348 75 b 270 547 227 313 223 437 b 534 772 317 656 421 738 b 738 744 603 793 680 790 b 830 502 811 687 833 592 b 747 228 827 412 806 299 b 668 183 736 214 690 171 b 679 287 650 193 675 269 b 771 576 703 385 739 480 b 775 626 775 590 783 612 b 744 649 769 636 757 650 b 735 634 741 645 738 640 b 731 655 733 641 732 648 b 704 657 722 656 713 657 b 687 649 697 658 690 654 b 668 619 680 639 674 629 b 655 610 666 614 661 602 b 498 636 615 663 555 669 b 439 592 476 624 457 609 b 320 421 387 544 347 486 b 295 280 301 376 290 329 b 396 163 300 226 346 180 b 489 184 431 152 461 163 b 553 249 512 203 534 225 b 567 259 556 253 558 259 b 567 226 568 248 567 237 b 573 170 566 207 568 188 b 675 118 585 129 639 116 b 797 166 716 119 769 134 b 867 286 827 199 850 244 b 839 715 923 420 932 595 z m 203 630 l 202 626 l 202 626 b 203 630 202 627 202 629 z m 202 625 b 196 615 200 622 198 618 b 202 625 195 620 196 624 z m 139 365 b 139 367 139 365 138 366 b 140 369 139 367 139 368 l 141 367 b 139 365 140 367 140 366 z m 141 397 b 139 381 141 392 140 386 b 135 407 136 389 135 398 b 165 559 135 459 145 511 b 187 607 172 575 179 591 b 195 614 188 610 190 614 b 160 517 181 583 169 550 b 141 397 149 478 143 438 z m 239 633 b 172 444 207 574 189 511 b 239 633 166 488 199 590 z m 256 560 b 222 455 243 526 231 491 b 216 445 221 451 219 448 b 223 485 219 459 220 472 b 260 579 231 518 243 550 b 271 588 263 584 264 589 l 271 589 b 272 588 271 588 271 588 b 256 560 265 580 259 570 z m 667 305 b 666 309 666 307 666 308 b 667 311 665 310 666 310 l 668 308 z m 674 334 b 671 332 674 333 672 332 b 671 334 671 332 671 333 b 674 340 672 336 673 338 b 674 334 674 338 674 336 z m 675 343 b 679 363 676 349 678 356 b 675 343 682 356 681 348 z m 685 369 b 680 366 685 368 682 367 b 688 396 682 376 685 386 b 692 400 688 398 691 399 b 685 369 690 390 688 379 z m 682 510 b 684 529 683 517 683 523 b 687 519 686 526 687 523 b 682 510 686 516 685 513 z m 685 530 b 692 542 687 534 689 538 b 685 530 692 537 693 531 z m 693 402 b 698 419 692 408 691 415 b 693 402 700 413 698 406 z m 693 545 l 695 549 b 696 547 695 548 696 547 b 693 545 695 546 694 546 z m 734 633 l 724 622 b 734 633 726 630 727 634 z m 721 489 b 703 425 715 467 709 446 b 698 420 702 423 700 422 b 721 489 700 445 708 468 z m 701 576 b 701 576 701 576 701 576 l 701 572 b 701 576 701 573 701 575 z m 698 633 b 701 631 700 632 701 631 b 702 628 701 630 702 629 b 674 563 692 606 683 585 b 698 633 674 589 686 611 z m 676 504 b 681 509 677 506 679 507 b 677 485 680 501 679 493 b 651 394 668 455 659 424 b 647 416 645 400 643 409 b 663 470 652 434 658 452 b 676 504 667 481 671 493 z m 665 546 b 667 544 665 545 667 544 b 627 424 654 504 641 464 b 625 424 627 424 626 424 b 665 546 626 452 650 526 z m 530 570 l 533 566 l 518 550 b 515 554 517 552 515 554 b 530 570 520 559 525 564 z m 503 595 b 503 588 503 591 504 589 b 443 520 483 565 463 542 b 437 516 441 518 439 517 b 437 521 436 518 436 519 b 503 595 454 549 477 574 z m 327 343 l 323 344 b 327 355 325 348 326 352 z m 333 364 b 328 359 331 362 330 360 b 337 402 328 374 331 388 b 435 563 359 461 392 516 b 443 570 438 565 441 568 b 442 561 448 566 444 563 b 333 364 392 504 355 437 z m 436 515 b 426 499 436 508 432 502 b 436 515 424 507 429 512 z m 412 466 b 411 482 409 471 409 477 b 412 466 411 477 411 472 z m 400 459 b 412 466 402 466 405 469 b 400 459 408 464 405 461 z m 425 498 b 413 485 423 491 421 485 b 425 498 416 490 417 497 z m 485 251 b 423 219 474 242 439 209 b 415 263 412 226 414 252 b 464 434 419 322 439 381 b 524 535 480 470 500 504 b 607 599 546 562 573 589 b 622 598 612 601 617 600 b 632 586 627 595 630 591 b 637 573 633 582 634 577 b 638 543 642 564 642 553 b 596 408 623 498 610 453 b 590 392 594 403 592 397 b 485 251 565 339 531 289 z m 588 192 b 586 250 584 211 583 230 b 592 292 587 264 589 278 b 596 297 592 294 595 295 b 588 192 594 262 591 227 z m 597 300 l 598 305 b 599 303 598 305 599 304 b 597 300 599 302 598 301 z m 617 237 b 610 197 616 223 614 210 b 612 260 606 218 607 240 b 636 379 620 300 628 340 b 650 393 638 387 642 393 b 624 290 637 360 631 324 b 617 237 621 272 619 254 z m 651 201 b 651 227 644 211 648 219 z m 655 250 l 655 258 b 656 254 655 257 656 255 b 655 250 656 253 656 252 z m 660 287 b 662 286 661 287 661 287 b 662 279 662 284 662 282 b 660 280 661 279 660 279 b 660 287 660 282 660 284 z m 811 316 l 809 316 l 811 328 l 811 328 b 811 316 811 324 811 320 z m 811 328 b 824 369 816 342 820 356 b 843 449 830 396 836 423 b 846 460 843 451 844 453 b 833 385 844 435 840 409 b 819 335 828 369 823 352 b 811 328 818 332 815 329 z m 823 302 l 853 401 b 823 302 848 366 842 332 z m 860 305 b 874 363 860 329 871 345 b 860 305 875 344 868 327 z "},"A":{"ha":1107,"x_min":0,"x_max":0,"o":"m 1145 1021 b 1131 1041 1134 1024 1136 1034 b 1107 1051 1125 1049 1119 1055 b 1099 1053 1104 1050 1101 1051 b 1083 1062 1096 1062 1091 1063 b 1028 1071 1064 1059 1047 1066 b 1006 1043 1021 1062 1013 1053 b 813 789 946 956 880 871 b 592 529 741 701 666 615 b 516 447 568 501 541 475 b 469 431 503 432 488 432 b 405 427 448 431 426 429 b 278 401 362 425 319 416 b 234 326 242 387 228 365 b 251 273 237 308 239 288 b 297 277 265 256 282 266 b 368 295 318 292 343 298 b 352 277 361 287 357 281 b 207 143 304 232 256 187 b 82 47 168 107 126 75 b 25 34 64 36 46 28 b 11 31 20 34 15 33 b 1 6 2 26 -2 16 b 10 -6 3 2 6 -2 b 181 -60 59 -53 112 -96 b 264 -9 210 -46 238 -28 b 427 142 322 37 377 87 b 554 284 470 188 512 236 b 577 308 562 293 570 301 b 632 309 595 309 614 309 b 730 303 665 308 698 306 b 751 301 737 303 744 302 b 761 294 755 301 761 299 b 756 261 760 283 759 272 b 750 225 754 249 752 237 b 742 154 747 201 744 178 b 734 32 736 114 734 73 b 760 -81 736 -6 739 -49 b 778 -93 764 -86 771 -89 l 785 -73 b 815 -98 796 -81 794 -101 b 820 -66 817 -88 818 -78 b 834 -102 826 -80 830 -92 b 843 -105 837 -104 840 -105 b 876 -79 869 -106 875 -102 b 876 -11 877 -56 877 -33 b 887 218 870 66 874 143 b 906 283 890 240 893 262 b 902 248 904 271 904 259 b 881 -38 883 153 880 58 b 889 -91 882 -56 885 -74 b 894 -96 890 -93 892 -95 b 899 -91 897 -96 898 -94 b 905 -71 902 -85 904 -78 b 907 -28 907 -57 907 -42 b 905 4 907 -18 905 -7 b 926 258 905 89 912 174 b 938 287 928 268 929 279 b 999 281 958 285 978 282 b 1060 279 1018 280 1038 267 l 1051 293 b 1051 330 1076 309 1076 316 l 1064 345 l 1040 356 b 1047 366 1043 359 1047 363 b 1022 378 1047 377 1029 377 b 966 387 1003 379 984 382 b 955 407 954 390 952 396 b 995 556 968 457 980 507 b 1073 792 1018 636 1045 714 b 1136 960 1093 849 1115 904 b 1148 1005 1141 975 1145 990 b 1145 1021 1149 1010 1147 1020 z m 337 394 b 334 391 336 393 335 392 b 327 386 332 389 329 388 b 331 394 328 389 329 391 b 337 394 332 395 335 394 z m 331 357 l 308 354 b 331 357 314 363 318 363 z m 327 386 b 304 377 318 385 310 386 b 327 386 310 389 310 389 z m 287 377 b 304 377 293 387 298 380 z m 298 351 b 304 354 300 352 302 353 b 306 353 305 354 305 354 l 300 349 z m 326 308 l 319 308 l 326 308 b 331 314 328 310 329 312 b 326 308 329 312 327 310 z m 331 357 b 354 365 333 372 343 367 z m 389 370 b 382 371 387 370 384 371 l 382 373 l 394 372 b 389 370 392 371 391 371 z m 1052 969 l 1051 968 l 1051 969 z m 1012 866 b 1018 883 1014 872 1016 877 b 1012 866 1019 877 1017 870 z m 1019 886 l 1023 903 b 1019 886 1024 897 1027 890 z m 1011 864 b 1004 850 1011 858 1011 852 b 1011 864 1005 855 1005 861 z m 1003 848 b 1002 824 1003 840 1002 832 b 1003 848 996 831 997 842 z m 951 802 b 950 798 951 801 950 800 l 949 804 b 951 802 950 803 951 803 z m 814 756 l 814 754 l 813 754 z m 790 726 b 792 725 790 727 791 726 l 787 720 l 785 722 b 790 726 786 723 788 725 z m 749 679 b 760 688 752 682 756 685 b 752 676 755 680 754 678 b 750 674 751 675 751 674 b 749 679 749 675 748 678 z m 730 647 l 715 628 b 730 647 717 640 717 640 z m 728 603 l 726 604 l 728 606 z m 691 556 b 706 575 689 568 696 572 z m 703 500 b 701 498 703 499 702 498 b 698 497 700 497 699 497 b 700 500 699 498 699 500 b 703 500 701 500 702 500 z m 701 613 l 678 584 b 701 613 681 599 681 599 z m 678 467 l 671 459 l 669 461 l 676 470 z m 661 574 b 656 558 666 565 659 562 b 644 545 652 553 648 549 l 639 549 z m 617 522 b 590 493 614 508 604 497 z m 591 436 b 577 433 590 435 587 435 l 677 549 b 677 537 677 542 678 538 b 591 436 648 503 620 470 z m 652 435 b 647 435 652 434 649 435 b 648 438 647 436 648 437 b 659 447 650 440 653 442 b 652 435 657 443 655 439 z m 687 371 l 667 371 l 667 372 l 687 372 z m 784 -41 b 767 5 772 -29 766 -12 b 770 123 767 44 766 84 b 790 276 774 174 783 225 b 797 295 792 283 794 289 b 784 -41 786 185 765 77 z m 794 439 b 788 420 793 432 791 426 b 771 413 785 413 778 413 b 739 416 761 414 750 415 b 678 424 719 419 698 422 b 682 442 673 425 681 440 b 693 456 685 447 690 451 b 759 541 715 485 738 512 b 801 598 773 560 787 579 b 825 632 809 609 817 621 b 850 664 834 643 841 654 b 855 670 852 666 854 668 b 858 671 856 671 856 671 b 861 669 858 671 861 669 b 817 521 846 620 832 570 b 794 439 810 493 802 466 z m 843 277 b 815 -6 825 183 818 89 b 833 295 796 95 816 194 b 841 293 836 294 839 294 b 844 291 842 293 843 292 b 843 277 844 286 844 281 z m 831 424 b 821 414 830 419 826 415 b 827 448 823 425 824 437 b 925 763 854 555 887 660 b 939 792 928 773 933 783 b 950 795 940 794 945 794 b 884 606 928 732 904 670 b 831 424 864 546 849 485 z m 875 426 b 863 406 873 417 873 417 b 863 433 856 415 860 424 b 896 553 873 473 885 513 b 978 794 920 635 948 714 b 991 823 982 804 987 813 l 1001 823 b 983 782 995 809 988 796 b 875 426 940 665 904 546 z m 934 416 b 926 399 933 411 935 404 b 925 416 925 405 925 410 b 986 628 941 488 961 559 b 990 632 986 630 988 631 b 984 598 988 621 986 609 b 934 416 967 537 951 477 z m 991 634 b 994 658 992 642 993 650 b 991 634 997 650 999 642 z m 994 661 b 1001 682 996 668 999 675 b 994 661 1003 673 1005 665 z m 1003 684 b 1007 704 1007 690 1009 697 l 1007 704 b 1003 684 1010 696 1013 688 z m 1020 712 b 1008 705 1018 706 1013 705 b 1020 728 1011 712 1015 720 b 1028 737 1022 731 1025 734 b 1028 741 1028 739 1028 741 b 1028 738 1028 741 1028 740 b 1020 712 1026 729 1023 721 z m 1025 906 b 1033 913 1027 908 1030 911 b 1025 906 1032 909 1029 907 z m 1036 917 l 1035 917 l 1036 919 b 1036 917 1036 919 1036 918 z m 1085 1024 b 1086 1027 1085 1025 1086 1026 b 1089 1027 1086 1028 1088 1027 l 1089 1025 z "},"B":{"ha":872,"x_min":0,"x_max":0,"o":"m 739 1048 b 500 1061 662 1082 581 1082 b 349 993 446 1047 396 1022 b 157 797 270 944 204 877 b 108 609 123 740 101 678 b 146 514 111 575 124 542 b 177 501 153 505 165 495 b 181 545 189 507 182 535 b 202 662 178 585 186 625 b 266 759 218 698 239 731 b 701 931 374 874 540 956 b 793 861 743 925 795 913 b 780 800 792 840 787 819 b 686 638 759 740 727 686 b 505 492 635 579 574 529 b 481 488 499 489 492 482 b 526 629 496 535 510 582 b 576 754 541 671 554 714 b 575 778 579 761 583 769 l 559 770 b 535 809 561 796 561 797 l 516 798 b 514 816 515 804 515 811 b 484 809 500 823 493 811 b 465 817 481 820 473 821 b 438 785 451 810 445 798 b 317 479 385 688 351 583 b 263 285 296 416 278 351 b 236 150 253 240 243 196 b 236 111 234 137 234 124 b 259 90 238 99 244 88 b 273 82 267 91 269 85 b 288 73 278 78 283 76 b 301 99 293 83 296 90 b 304 65 302 86 303 75 b 347 64 320 59 333 51 b 352 64 349 65 351 65 b 373 68 362 51 370 60 b 386 108 379 81 383 94 b 396 166 386 127 392 148 b 409 223 400 185 404 204 b 437 334 418 260 427 297 b 462 414 439 339 462 414 b 470 409 465 413 468 411 b 529 397 486 394 509 390 b 576 408 545 402 561 404 b 639 321 603 382 639 361 b 583 128 641 252 624 185 b 228 -25 505 23 359 -47 b 109 86 169 -15 122 25 b 108 177 103 116 103 147 b 154 292 117 218 132 257 b 172 341 163 305 179 325 b 138 372 166 357 153 368 b 93 362 122 376 105 372 b 6 116 21 302 -16 208 b 81 -10 18 67 44 24 b 532 -65 202 -123 386 -129 b 775 309 667 -7 834 146 b 699 427 758 353 733 394 b 678 452 692 435 682 440 b 699 465 686 457 693 461 b 860 608 761 504 817 549 b 917 713 885 639 905 674 b 739 1048 960 856 869 991 z m 218 847 b 223 847 219 848 221 847 b 222 844 223 846 223 845 b 210 834 220 842 217 840 b 218 847 213 839 215 843 z m 204 826 b 191 804 199 814 197 808 b 204 827 188 812 193 817 z m 151 751 l 150 752 b 152 753 151 752 151 752 l 151 752 z m 153 754 b 172 764 159 758 163 765 z m 172 764 b 174 783 173 770 167 778 b 172 764 174 777 173 770 z m 176 785 b 190 803 177 794 179 802 b 176 785 187 796 184 788 z m 193 764 l 192 773 l 196 765 z m 221 731 l 221 734 l 223 733 z m 236 816 b 203 772 225 801 214 786 l 192 774 b 211 797 203 777 205 789 b 237 824 219 806 225 817 b 236 816 237 820 237 817 z m 558 769 b 556 752 557 763 556 757 b 558 769 551 758 550 764 z m 553 749 b 548 735 549 746 547 741 l 548 735 b 553 749 547 742 548 747 z m 515 796 b 512 781 515 791 514 786 b 474 716 500 759 491 735 b 515 796 480 746 494 774 z m 296 262 b 283 203 292 242 287 223 b 273 144 279 183 276 164 b 264 151 266 142 264 146 b 277 231 268 178 271 205 b 419 686 313 386 361 538 b 451 757 428 710 440 733 b 462 774 454 763 458 768 b 443 718 462 753 450 736 b 421 663 436 700 428 681 b 400 606 413 644 406 625 b 380 550 393 588 386 569 b 361 493 373 531 367 512 b 343 435 355 474 349 455 b 326 378 337 416 332 397 b 311 320 321 359 316 339 b 296 262 306 301 301 281 z m 448 638 b 447 643 447 640 447 641 b 449 647 447 644 448 646 b 449 644 449 646 449 645 b 448 639 449 642 448 640 z m 318 178 b 313 157 316 171 315 164 b 306 144 311 153 309 149 b 306 174 305 154 305 164 b 338 319 316 222 326 271 b 424 591 362 411 390 502 b 442 614 428 601 429 612 b 432 597 438 609 434 603 b 318 178 389 459 347 320 z m 415 335 b 390 236 407 302 397 269 b 364 130 383 200 374 165 b 440 435 363 181 413 382 b 415 335 435 401 423 368 z m 442 615 b 448 637 441 623 435 632 b 442 615 446 629 444 622 z m 448 471 l 449 474 l 450 471 z m 461 514 b 456 512 460 513 458 513 b 457 502 457 509 457 506 b 458 499 457 501 457 500 b 455 502 457 500 455 501 b 456 512 455 506 456 509 b 461 515 457 513 459 514 b 462 518 461 516 462 517 b 461 514 462 517 462 515 z m 459 681 b 466 695 462 685 464 690 b 459 681 466 689 464 684 z m 467 698 b 473 712 467 704 467 709 b 467 698 473 707 473 701 z m 95 335 b 93 336 94 336 94 336 b 94 339 93 337 94 338 l 96 338 b 95 335 96 337 95 336 z m 615 132 b 580 87 606 104 606 104 z m 601 63 b 634 101 609 79 620 87 b 601 63 623 76 623 76 z m 680 73 l 682 70 l 670 55 b 672 67 664 62 670 64 b 680 73 674 69 677 71 z m 670 574 b 667 579 669 576 668 577 l 744 665 b 739 647 746 658 744 651 b 701 602 727 632 714 616 b 670 574 692 592 680 583 z m 743 524 l 743 526 l 746 525 z m 692 551 b 755 614 700 569 714 583 b 692 551 740 587 718 566 z m 771 544 b 766 546 770 544 767 546 l 774 556 b 777 551 775 554 778 551 b 771 544 775 548 773 546 z "},"C":{"ha":900,"x_min":0,"x_max":0,"o":"m 962 406 b 935 398 951 415 941 408 b 806 187 895 326 856 253 b 495 -43 727 83 624 -9 b 222 26 401 -67 284 -60 b 170 188 188 73 174 132 b 307 643 160 348 221 507 b 387 753 331 681 358 718 b 539 898 432 808 483 856 b 736 991 596 939 665 979 b 771 989 747 994 760 993 b 777 986 773 988 775 987 b 787 845 814 960 797 881 b 721 705 773 795 751 747 b 629 607 696 667 665 634 b 501 574 592 582 546 568 b 457 561 484 577 460 578 b 461 543 455 555 457 548 b 542 481 483 516 510 495 b 716 472 597 456 659 453 b 864 605 781 495 827 550 b 896 926 925 698 943 824 b 774 1056 871 981 829 1029 b 573 1060 710 1086 639 1076 b 137 708 384 1014 234 871 b 13 399 80 612 34 508 b 104 -7 -15 258 -3 98 b 371 -105 175 -76 272 -112 b 696 34 490 -97 604 -41 b 964 376 808 125 888 255 b 962 406 971 385 970 398 z m 789 751 b 789 750 789 751 789 750 l 789 753 b 789 751 789 752 789 751 z m 739 662 b 737 671 738 667 736 670 b 780 742 751 695 766 718 b 788 746 782 744 785 745 b 739 662 778 715 765 686 z m 786 650 b 750 619 778 636 765 625 b 796 687 765 645 780 663 b 786 650 798 674 794 660 z m 843 623 l 838 620 l 839 625 z m 822 599 b 838 619 822 608 829 617 b 824 597 839 609 833 601 b 814 581 821 592 818 587 b 822 599 812 590 814 597 z m 553 936 b 556 935 554 936 555 936 b 555 933 556 935 556 933 b 552 934 554 933 553 933 b 553 936 553 935 553 936 z m 241 582 b 224 574 237 576 233 572 b 226 568 225 572 226 570 b 227 565 226 567 227 566 b 225 568 226 566 225 567 b 224 574 225 570 224 572 b 241 597 230 582 236 589 b 256 600 245 604 250 600 l 256 600 b 241 582 251 594 246 588 z m 256 620 l 256 601 b 256 620 252 607 249 614 z m 257 622 b 279 655 260 635 267 647 b 257 622 275 637 270 628 z m 448 850 b 416 816 437 839 427 828 b 339 734 391 789 365 762 b 285 658 321 709 303 683 b 280 657 284 657 282 657 b 280 663 280 659 279 661 b 336 737 297 689 312 717 b 445 853 365 782 402 821 b 496 895 459 871 474 887 b 495 889 496 892 497 890 b 448 850 480 876 464 863 z m 535 923 b 537 920 535 923 536 921 b 531 918 535 919 533 918 b 529 920 531 918 530 919 b 535 922 531 921 533 922 z m 497 895 b 517 908 499 904 506 907 b 497 895 511 899 506 894 z m 507 978 l 514 977 l 506 978 b 491 960 507 966 500 962 b 495 967 492 963 493 965 b 507 978 498 971 503 974 z m 395 943 b 396 941 395 943 395 942 l 393 939 b 392 944 393 941 392 942 b 395 943 393 944 394 943 z m 64 438 b 42 357 56 411 51 384 b 43 379 42 364 42 372 b 293 859 76 565 163 723 b 329 889 304 870 316 880 b 376 925 339 907 357 916 b 354 904 368 918 361 910 b 331 887 347 897 339 892 b 308 859 324 877 316 868 b 64 438 194 740 111 596 z m 125 507 l 125 508 l 125 502 z m 126 509 b 133 523 128 513 131 518 b 126 509 134 517 131 511 z m 135 526 b 140 540 137 531 138 536 b 135 526 141 535 141 530 z m 141 544 b 208 681 156 593 182 637 b 431 928 265 777 341 861 b 473 955 445 937 459 947 b 488 959 478 957 483 958 b 482 952 487 956 485 954 b 157 568 341 852 235 721 b 141 544 153 559 152 548 z "},"D":{"ha":999,"x_min":0,"x_max":0,"o":"m 775 997 b 206 900 592 1139 352 1051 b 32 614 127 820 65 722 b 34 566 29 602 24 575 b 79 602 55 547 72 588 b 321 881 137 712 218 811 b 486 955 371 916 427 941 b 757 893 586 978 678 962 b 823 597 845 816 849 705 b 611 201 787 449 714 313 b 417 55 556 141 490 91 b 282 16 375 33 329 20 b 175 46 243 14 207 21 b 161 56 171 49 166 53 b 85 88 136 71 114 83 b 50 67 68 91 37 93 b 106 -1 63 41 85 18 b 570 -66 230 -116 418 -134 b 906 275 715 0 838 131 b 970 557 948 363 970 460 l 970 561 b 775 997 971 721 903 897 z m 363 993 b 363 990 363 992 363 991 b 362 996 363 992 362 994 b 363 993 362 995 363 994 z m 363 990 l 363 989 l 347 986 b 363 990 351 990 357 989 z m 363 959 l 343 960 b 363 959 349 965 357 965 z m 320 968 b 316 967 318 967 317 967 b 315 969 315 967 315 968 z m 268 931 b 263 927 267 930 265 928 b 263 930 263 928 263 929 b 268 934 264 931 266 933 b 268 931 268 933 268 932 z m 287 919 l 288 921 l 290 920 z m 290 947 b 289 949 289 948 288 949 b 293 954 290 951 292 952 b 295 951 294 953 295 951 b 290 947 293 950 292 948 z m 311 933 b 317 942 308 940 313 941 b 325 941 320 943 322 942 z m 327 942 b 329 951 327 945 328 948 b 341 959 333 954 337 957 b 338 951 341 956 340 953 b 327 942 335 947 331 945 z m 363 959 b 363 961 363 960 363 961 b 363 959 363 961 363 960 z m 364 962 b 366 969 365 964 365 966 l 376 968 b 364 962 371 969 366 967 z m 375 928 b 376 928 375 928 376 928 l 376 927 z m 377 968 b 379 973 376 970 377 971 b 384 975 380 974 382 975 b 377 968 380 974 378 971 z m 389 975 b 390 975 389 975 390 975 l 390 975 b 389 975 390 975 389 975 z m 390 975 b 394 980 390 978 392 979 b 390 975 392 979 391 977 z m 404 982 b 404 983 404 982 404 983 l 404 983 b 404 982 404 983 404 982 b 404 982 404 982 404 982 z m 417 990 l 418 990 l 418 990 b 417 990 418 990 418 990 z m 726 280 l 728 279 l 727 276 b 725 277 726 277 725 277 b 726 280 725 278 725 279 z m 645 188 b 712 262 668 212 690 237 b 577 117 683 201 636 150 b 645 188 600 141 623 164 z m 601 80 l 710 182 b 601 80 692 139 655 103 z m 674 34 b 671 37 672 36 671 36 b 672 40 671 38 671 39 b 744 109 696 63 720 86 b 674 34 731 74 703 53 z m 502 926 b 497 939 500 931 498 935 b 468 924 485 941 473 935 b 447 877 460 909 453 893 b 394 729 429 828 412 778 b 353 602 380 686 365 644 b 268 302 324 502 295 402 b 223 115 251 240 237 177 b 222 81 221 104 221 92 b 231 72 222 78 228 73 b 241 80 236 71 240 75 b 244 104 242 88 242 96 b 262 191 250 133 256 162 b 270 199 263 195 265 199 b 250 106 263 168 256 137 b 249 65 248 92 248 79 b 259 57 249 63 254 60 l 274 86 b 272 54 273 72 272 62 b 323 44 288 34 307 50 b 337 77 331 53 337 65 b 347 124 340 93 343 108 b 432 410 372 220 401 316 b 498 613 454 478 476 545 b 544 746 513 657 528 702 b 588 865 558 786 574 825 b 580 899 593 878 603 893 b 577 909 578 900 578 906 b 549 928 572 920 561 927 b 537 913 545 923 541 918 b 529 911 535 912 532 912 b 534 933 531 919 533 926 b 502 926 520 945 512 931 z m 385 624 b 406 686 392 645 399 665 b 413 695 408 689 410 692 b 410 673 413 687 412 680 b 285 252 364 534 324 393 b 275 230 283 245 286 234 b 285 283 278 248 280 266 b 385 624 318 397 351 511 z m 402 557 l 403 559 l 404 557 z m 400 376 b 386 334 397 361 396 346 b 400 376 385 349 390 364 z m 395 523 l 393 534 l 397 534 b 395 523 396 530 396 526 z m 394 520 b 389 509 393 516 391 513 b 394 520 385 517 389 518 z m 366 435 b 370 456 363 442 365 450 b 366 435 373 449 371 440 z m 371 458 b 383 471 372 465 373 472 b 371 458 379 467 375 462 z m 383 471 b 379 487 382 476 381 481 l 383 487 l 383 471 z m 270 200 b 274 229 266 210 267 221 b 270 200 277 219 276 208 z m 313 57 b 312 58 313 57 312 58 b 314 62 312 59 313 61 b 314 59 314 61 314 60 z m 286 133 b 277 114 285 126 281 119 b 279 137 277 122 278 129 b 320 296 292 190 305 243 b 357 421 331 338 345 379 b 365 433 359 426 359 432 b 362 410 365 425 364 418 b 286 133 337 318 312 225 z m 327 140 b 330 122 328 134 329 128 b 327 140 323 128 325 134 z m 337 153 b 328 143 337 148 333 144 b 338 164 332 150 329 160 b 337 153 338 160 337 156 z m 339 166 b 344 192 337 175 335 185 b 339 166 345 183 344 174 z m 345 194 b 350 215 344 202 343 209 b 345 194 351 207 352 200 z m 351 217 b 358 240 351 225 349 234 b 351 217 358 232 359 223 z m 358 242 b 363 264 357 250 358 258 b 358 242 365 256 366 248 z m 364 266 b 372 287 366 273 364 282 b 364 266 371 280 372 271 z m 373 290 b 377 312 371 297 372 305 b 373 290 380 305 378 296 z m 377 314 b 385 331 379 320 377 328 b 377 314 385 325 387 317 z m 401 380 b 404 402 402 387 403 395 b 401 380 406 395 406 387 z m 405 405 b 413 421 408 410 406 418 b 405 405 412 414 411 408 z m 414 424 b 414 424 416 427 415 426 z m 424 454 l 422 455 l 425 456 z m 429 477 l 430 479 l 431 476 z m 461 826 b 416 698 446 784 431 741 b 414 696 416 697 415 697 b 414 712 413 702 413 707 b 455 827 427 751 441 789 b 462 832 456 829 459 831 b 461 826 462 830 462 828 z m 482 879 b 462 835 476 864 469 850 b 483 888 460 856 474 871 b 482 879 483 885 483 882 z m 526 903 b 528 909 527 905 528 907 l 529 904 z "},"E":{"ha":871,"x_min":0,"x_max":0,"o":"m 764 341 b 727 359 752 347 746 365 b 719 369 726 359 723 367 b 703 374 715 373 709 375 b 690 363 698 372 693 369 b 682 301 683 345 686 321 b 660 239 677 280 670 259 b 586 138 642 201 617 167 b 352 17 521 77 440 35 b 199 32 305 7 240 0 b 167 78 185 44 173 60 b 263 318 133 166 198 263 b 444 424 317 363 378 399 b 499 452 463 431 482 441 b 510 500 517 464 518 480 b 468 539 501 518 486 532 b 409 627 430 557 414 588 b 438 773 402 677 412 729 b 718 935 491 862 614 935 b 742 931 726 935 734 934 b 762 900 755 926 763 914 b 722 773 761 854 745 812 b 673 715 709 751 693 731 b 614 691 656 701 637 691 b 600 690 609 692 605 691 b 654 623 559 682 642 628 b 801 689 711 602 770 643 b 641 1065 897 836 819 1040 b 309 877 506 1083 368 997 b 281 792 296 850 287 822 b 282 700 276 762 276 730 b 342 577 292 654 312 612 b 367 543 346 572 366 552 b 367 541 368 543 368 542 b 334 534 365 536 340 535 b 263 516 310 530 286 524 b -27 212 125 472 -17 368 b 203 -77 -37 71 80 -33 b 535 -60 311 -115 431 -106 b 718 74 605 -28 667 17 b 791 190 750 108 774 147 b 790 311 806 230 811 271 b 764 341 785 323 775 334 z m 745 763 l 741 763 l 744 768 z m 736 754 b 736 758 736 755 736 757 b 740 762 737 759 738 761 b 741 757 740 761 741 759 b 736 754 740 756 738 755 z m 749 720 b 746 718 748 719 747 719 b 745 724 746 720 744 722 b 751 731 747 726 749 729 b 749 720 756 726 753 723 z m 780 693 l 779 691 l 778 693 z m 518 898 b 485 869 508 888 497 878 b 465 854 481 865 475 861 b 518 900 483 883 488 887 b 518 898 519 899 519 898 z m 525 903 l 520 902 b 523 904 521 903 522 904 b 525 903 524 905 525 904 z m 507 969 l 509 973 b 507 969 512 970 509 970 z m 504 967 b 419 896 476 944 447 920 b 421 911 412 903 419 907 b 490 966 439 935 463 954 b 504 967 495 967 500 968 z m 458 990 l 471 1004 b 458 990 469 992 465 989 z m 360 890 b 360 902 354 895 358 899 b 451 989 382 939 413 969 b 457 990 453 990 455 990 b 455 984 456 988 456 985 b 360 890 420 956 388 924 z m 283 372 l 285 371 l 283 370 z m 261 358 b 246 346 263 351 259 349 z m 173 262 b 183 289 174 272 177 281 b 242 335 197 310 218 326 b 173 262 219 311 196 287 z m 158 427 l 160 426 l 158 425 z m 26 263 b 27 263 26 263 26 263 l 25 261 b 26 263 25 261 26 262 z m 29 266 b 36 297 28 277 30 288 b 132 407 58 342 91 379 b 134 406 133 407 134 406 b 59 310 109 374 84 342 b 29 266 48 296 39 281 z m 204 407 b 207 404 206 406 207 405 b 206 402 207 403 207 402 b 94 284 166 365 131 323 b 204 407 114 340 155 377 z m 651 166 b 647 155 650 162 649 159 b 600 110 634 137 618 122 b 651 166 612 132 630 151 z m 622 84 b 662 127 629 103 629 103 b 622 84 654 108 640 95 z m 651 168 b 662 179 649 175 655 178 z m 662 55 b 678 72 667 61 673 67 b 695 88 683 77 688 81 b 662 55 687 68 687 68 z "},"F":{"ha":703,"x_min":0,"x_max":0,"o":"m 1040 939 b 971 1002 1027 967 997 987 b 793 1048 917 1033 854 1045 b 670 1037 752 1049 711 1046 l 646 1054 b 618 1040 633 1052 630 1038 b 623 1052 620 1044 622 1048 b 619 1066 625 1057 625 1064 b 603 1063 613 1067 608 1066 b 588 1041 597 1056 592 1049 b 566 1013 581 1033 579 1021 b 569 1028 566 1018 567 1023 b 584 1058 574 1038 580 1047 b 585 1069 585 1061 586 1065 b 562 1063 577 1073 567 1070 b 544 1035 555 1054 549 1045 b 511 1009 538 1021 526 1011 b 179 965 402 981 292 962 b 99 974 152 966 125 969 b 61 1005 81 976 66 988 b 56 1013 60 1008 58 1011 b 46 1017 53 1015 50 1016 b 2 983 17 1019 9 1012 b 16 895 -4 952 4 923 b 119 810 36 850 68 820 b 247 808 161 802 204 801 b 439 849 312 816 376 830 b 465 852 447 851 456 852 b 349 499 418 735 388 615 b 205 499 300 499 252 497 b 115 524 174 501 141 500 b 80 523 106 533 91 529 b 70 499 70 517 71 508 b 106 401 68 463 81 427 b 278 361 151 353 217 358 b 302 362 286 362 294 362 b 306 361 303 362 305 362 b 308 351 309 360 309 355 b 260 155 291 286 274 221 b 230 -8 248 101 238 47 b 228 -48 228 -21 227 -35 b 234 -70 228 -56 230 -63 b 246 -81 237 -75 243 -81 b 277 -91 259 -78 264 -96 b 286 -87 279 -90 282 -89 b 303 -105 286 -99 293 -103 b 331 -96 315 -108 322 -99 l 330 -78 l 332 -78 b 331 -96 332 -84 332 -90 b 341 -101 331 -105 337 -105 b 355 -67 350 -92 355 -80 b 380 66 360 -22 368 22 b 459 350 406 161 432 255 b 476 397 464 366 470 381 b 501 400 485 398 493 399 b 652 414 552 403 602 407 b 678 430 659 415 686 419 b 673 435 676 432 674 433 b 683 471 692 448 693 452 b 681 479 682 473 681 476 b 670 498 680 492 679 497 b 640 499 660 499 650 499 b 589 493 623 497 606 495 b 532 488 570 491 551 489 b 512 487 526 487 519 487 b 674 508 563 505 617 497 b 660 519 670 513 665 516 b 637 521 652 520 645 521 b 594 520 623 522 608 521 l 522 517 b 522 547 509 516 520 541 b 624 838 554 645 589 741 b 654 900 631 858 636 885 b 729 905 678 901 704 905 b 867 887 776 905 822 899 b 953 858 897 881 926 871 b 971 825 966 852 973 839 b 972 813 970 821 969 815 b 981 786 979 805 980 796 b 1015 790 986 763 1007 779 b 1041 843 1027 806 1036 824 b 1040 939 1050 874 1053 909 z m 281 387 l 273 388 l 282 387 z m 288 421 l 273 421 l 273 422 l 289 422 z m 506 576 b 510 593 508 582 509 587 b 506 576 511 587 510 581 z m 511 988 b 460 972 495 979 478 973 b 461 975 460 973 460 974 b 511 988 474 983 488 985 z m 459 972 b 429 969 450 967 439 966 b 459 972 438 974 449 975 z m 426 969 b 415 962 423 966 419 963 b 395 963 408 961 401 962 z m 392 962 b 379 955 388 959 384 955 b 350 958 369 955 360 956 z m 301 948 b 334 953 312 949 323 951 b 350 958 339 954 345 956 b 345 949 348 955 347 949 b 268 944 320 946 295 938 b 301 948 279 945 290 946 z m 197 938 l 200 936 b 197 936 199 936 198 936 b 194 937 196 936 195 937 z m 167 876 b 493 927 277 882 385 904 b 483 920 490 924 487 922 b 167 876 386 893 243 863 z m 219 838 b 219 840 219 839 218 840 b 221 842 219 841 220 842 b 472 890 306 849 389 871 b 474 889 472 890 473 889 b 219 838 436 866 276 835 z m 369 471 b 502 860 383 542 479 823 b 504 857 503 859 504 857 b 378 467 459 728 418 598 b 371 456 376 463 374 460 b 369 471 370 461 369 466 z m 505 573 b 498 556 504 567 504 560 b 505 573 499 562 498 569 z m 489 710 l 488 707 l 487 710 z m 366 440 l 369 433 b 361 430 367 432 364 431 b 359 435 361 430 358 434 b 366 440 361 437 363 438 z m 355 403 b 356 401 355 403 356 401 b 355 398 356 400 355 398 b 350 400 353 399 352 400 b 355 403 352 401 353 402 z m 335 485 b 340 482 337 485 339 483 b 335 479 339 481 337 479 b 330 482 333 479 332 481 b 335 484 332 483 333 484 z m 321 430 b 326 428 323 430 325 428 b 321 424 325 426 323 425 b 316 427 319 424 317 426 b 321 430 317 428 319 430 z m 314 395 l 314 393 l 312 394 z m 285 110 b 257 -32 274 63 266 15 b 257 20 253 -15 253 3 b 318 287 273 110 293 199 b 335 352 324 309 329 331 b 345 374 338 360 342 367 b 345 353 346 367 346 360 b 285 110 325 272 304 191 z m 312 74 b 294 -12 306 46 300 17 b 289 -23 293 -16 291 -20 b 291 27 287 -6 288 11 b 378 375 312 145 344 260 b 439 568 397 440 418 504 b 451 592 441 576 439 589 b 433 525 445 569 440 547 b 312 74 389 376 345 226 z m 374 118 b 356 42 369 92 362 68 b 336 -33 351 17 344 -8 b 336 -15 336 -27 336 -21 b 369 129 347 33 358 81 b 375 139 371 133 372 136 b 374 118 376 132 375 125 z m 455 404 b 384 157 432 321 408 239 b 376 141 382 151 384 143 b 378 164 376 149 376 156 b 444 394 399 241 421 317 b 457 416 446 402 451 410 b 455 404 456 412 456 408 z m 452 594 b 456 615 449 601 450 609 b 452 594 459 608 457 599 z m 457 617 b 463 634 459 623 461 629 b 457 617 464 627 465 621 z m 464 637 b 470 654 466 643 468 648 b 464 637 471 647 471 641 z m 471 658 b 476 676 473 664 474 670 b 471 658 477 669 478 662 z m 489 522 b 486 526 488 523 486 525 b 490 533 487 528 488 531 b 490 525 490 530 490 528 b 489 522 490 524 490 523 z m 491 536 b 497 552 493 541 495 547 b 491 536 499 546 496 540 z m 565 419 l 498 419 b 533 424 509 423 521 425 b 566 423 544 424 555 423 z m 606 427 l 606 429 l 620 429 l 621 427 z m 658 478 b 500 464 631 467 534 458 z m 511 598 b 516 618 513 605 514 611 b 511 598 517 611 518 604 z m 516 620 b 522 640 518 627 520 633 l 522 640 b 516 620 522 633 526 624 z m 528 642 b 523 640 526 641 525 641 b 527 644 524 642 525 643 b 529 647 527 645 528 646 b 528 642 528 645 529 643 z m 535 940 b 534 942 534 941 534 942 b 536 943 534 943 535 943 b 537 941 536 942 537 942 b 535 940 537 940 535 940 z m 611 1022 b 618 1038 613 1027 616 1033 b 615 1021 617 1033 616 1027 z m 861 916 b 788 927 837 920 813 924 b 728 937 768 929 748 932 b 748 939 735 938 741 939 b 851 925 783 939 818 935 b 861 917 855 924 858 920 l 866 917 z m 799 962 b 799 966 799 963 799 965 b 809 969 802 968 805 969 b 862 960 827 966 844 963 b 867 957 864 960 866 959 b 868 951 868 955 869 953 b 799 962 845 954 822 958 z m 871 951 l 881 953 b 882 949 881 952 882 950 z m 824 1018 b 885 1010 844 1024 864 1020 b 824 1018 862 1008 844 1016 z "},"G":{"ha":890,"x_min":0,"x_max":0,"o":"m 875 409 b 875 434 870 418 875 426 b 868 461 875 443 865 449 b 856 473 870 466 863 472 b 824 470 845 472 834 472 b 783 464 810 468 796 466 b 776 467 781 464 779 465 b 777 489 777 472 777 479 b 769 495 776 490 770 491 b 730 518 761 512 744 514 b 696 518 718 521 707 521 b 678 499 688 515 683 506 b 663 472 673 491 668 481 b 651 454 662 470 654 454 b 460 473 588 454 519 445 b 440 461 450 479 442 473 b 440 449 440 457 442 450 b 439 424 428 441 436 433 b 428 417 435 422 430 420 b 469 350 417 387 442 360 b 597 324 509 335 554 331 b 571 261 589 301 585 279 b 403 95 525 196 470 139 b 208 88 346 58 251 9 b 200 383 160 173 182 293 b 262 575 213 449 237 512 b 406 816 297 662 346 744 b 527 926 441 859 481 896 b 658 973 568 952 609 971 b 708 930 691 975 715 966 b 650 821 700 888 680 850 b 582 787 631 803 609 789 b 564 781 576 786 570 784 b 562 760 556 776 554 763 b 596 733 576 753 580 736 b 605 725 600 732 603 729 b 627 709 609 715 618 712 b 701 712 651 698 678 700 b 749 747 719 721 735 733 b 804 904 789 788 812 847 b 689 1047 795 967 745 1020 b 346 967 579 1100 432 1039 b 48 539 212 856 110 701 b 74 90 -8 393 -33 217 b 414 22 158 -11 298 -48 b 511 100 449 45 482 71 b 526 105 515 103 518 109 b 523 87 525 99 524 93 b 500 -19 515 52 507 16 b 498 -41 498 -26 497 -34 b 528 -85 499 -62 506 -79 b 560 -97 539 -87 550 -91 b 603 -97 575 -111 589 -105 b 601 -73 603 -89 602 -81 l 603 -73 l 603 -97 b 611 -103 603 -103 607 -105 b 619 -90 615 -99 618 -95 b 631 -33 624 -71 627 -52 b 655 86 639 6 645 47 b 697 231 667 135 682 183 b 731 331 706 265 718 298 b 810 348 758 336 784 342 b 872 397 837 354 861 372 b 875 409 874 401 876 407 z m 758 794 l 759 792 l 757 790 b 757 793 757 791 756 792 b 758 794 757 793 758 794 z m 722 822 b 720 821 721 822 720 821 b 719 826 719 823 719 824 b 719 828 719 826 719 827 b 722 825 720 827 721 826 b 722 822 723 825 722 823 z m 721 830 b 726 831 723 831 725 831 b 727 829 726 831 727 830 b 723 827 726 828 724 827 b 719 828 722 827 720 828 l 719 829 b 721 830 720 829 720 830 z m 712 865 b 714 855 713 861 713 858 b 710 861 713 857 711 859 b 712 865 710 862 711 863 z m 714 854 b 703 846 710 851 707 848 b 714 854 705 856 705 856 z m 69 397 b 68 400 68 398 68 399 b 71 403 69 401 70 402 l 72 400 z m 256 741 l 255 742 l 257 742 z m 269 760 l 268 762 l 270 762 z m 284 782 b 285 787 284 783 284 785 b 291 790 285 788 287 788 b 284 782 288 786 286 784 z m 304 807 b 302 805 304 806 303 806 b 301 810 302 807 301 809 b 307 817 303 812 305 815 b 304 807 311 812 307 810 z m 325 832 b 319 834 324 832 322 833 l 338 855 l 342 853 b 324 832 336 846 330 839 z m 447 895 b 477 916 456 903 462 912 b 447 895 461 898 461 898 z m 501 930 b 490 924 497 928 493 926 b 487 926 489 924 488 925 b 498 933 491 928 494 931 b 501 930 498 933 499 932 z m 493 984 l 486 980 b 493 984 483 988 493 985 z m 485 979 b 365 879 445 946 405 913 b 365 886 365 881 364 885 b 469 975 395 921 430 951 b 485 979 474 979 479 982 z m 451 998 b 453 997 451 998 452 997 b 452 995 453 996 453 995 b 450 996 451 995 451 995 b 451 998 450 996 450 997 z m 427 976 b 420 975 425 975 423 975 l 430 985 b 427 976 435 979 430 977 z m 75 431 b 77 443 76 436 76 440 b 75 431 78 440 80 436 z m 78 446 b 87 464 81 452 79 460 b 78 446 85 457 86 449 z m 88 466 b 91 486 85 473 86 481 b 88 466 93 479 92 472 z m 92 489 b 98 505 93 495 91 502 b 92 489 99 499 100 492 z m 99 507 b 110 544 98 520 102 533 b 99 507 113 530 109 516 z m 118 553 b 111 546 116 550 114 548 b 148 636 118 578 133 607 b 335 904 196 734 259 825 b 381 943 349 918 361 935 b 419 974 390 957 403 968 b 418 970 419 972 419 970 b 382 941 407 960 394 950 b 373 929 380 937 376 932 b 160 639 285 845 216 747 b 118 553 145 611 132 581 z m 698 495 b 682 459 697 481 691 469 b 698 495 684 472 689 485 z m 677 238 b 668 195 674 223 671 209 b 677 238 661 211 669 224 z m 656 320 b 641 277 655 305 650 290 b 656 321 639 293 645 309 z m 627 428 b 633 425 629 428 631 426 b 526 433 597 418 560 421 b 627 428 561 431 594 430 z m 618 291 b 614 302 615 298 613 300 b 621 323 616 308 618 315 b 618 291 631 310 618 305 z m 527 404 b 612 393 554 402 581 404 b 533 398 586 391 559 392 b 527 404 531 398 529 402 z m 535 357 l 602 349 b 535 357 575 341 555 351 z m 531 -27 b 527 -38 530 -31 528 -34 l 524 -37 b 524 -9 523 -28 523 -19 b 566 152 529 32 553 121 b 566 132 567 145 567 138 b 539 23 557 96 548 60 b 531 -27 536 7 534 -10 z m 591 98 b 562 -26 580 57 571 16 b 557 -7 553 -20 556 -13 b 570 62 561 16 565 40 b 607 194 582 106 595 150 b 627 228 610 208 617 219 b 591 98 614 180 601 139 z m 635 80 b 609 -36 626 42 618 3 b 613 15 604 -18 610 -2 b 656 182 624 71 638 127 b 667 193 658 187 659 194 b 635 80 657 155 645 118 z m 678 242 l 680 265 b 678 242 683 257 685 249 z m 683 269 b 687 284 686 274 687 279 b 683 269 689 274 689 272 z m 688 286 b 697 296 691 289 694 292 b 688 286 696 291 693 287 z m 699 300 b 699 304 699 301 699 303 b 700 303 699 304 700 303 b 699 300 700 302 699 301 z m 713 478 l 712 473 l 713 477 b 721 485 715 480 718 483 b 713 478 722 480 717 479 z m 723 487 l 726 493 b 723 487 728 488 727 487 z "},"H":{"ha":918,"x_min":0,"x_max":0,"o":"m 971 1012 b 952 1035 957 1014 956 1026 b 919 1056 946 1049 937 1059 b 911 1060 916 1056 913 1057 b 893 1068 908 1067 901 1070 b 877 1056 887 1066 881 1061 b 850 1006 867 1040 860 1022 b 840 995 847 1002 844 998 b 860 1045 840 1014 851 1029 b 864 1069 863 1052 870 1058 b 852 1068 860 1069 855 1070 b 831 1050 844 1063 837 1057 b 790 960 812 1023 801 991 b 660 576 744 833 697 706 b 637 487 652 547 644 517 b 604 439 633 471 627 439 b 554 439 587 439 570 439 b 493 438 533 439 513 438 b 372 437 453 438 412 435 b 374 472 358 437 372 465 b 389 511 379 485 385 498 b 415 577 398 533 406 555 b 517 818 447 658 479 739 b 575 951 537 862 556 906 b 584 981 579 961 583 971 b 580 997 585 987 584 993 b 564 998 577 1000 570 998 b 559 1020 564 1005 562 1013 b 522 1044 551 1034 538 1043 b 507 1049 517 1045 509 1046 b 466 1066 496 1063 478 1059 b 421 1068 450 1076 436 1071 b 287 1023 376 1056 331 1041 b 148 939 237 1002 192 971 b 55 843 112 913 80 880 b 1 672 19 792 -6 737 b 71 543 8 622 32 576 b 102 526 79 534 90 528 b 116 542 110 525 120 533 b 105 560 113 549 109 555 b 97 647 85 585 83 619 b 151 732 112 677 130 705 b 318 877 197 790 256 836 b 333 879 322 880 327 885 b 258 658 308 805 282 732 b 186 433 233 583 210 508 b 110 428 159 431 135 430 b 86 423 102 427 94 425 b 83 414 84 421 82 417 b 89 407 83 411 87 407 b 121 408 100 407 110 408 b 170 411 137 409 153 410 b 154 403 166 406 160 403 b 105 400 138 401 121 401 b 91 400 100 399 95 400 b 76 388 82 399 75 393 b 93 377 78 381 85 376 b 110 380 98 378 104 379 b 169 380 129 383 149 383 b 150 372 164 375 157 371 b 87 370 129 371 108 371 b 73 347 71 369 67 362 b 81 336 75 343 78 339 b 107 334 90 335 99 335 b 128 334 114 334 121 335 b 148 332 135 334 141 333 b 78 324 126 327 104 330 b 152 308 102 304 129 320 b 119 169 140 261 129 215 b 98 72 112 137 105 105 b 89 16 94 54 92 35 b 89 -72 84 -13 84 -43 b 110 -89 91 -84 97 -91 b 112 -58 118 -79 113 -69 b 117 -28 112 -49 106 -39 b 122 -69 119 -43 120 -56 b 126 -89 122 -76 123 -83 b 140 -98 128 -93 134 -95 b 152 -19 148 -73 139 -48 b 154 -83 153 -46 153 -64 b 183 -101 155 -101 166 -108 b 193 -92 188 -99 191 -96 b 204 -92 198 -79 200 -91 b 218 -80 214 -95 217 -87 b 235 -4 224 -55 229 -30 b 279 178 249 56 264 117 b 299 245 285 200 292 223 b 321 308 306 266 312 287 b 335 314 324 315 328 314 b 358 314 343 314 351 314 b 528 320 415 316 471 318 b 570 322 542 321 556 321 b 587 311 579 323 589 322 b 559 197 580 273 568 235 b 507 -45 539 117 519 37 b 507 -83 505 -58 505 -71 b 532 -97 508 -93 514 -96 b 538 -74 534 -89 536 -82 b 541 -81 539 -76 540 -79 b 558 -103 543 -91 544 -105 b 569 -79 569 -101 565 -87 b 570 -76 569 -78 569 -76 b 576 -72 572 -74 574 -73 b 578 -86 576 -77 577 -82 b 580 -102 578 -92 579 -98 b 613 -102 590 -107 603 -107 b 640 -88 623 -99 632 -95 b 653 -59 647 -81 649 -69 b 654 -52 654 -57 654 -55 b 736 281 676 60 708 170 b 751 326 740 296 746 310 b 867 332 790 328 829 330 b 870 338 868 332 869 336 l 856 348 b 872 351 863 349 868 349 b 888 371 882 353 889 361 b 871 384 888 383 879 383 b 859 389 867 386 863 387 b 880 394 866 390 873 392 b 887 404 883 396 886 400 b 880 411 887 406 882 411 b 834 414 865 412 849 414 b 788 417 819 415 803 412 b 841 418 806 418 823 418 b 880 433 856 416 871 422 b 818 440 861 444 839 440 b 788 450 810 440 788 438 b 793 472 789 457 791 465 b 830 588 803 511 818 550 b 871 710 843 629 856 669 b 964 962 900 794 933 878 b 973 1000 968 974 971 987 b 971 1012 974 1004 972 1012 z m 172 921 l 172 918 l 169 917 b 169 920 169 918 168 919 b 172 921 169 920 171 920 z m 58 789 b 56 787 58 788 57 788 b 54 792 56 789 54 791 b 59 795 55 793 57 794 b 58 789 59 793 59 791 z m 67 801 b 59 796 65 799 62 797 b 59 799 59 797 59 798 b 139 892 77 836 104 869 b 139 886 139 890 140 887 b 67 801 115 857 91 829 z m 95 776 b 101 795 93 789 95 793 b 95 776 99 791 98 786 z m 102 796 b 110 814 104 802 107 808 b 197 894 134 846 163 873 b 194 885 196 890 196 886 b 110 800 166 856 138 828 b 102 796 108 798 105 797 z m 126 737 l 127 742 b 128 739 128 741 128 740 b 126 737 128 739 127 738 z m 202 816 b 141 758 182 797 161 777 b 199 821 155 784 177 803 b 203 819 201 820 202 819 b 202 816 203 818 203 817 z m 223 911 l 221 912 l 223 913 z m 156 9 b 154 6 155 8 155 7 l 154 12 b 156 12 155 12 156 12 b 156 9 156 11 156 10 z m 502 854 l 503 859 l 503 855 b 493 844 500 851 496 848 b 502 854 493 850 498 851 z m 470 805 b 491 841 475 818 479 832 b 465 771 483 818 474 794 b 368 524 433 689 401 606 b 356 507 366 518 367 507 b 385 593 365 535 374 565 b 470 805 412 664 441 734 z m 353 479 b 343 463 350 474 347 468 b 353 479 342 471 343 478 z m 354 481 b 356 505 348 488 349 498 b 354 481 360 497 355 489 z m 455 936 b 451 931 454 935 453 933 l 453 938 b 455 936 454 937 455 936 z m 450 928 b 443 916 449 923 449 917 b 450 928 443 922 442 928 z m 441 913 l 431 878 b 441 913 426 892 433 902 z m 220 281 l 218 279 b 217 282 218 280 217 281 b 220 283 218 282 219 283 z m 226 303 b 225 304 226 304 225 304 b 225 307 225 305 225 306 b 227 306 226 306 227 306 b 226 303 227 305 227 304 z m 225 435 b 243 497 225 457 231 478 b 225 435 244 476 235 458 z m 244 499 b 248 525 245 508 246 517 b 349 823 277 626 311 725 b 381 905 359 850 370 878 b 393 922 384 911 388 917 b 391 897 401 911 394 904 b 311 682 365 825 337 754 b 257 525 292 630 275 577 b 244 499 254 516 254 505 z m 256 408 l 256 410 l 259 409 z m 279 461 b 264 434 276 453 275 443 b 267 457 264 442 265 449 b 388 797 303 572 341 686 b 419 868 398 821 408 845 b 431 876 421 874 424 878 b 279 461 380 738 330 600 z m 343 461 b 341 447 342 457 342 453 b 343 461 338 456 338 457 z m 351 336 l 351 338 l 400 338 l 400 336 z m 352 380 b 432 381 379 388 406 382 b 352 380 405 379 379 378 z m 469 337 l 456 337 l 456 338 l 469 338 z m 364 406 l 363 410 b 375 415 367 412 371 414 b 604 413 409 420 580 420 z m 824 968 b 839 993 828 977 829 988 b 835 970 838 985 837 978 b 761 762 811 901 785 831 b 704 595 741 706 723 650 b 699 585 703 591 701 588 b 703 613 699 595 701 604 b 824 968 738 733 776 852 z m 698 581 b 687 567 698 574 696 568 b 698 581 691 572 694 576 z m 684 536 b 677 517 682 529 680 523 b 684 536 677 524 676 532 z m 658 452 b 657 455 658 453 657 454 b 659 457 658 456 659 457 l 660 455 b 658 452 660 454 659 453 z m 666 475 l 665 477 l 667 477 z m 672 508 b 675 510 673 509 674 510 l 673 506 b 672 508 673 507 672 508 z m 686 540 b 687 565 686 548 686 557 b 686 540 691 557 691 548 z m 693 451 b 696 454 694 452 695 453 b 695 449 696 452 695 450 b 693 451 694 449 693 451 z m 709 480 b 698 457 706 472 707 462 b 703 484 699 466 701 475 b 812 823 734 599 770 712 b 836 861 818 837 819 854 b 835 870 835 864 835 867 b 835 873 835 871 835 872 b 836 870 835 872 836 871 b 836 861 836 867 836 864 b 812 795 828 839 819 817 b 709 480 777 690 744 585 z m 772 488 b 771 491 771 489 771 490 b 773 492 771 492 772 492 z m 779 516 l 779 528 b 782 517 780 524 781 521 z m 780 531 b 789 547 783 537 786 542 b 780 531 790 539 789 533 z m 794 553 b 790 549 794 551 792 550 b 791 562 790 553 790 558 b 838 711 806 611 822 661 b 847 723 839 716 840 722 b 845 703 847 717 846 710 b 794 553 828 653 811 603 z m 847 725 b 861 764 846 739 851 754 b 847 725 862 750 857 735 z m 862 767 b 876 796 861 778 867 789 b 862 767 869 783 869 774 z m 878 813 l 879 816 l 880 814 z m 893 1016 b 893 1021 893 1018 893 1019 b 894 1023 893 1022 894 1022 b 896 1019 895 1022 896 1021 b 893 1016 896 1018 894 1017 z m 895 1024 b 907 1044 898 1029 901 1035 b 895 1024 906 1031 905 1023 z "},"I":{"ha":451,"x_min":0,"x_max":0,"o":"m 563 1023 b 287 1023 498 1113 366 1056 b 148 939 237 1002 192 971 b 55 843 112 913 80 880 b 1 672 19 792 -6 737 b 71 543 8 622 32 576 b 102 526 79 534 90 528 b 116 542 110 525 120 533 b 105 560 113 549 109 555 b 97 647 85 585 83 619 b 151 732 112 677 130 705 b 245 824 178 766 210 797 b 353 880 274 848 312 884 b 355 879 354 880 355 879 b 355 876 356 878 356 877 b 348 855 353 869 350 862 b 292 701 328 804 309 753 b 252 576 278 660 265 618 b 213 458 239 537 224 498 b 164 280 196 399 180 339 b 99 -22 137 180 115 80 b 97 -75 97 -40 96 -57 b 109 -90 97 -83 102 -91 b 142 -100 121 -87 134 -91 b 160 -50 157 -86 149 -66 b 164 -102 161 -69 163 -86 b 219 -96 186 -113 201 -94 b 239 -42 232 -80 235 -60 b 352 362 271 94 308 229 b 378 439 360 387 369 413 b 447 641 401 506 422 574 b 547 903 479 728 514 815 b 572 977 556 927 564 952 b 563 1023 577 993 574 1010 z m 172 921 l 172 918 l 169 917 b 169 920 169 918 168 919 b 172 921 169 920 171 920 z m 58 789 b 56 787 58 788 57 788 b 54 792 56 789 54 791 b 59 795 55 793 57 794 b 58 789 59 793 59 791 z m 67 801 b 59 796 65 799 62 797 b 59 799 59 797 59 798 b 139 892 77 836 104 869 b 139 886 139 890 140 887 b 67 801 115 857 91 829 z m 95 776 b 101 795 93 789 95 793 z m 102 796 b 110 814 104 803 107 808 b 197 894 134 846 163 873 b 194 885 196 890 196 886 b 110 800 166 856 138 828 b 102 796 108 798 105 797 z m 126 737 l 127 742 b 128 739 128 741 128 740 b 126 737 128 739 127 738 z m 202 816 b 141 758 182 797 161 777 b 199 821 155 784 177 803 b 203 819 201 820 202 820 b 202 816 203 818 203 817 z m 223 911 l 221 912 l 223 913 z m 435 972 b 433 955 435 966 434 960 b 267 515 369 811 319 663 b 436 972 282 602 399 921 z m 221 370 l 222 372 l 223 370 z m 239 431 b 248 451 241 438 239 448 b 239 431 246 444 247 435 z m 251 483 b 251 480 251 482 251 481 b 251 483 251 481 251 482 b 255 487 253 484 254 486 b 257 490 256 488 257 489 b 257 486 257 489 257 487 b 251 483 255 485 253 484 z m 257 356 l 258 359 l 258 356 z m 265 382 l 265 395 b 267 382 266 391 266 387 z m 283 429 b 273 402 280 420 277 411 b 265 398 272 400 268 399 b 290 474 273 423 282 449 b 432 879 332 611 377 747 b 464 951 442 903 453 927 b 476 962 466 956 471 960 b 473 949 475 958 474 953 b 283 429 404 778 341 604 z m 365 504 b 358 482 364 496 370 487 b 358 473 358 479 358 476 b 359 470 359 472 359 471 b 357 473 358 471 358 472 b 358 482 357 476 358 479 b 365 504 360 490 362 497 b 374 520 368 509 371 515 b 373 510 375 516 375 513 b 365 504 371 507 368 505 z m 375 522 b 379 547 376 530 378 539 l 379 547 b 380 534 379 543 380 539 b 375 522 381 529 380 525 z m 379 547 b 385 568 385 552 387 561 l 385 568 b 379 547 390 552 390 552 z m 385 568 b 393 587 392 573 392 580 b 385 568 398 574 397 573 z m 508 863 b 497 841 504 856 500 849 b 408 602 467 762 438 682 b 393 589 406 595 403 587 b 419 657 401 612 410 634 b 489 842 442 719 465 780 b 498 861 491 848 494 855 b 508 863 499 863 504 862 b 505 873 507 866 506 870 b 508 883 505 875 506 877 z "},"J":{"ha":592,"x_min":0,"x_max":0,"o":"m 632 869 b 631 900 632 879 631 890 b 559 1065 627 947 617 1053 b 536 1065 551 1066 544 1066 b 327 995 463 1055 392 1031 b 157 862 264 960 203 919 b 146 848 154 857 150 852 b 89 678 109 797 83 744 b 155 547 94 627 117 581 b 186 529 163 538 174 532 b 200 545 194 528 204 536 b 189 564 197 552 193 558 b 215 702 156 610 187 663 b 336 824 249 748 290 789 b 448 871 369 849 407 865 b 466 869 451 871 467 873 b 404 550 452 762 431 655 b 297 246 377 446 341 344 b 152 14 259 163 214 82 b 146 9 151 12 149 10 b 136 21 141 9 137 16 b 275 399 112 154 184 305 b 362 480 302 428 333 453 b 372 491 366 483 370 486 l 372 491 b 369 503 374 495 371 499 b 336 522 363 515 350 522 b 316 518 329 522 323 520 b 153 408 253 496 201 453 b 6 146 78 338 26 246 b 25 -14 -6 92 1 35 b 246 -71 67 -95 170 -135 b 368 62 292 -32 333 13 b 457 208 402 108 431 157 b 568 481 502 295 539 387 b 632 869 606 604 636 738 z m 265 922 b 266 920 265 921 266 920 l 263 919 b 262 921 263 919 262 921 b 265 922 263 922 264 922 z m 149 794 b 147 791 149 793 147 792 b 145 797 146 793 144 795 b 149 799 145 798 147 798 b 149 794 149 797 149 796 z m 158 805 b 150 800 155 803 153 801 b 150 803 149 801 149 802 b 232 894 168 840 197 872 b 232 888 232 892 233 889 b 158 805 207 860 182 833 z m 185 780 b 191 798 183 792 185 797 z m 201 803 b 193 800 198 801 195 800 b 201 817 195 806 198 812 b 290 895 226 849 256 875 b 287 886 289 890 289 887 b 201 803 258 858 230 830 z m 215 740 l 216 745 b 217 742 217 744 218 743 b 216 740 217 741 216 740 z m 293 817 b 230 760 272 798 251 779 b 290 822 246 786 268 804 b 294 819 292 821 294 820 b 293 817 294 818 294 817 z m 181 374 b 188 380 183 376 185 378 b 189 377 188 379 188 378 l 182 371 b 181 374 182 372 181 374 z m 169 362 b 142 319 159 335 158 335 b 169 362 143 337 156 346 z m 117 332 l 118 322 b 114 331 117 325 115 328 z m 43 171 b 45 190 38 181 39 186 b 43 171 45 185 44 179 z m 47 193 l 51 214 b 47 193 55 207 53 198 z m 57 217 b 52 217 56 216 54 217 b 68 249 55 228 57 241 b 57 217 70 236 63 227 z m 77 258 b 68 250 74 255 71 253 b 85 287 68 265 77 276 b 93 287 86 288 90 288 b 77 258 88 277 83 268 z m 94 289 b 91 297 92 291 91 294 b 96 305 92 301 94 303 b 94 289 96 300 95 294 z m 98 308 b 118 321 104 322 106 323 b 106 312 114 318 111 315 b 98 308 104 311 101 309 z m 110 265 b 108 267 109 266 108 266 b 107 274 107 270 107 272 b 110 268 108 272 109 270 b 110 265 110 267 110 266 z m 108 275 b 117 284 111 278 114 281 b 108 275 120 277 115 275 z m 118 286 b 132 311 123 294 127 303 b 141 317 134 314 138 316 b 123 286 140 304 131 295 b 118 286 122 285 120 286 z m 437 543 l 437 542 b 436 542 437 542 437 542 b 444 571 439 552 442 561 b 437 543 445 561 449 550 z m 455 585 b 445 572 453 579 451 574 b 491 821 465 654 480 737 b 501 887 493 843 497 865 b 509 902 503 893 505 898 b 508 918 509 907 508 913 l 509 918 l 509 902 b 505 871 508 892 506 881 b 455 585 502 773 481 679 z m 472 514 b 472 508 472 512 472 510 b 471 513 471 510 471 512 b 479 540 474 522 476 531 b 472 514 484 529 484 520 z m 530 716 b 490 551 522 660 509 605 b 479 542 488 546 486 541 b 523 745 494 610 508 677 b 538 792 526 761 531 777 b 530 716 535 767 533 742 z m 556 557 b 559 565 557 560 558 562 b 561 552 560 561 560 557 b 556 557 558 555 556 556 z m 593 701 b 568 576 588 659 580 617 b 560 568 567 573 563 570 b 589 729 570 622 579 676 l 594 729 b 593 701 594 719 594 710 z "},"K":{"ha":936,"x_min":0,"x_max":0,"o":"m 1093 1022 b 1017 1079 1081 1048 1047 1075 b 998 1061 1005 1080 1001 1071 b 921 942 982 1015 952 978 b 818 835 889 904 854 869 b 505 570 718 742 614 653 b 495 563 502 568 498 566 b 487 566 491 561 486 557 b 492 586 488 573 490 580 b 607 904 525 694 565 800 b 638 996 619 934 628 965 b 600 1054 647 1022 621 1043 b 459 1066 558 1077 505 1074 b 186 943 360 1047 266 1005 b 7 712 109 885 31 808 b 1 632 0 686 -2 658 b 78 490 8 577 36 526 b 112 471 87 481 99 474 b 125 493 126 470 131 483 b 99 544 116 510 102 526 b 107 604 95 565 98 586 b 166 697 123 637 143 668 b 269 799 196 735 231 769 b 390 860 301 825 345 863 b 269 493 345 740 304 618 b 201 221 244 403 223 312 b 160 -2 183 147 170 73 b 158 -67 158 -24 158 -45 b 161 -84 158 -73 159 -79 b 171 -98 162 -90 166 -95 b 188 -99 176 -101 183 -102 b 207 -103 197 -96 201 -99 b 218 -104 210 -104 214 -105 b 233 -68 230 -94 220 -77 l 240 -108 b 253 -109 245 -109 249 -109 b 264 -108 257 -110 260 -109 b 317 -55 303 -97 306 -96 b 350 82 330 -10 340 36 b 414 332 369 166 390 249 b 430 362 417 343 423 353 b 472 389 443 372 457 382 b 480 392 474 390 477 391 b 493 379 489 394 491 386 b 571 166 514 306 540 235 b 710 -55 606 86 653 11 b 838 -104 744 -95 786 -113 b 934 -39 879 -96 909 -72 b 934 -19 939 -33 939 -25 b 915 -13 930 -13 922 -10 b 879 -2 900 -19 890 -12 b 720 267 800 67 760 172 b 660 436 697 322 679 380 b 639 503 652 458 646 480 b 727 568 671 526 699 546 b 963 773 810 631 888 700 b 1052 876 995 806 1025 840 b 1093 944 1068 898 1082 920 b 1093 1022 1105 968 1105 997 z m 188 905 b 189 902 189 904 189 903 l 186 901 b 185 904 186 902 185 903 b 188 905 186 905 187 905 z m 64 761 b 62 758 64 760 63 759 b 60 764 61 760 59 762 b 64 767 60 765 62 766 b 64 761 64 765 64 763 z m 74 773 b 65 768 71 771 68 769 b 65 771 65 769 65 770 b 153 873 84 812 115 848 b 153 867 153 871 154 868 b 74 773 126 836 100 804 z m 104 746 b 111 767 102 760 104 765 b 104 746 109 762 108 757 z m 112 769 b 121 788 114 775 117 782 b 217 876 147 823 180 853 b 213 866 215 871 215 868 b 121 772 183 834 152 803 b 112 769 118 770 115 769 z m 139 703 l 140 709 b 141 706 140 708 141 707 b 139 703 141 705 140 704 z m 222 790 b 155 726 200 769 177 747 b 219 796 171 755 195 776 b 223 793 221 794 222 794 b 222 790 223 792 223 791 z m 306 500 b 306 490 306 496 306 493 b 307 487 306 489 306 488 b 305 490 306 488 306 489 b 306 499 305 493 306 496 b 313 510 308 503 311 507 b 306 500 317 503 312 501 z m 578 907 l 578 908 b 579 907 578 908 578 907 b 570 891 576 902 573 897 b 578 907 569 898 574 902 z m 569 889 l 564 874 b 569 889 563 880 561 886 z m 556 868 b 563 871 556 869 560 870 b 549 844 558 862 554 853 b 556 868 551 852 553 860 z m 321 530 b 428 871 347 649 386 760 b 454 934 436 892 445 913 b 467 954 458 941 462 947 b 470 937 476 947 472 942 b 378 696 439 856 408 776 b 330 553 361 648 346 600 b 321 530 328 545 324 538 z m 349 466 b 350 488 340 474 346 481 b 349 466 354 481 353 473 z m 367 517 b 358 494 364 509 361 501 b 351 490 357 492 354 491 b 372 572 358 517 364 545 b 512 949 410 701 456 827 b 523 966 515 955 519 961 b 528 965 523 967 525 966 b 523 950 527 960 525 955 b 459 786 499 896 477 841 b 367 517 428 696 398 607 z m 444 533 l 440 534 b 444 544 441 537 443 540 z m 445 547 b 452 566 446 554 445 562 b 445 547 453 558 455 551 z m 474 611 b 453 568 468 596 466 579 b 455 588 453 575 454 581 b 538 825 480 668 506 748 b 546 837 540 829 543 833 b 540 808 545 827 543 818 b 474 611 518 742 496 676 z m 568 250 b 561 259 565 253 563 256 b 551 280 557 266 554 273 l 551 294 l 552 294 b 551 280 552 289 551 284 b 568 250 567 276 569 264 z m 618 137 b 607 152 614 141 610 146 b 571 232 594 178 582 205 b 569 248 569 238 568 243 b 576 243 571 247 575 245 b 618 145 590 211 604 178 b 618 137 618 142 619 139 z m 628 118 l 628 125 b 620 133 624 125 620 129 l 629 124 b 628 118 629 122 628 120 z m 677 277 b 688 261 685 275 685 267 b 744 141 707 221 724 181 b 801 35 762 106 781 72 b 793 39 798 37 795 37 b 677 267 741 108 705 186 b 677 277 676 271 676 274 z m 676 279 b 669 288 674 282 671 285 b 658 308 665 295 662 302 b 676 279 674 304 676 292 z m 654 336 b 653 331 654 334 653 333 b 658 308 665 326 660 317 b 651 331 656 316 654 324 z m 667 207 b 699 132 677 182 688 157 b 710 118 702 127 705 122 b 716 103 708 112 711 106 l 716 102 b 715 103 716 102 715 103 b 710 118 706 105 709 112 b 694 124 704 117 697 119 b 677 156 688 135 683 145 b 608 332 648 212 625 271 b 605 353 607 339 606 346 b 666 207 626 304 646 256 z m 834 760 l 832 762 l 840 772 b 844 769 841 771 842 770 z m 854 832 b 875 855 861 840 867 847 b 895 875 881 862 888 868 b 894 863 901 869 897 866 b 858 828 882 851 870 839 z m 939 788 l 955 804 b 939 788 958 790 947 790 z m 881 806 b 968 897 893 827 934 871 b 881 806 935 848 907 820 z m 911 883 b 910 891 910 887 909 890 b 974 966 931 916 953 941 b 911 882 960 934 938 905 z m 983 829 b 981 831 983 829 981 830 b 993 840 982 836 985 838 b 983 829 988 834 986 831 z "},"L":{"ha":513,"x_min":0,"x_max":0,"o":"m 775 -55 b 768 -30 775 -46 773 -37 b 762 -10 763 -23 758 -19 b 760 -7 762 -10 761 -8 b 742 0 756 -2 749 1 b 730 -5 738 -1 734 -3 b 640 -16 701 -16 671 -21 b 536 10 604 -13 569 -4 b 373 105 477 34 422 66 b 324 152 355 119 339 135 b 334 172 328 160 330 166 b 443 397 373 245 410 320 b 507 553 466 448 487 501 b 608 879 548 659 585 767 b 622 986 616 914 621 950 b 573 1056 622 1021 602 1042 b 329 1008 489 1095 402 1051 b 79 668 212 941 62 820 b 150 537 85 617 111 570 b 182 520 158 528 169 522 b 196 536 190 519 200 527 b 184 555 192 543 189 549 b 177 643 165 580 162 614 b 366 854 219 729 288 799 b 427 881 384 867 404 879 b 425 847 438 881 426 851 b 411 797 420 830 415 814 b 310 487 380 693 346 590 b 249 321 291 431 271 376 b 206 227 246 314 214 225 b 191 230 201 228 196 229 b 43 189 138 241 83 226 b 13 29 -4 148 -10 85 b 101 -40 27 -9 61 -35 b 216 1 146 -44 186 -35 b 258 54 231 18 244 36 b 273 71 262 59 267 64 b 355 -15 302 40 328 12 b 501 -135 399 -60 445 -103 b 659 -175 550 -162 602 -178 b 775 -55 722 -171 779 -120 z m 252 922 b 253 919 253 921 253 920 l 250 918 b 250 921 250 919 249 920 b 252 922 250 921 251 922 z m 137 788 b 135 785 137 787 136 786 b 133 791 134 787 132 790 b 137 794 133 792 136 793 b 137 788 137 792 137 790 z m 146 800 b 138 795 144 798 141 796 b 138 797 138 796 138 797 b 219 892 156 836 184 869 b 219 887 219 890 220 888 b 146 800 195 858 170 829 z m 174 775 b 180 794 172 788 174 792 z m 182 795 b 190 813 184 802 186 808 b 279 895 214 846 244 874 b 276 886 277 890 277 887 b 190 799 247 856 219 827 b 182 795 187 797 185 796 z m 207 735 b 207 740 207 736 207 738 b 208 737 208 739 209 738 b 207 735 208 736 207 735 z m 284 815 b 221 756 263 795 242 776 b 281 821 236 782 258 802 b 284 818 283 819 284 819 b 284 815 285 817 285 816 z m 345 393 l 345 385 l 344 385 l 344 393 b 359 422 349 402 354 412 b 345 393 362 410 356 398 z m 360 424 b 381 487 367 445 374 466 b 454 693 405 556 430 624 b 463 705 456 698 456 704 b 460 682 462 697 461 690 b 373 440 436 600 407 519 b 360 424 370 434 370 425 z m 463 706 b 467 727 461 713 463 721 b 463 706 470 720 471 712 z m 468 729 b 472 740 469 733 471 737 b 468 729 477 733 473 731 z m 439 467 l 439 466 b 438 467 439 466 439 467 b 448 476 441 470 445 473 b 439 467 449 470 444 469 z m 534 703 b 533 702 534 703 533 703 l 533 704 z m 531 701 b 526 683 527 696 528 689 b 531 701 524 689 526 696 z m 524 680 b 517 665 522 675 524 667 b 524 680 516 672 518 678 z m 505 642 b 516 662 508 649 512 656 b 510 633 515 652 513 643 b 460 495 494 587 477 541 b 449 478 458 489 457 481 b 466 535 454 497 460 516 b 505 642 479 570 492 606 z m 355 528 b 443 805 384 621 414 713 b 466 879 451 830 457 855 b 479 897 468 886 469 895 b 478 911 479 902 478 906 l 479 911 l 479 897 b 442 761 467 851 454 806 b 360 513 419 677 391 594 b 348 491 356 505 352 498 b 355 528 345 504 351 516 z m 341 480 b 347 488 342 483 344 485 b 342 468 345 481 344 475 b 330 461 341 463 335 459 b 341 480 333 467 337 474 z m 330 461 l 330 461 b 325 440 331 453 337 444 l 325 439 b 324 440 325 439 324 439 b 330 461 326 447 328 454 z m 154 188 b 153 186 154 187 154 186 b 152 186 153 186 152 186 z m 149 184 b 118 173 141 175 129 177 b 149 184 126 185 137 187 z m 127 211 b 128 208 127 210 128 209 l 94 186 l 94 186 b 91 198 93 189 93 192 z m 89 190 b 94 186 91 189 92 188 b 88 187 92 186 90 187 b 84 189 86 188 85 188 b 89 190 85 190 88 191 z m 156 114 l 153 107 b 124 56 145 89 136 71 b 107 34 119 48 113 41 b 88 22 103 28 96 23 b 67 34 79 22 71 26 b 86 75 63 46 76 64 b 130 111 98 90 113 102 b 156 117 133 112 156 124 b 156 114 156 116 156 115 z m 161 141 l 155 140 l 152 140 b 155 143 153 141 154 143 b 161 141 157 142 160 142 z m 316 397 l 316 398 l 317 397 z m 604 -143 b 634 -149 617 -141 625 -141 b 604 -143 624 -151 613 -149 z m 643 -92 b 608 -80 630 -93 617 -89 b 650 -83 622 -79 636 -80 b 643 -92 652 -91 647 -91 z m 620 -47 b 685 -48 642 -44 664 -44 b 620 -47 662 -57 645 -56 z "},"M":{"ha":1399,"x_min":0,"x_max":0,"o":"m 1508 1017 b 1462 1059 1492 1030 1494 1063 b 1458 1064 1461 1059 1459 1062 b 1441 1073 1455 1071 1448 1074 b 1427 1074 1436 1072 1432 1072 b 1352 1060 1402 1085 1372 1080 b 1329 1038 1344 1053 1336 1046 b 951 500 1186 871 1065 688 b 860 346 920 449 890 398 b 819 273 847 322 834 297 b 813 278 814 264 812 273 b 836 363 817 307 828 335 b 952 709 873 479 910 595 l 953 711 b 979 784 961 735 970 760 b 1048 971 1002 846 1025 908 b 1055 998 1051 979 1054 989 b 1015 1056 1056 1015 1032 1050 b 1001 1053 1011 1057 1006 1054 b 975 1068 995 1063 991 1075 b 962 1068 971 1066 966 1066 b 943 1072 956 1074 950 1072 b 859 1039 910 1072 883 1058 b 736 906 810 1001 772 954 b 522 570 656 799 587 686 b 395 330 478 491 436 411 b 338 211 375 291 354 252 b 330 198 337 206 334 202 b 327 216 320 191 326 210 b 365 344 337 259 352 302 b 406 477 378 388 392 433 b 413 501 408 485 411 493 b 530 855 451 619 491 737 b 573 994 546 901 563 946 b 541 1052 577 1017 559 1039 b 405 1053 503 1081 447 1066 b 167 930 319 1026 240 982 b 162 926 165 929 164 928 b 60 821 122 897 88 862 b 1 634 20 765 -7 706 b 77 493 8 579 35 529 b 111 474 87 484 98 477 b 127 493 121 474 131 483 b 114 512 123 500 119 506 b 106 607 93 539 90 576 b 165 699 122 639 142 671 b 267 801 195 737 229 771 b 372 861 297 824 333 858 b 360 828 368 850 364 839 b 243 489 317 717 279 603 b 223 421 236 467 230 444 b 137 84 190 310 160 198 b 120 -14 131 51 125 18 b 122 -60 119 -30 119 -45 b 145 -75 123 -71 128 -74 b 153 -17 150 -57 138 -36 b 157 -74 155 -37 155 -56 b 174 -83 158 -82 164 -87 b 190 1 179 -57 178 -29 b 191 -91 191 -32 188 -61 b 217 -91 200 -91 208 -91 b 237 -85 224 -90 230 -85 b 276 -61 256 -87 268 -77 b 289 -40 280 -54 285 -47 b 431 226 337 49 384 137 b 696 685 514 383 600 537 b 747 760 713 710 730 735 b 800 835 765 785 782 810 b 814 853 804 841 809 847 b 821 859 816 855 818 859 b 826 857 822 859 827 858 b 806 801 820 838 813 820 b 735 604 783 735 757 670 b 652 336 706 515 679 425 b 579 43 623 239 600 141 b 568 -38 574 16 571 -11 b 572 -57 567 -45 568 -51 b 588 -67 576 -62 582 -66 b 594 -58 591 -64 593 -61 b 598 -37 596 -51 597 -44 b 609 40 601 -11 603 15 b 698 388 634 158 664 273 b 834 792 738 524 782 659 b 890 930 852 838 871 884 b 900 945 893 936 896 941 b 898 927 901 939 901 933 b 812 698 869 851 839 775 b 655 196 753 533 700 366 b 607 -33 635 120 619 44 b 605 -69 605 -45 605 -57 b 616 -80 605 -75 609 -81 b 625 -71 620 -79 624 -76 b 635 -30 629 -58 632 -44 b 659 89 643 10 650 49 b 821 633 702 273 756 455 b 834 663 825 643 829 653 b 843 668 835 665 840 666 b 833 640 840 658 836 649 b 758 402 808 561 782 482 b 644 -45 712 255 674 106 b 640 -92 640 -60 638 -76 b 704 -99 661 -98 680 -105 b 762 2 723 -66 743 -33 b 1175 682 889 235 1027 462 b 1269 816 1206 728 1238 772 b 1289 832 1273 821 1284 842 b 1280 791 1294 823 1283 799 b 1230 644 1262 742 1246 693 b 1139 295 1194 529 1163 412 b 1121 185 1132 258 1126 222 b 1112 18 1112 130 1109 74 b 1131 -57 1113 -8 1120 -33 b 1167 -86 1139 -72 1148 -85 b 1203 -94 1179 -87 1190 -98 b 1259 -99 1221 -109 1239 -107 b 1282 -81 1277 -93 1281 -94 b 1279 -46 1283 -69 1282 -57 b 1267 41 1270 -18 1265 12 b 1285 200 1269 95 1275 148 b 1374 566 1307 324 1337 446 b 1492 935 1410 690 1451 812 b 1508 1000 1499 956 1503 978 b 1508 1017 1509 1006 1511 1014 z m 187 906 l 188 903 l 185 902 b 184 905 185 903 184 904 b 187 906 185 905 186 905 z m 64 762 b 62 760 64 761 62 760 b 59 765 61 762 59 764 b 64 768 60 767 62 767 b 64 762 64 766 64 764 z m 73 775 b 65 770 71 773 68 771 b 65 772 64 771 64 772 b 152 874 84 814 114 849 b 152 868 152 872 153 869 b 73 775 126 837 100 806 z m 103 748 b 110 768 101 762 104 767 b 103 748 109 764 107 759 z m 112 770 b 120 789 114 777 117 783 b 216 877 146 824 179 854 b 212 867 214 872 214 869 b 120 774 182 836 151 805 b 112 770 118 772 115 771 z m 138 705 b 139 711 138 707 139 709 b 140 708 139 710 140 709 b 138 705 140 707 139 706 z m 221 791 b 154 728 199 770 176 749 b 218 797 170 756 193 777 b 222 794 220 796 221 795 b 221 791 222 793 222 792 z m 238 358 l 237 361 l 239 361 z m 349 386 b 355 406 349 393 351 400 b 350 386 354 399 352 393 z m 357 410 b 359 436 358 419 359 427 b 357 410 360 427 364 418 z m 360 437 b 369 452 363 442 366 447 b 360 437 371 445 369 439 z m 370 455 b 377 473 370 461 369 469 b 370 455 376 466 378 458 z m 467 749 b 462 729 465 742 464 736 b 385 490 436 649 410 570 b 378 477 383 486 381 481 b 380 498 378 484 378 491 b 461 743 407 580 434 662 b 467 749 462 746 464 748 z m 450 868 b 446 845 449 860 447 853 b 450 868 444 853 438 863 z m 335 681 b 433 943 366 769 396 858 b 439 954 435 946 436 949 b 439 935 447 947 441 940 b 353 702 411 858 382 780 b 314 588 340 664 327 626 b 304 566 311 580 308 573 b 295 564 303 564 298 564 b 335 681 308 603 321 642 z m 285 526 b 295 563 288 539 291 551 b 298 555 296 560 297 557 b 278 493 296 533 290 511 b 285 526 280 504 282 515 z m 276 488 l 273 465 b 276 487 269 473 271 481 z m 245 381 b 244 386 244 383 244 384 b 246 388 244 387 245 388 b 247 383 246 387 247 385 b 245 381 247 382 246 381 z m 259 301 l 259 316 b 260 316 260 316 260 316 l 261 301 z m 260 316 b 270 331 265 319 262 329 b 260 316 270 324 269 317 z m 259 424 b 272 462 262 451 263 453 b 259 424 268 451 265 440 z m 272 334 b 275 361 273 343 274 352 b 272 334 279 352 278 342 z m 283 368 b 276 364 282 366 279 365 b 389 723 309 486 346 605 b 429 829 402 759 416 794 b 446 845 432 837 435 845 b 434 824 441 838 437 831 b 292 395 387 681 339 538 b 283 368 289 386 286 376 z m 367 209 b 372 214 369 210 371 212 b 367 209 371 211 369 210 z m 401 264 b 396 265 399 264 398 265 l 403 265 b 401 264 402 265 402 264 z m 422 306 b 423 309 423 307 423 309 b 429 308 425 309 427 308 z m 430 311 b 433 324 430 316 428 321 b 430 311 432 320 431 315 z m 435 329 b 441 338 435 333 437 336 z m 443 340 b 450 345 443 344 447 344 b 443 340 447 344 445 342 z m 454 372 b 459 386 456 377 458 382 l 459 386 b 454 372 460 381 460 375 z m 456 413 b 460 425 458 417 459 421 b 456 413 462 421 460 416 z m 462 429 b 467 444 463 434 465 439 l 467 444 b 462 429 466 438 467 433 z m 498 492 b 502 508 499 497 501 502 l 502 508 b 498 492 502 502 504 495 z m 587 644 l 586 647 l 588 647 z m 887 629 l 897 640 b 887 629 896 635 894 630 b 879 608 886 621 892 611 b 887 629 885 613 888 621 z m 879 608 b 881 596 880 604 881 600 b 875 584 882 591 880 586 b 879 608 876 592 877 600 z m 874 581 b 867 564 875 574 876 567 b 874 581 869 570 871 576 z m 866 562 b 864 536 869 553 868 544 b 866 562 859 545 863 553 z m 857 721 b 858 719 858 720 859 720 b 857 716 858 718 857 717 z m 855 711 b 845 700 853 706 852 701 b 855 711 848 703 852 707 z m 844 698 b 844 670 847 689 847 679 b 844 698 838 679 843 688 z m 754 161 b 742 134 751 152 746 143 b 743 159 741 143 742 151 b 849 515 775 279 810 398 b 858 534 851 521 855 528 b 863 534 859 534 861 534 b 754 161 827 410 791 285 z m 811 267 b 811 262 811 265 811 264 l 807 264 z m 809 187 b 816 201 811 192 813 197 l 816 201 b 809 187 816 195 815 190 z m 836 227 b 836 230 836 228 836 230 b 839 231 837 230 838 230 z m 842 234 b 845 246 843 238 844 242 b 842 234 846 242 845 237 z m 850 249 b 848 250 850 249 849 249 b 852 252 849 250 850 251 b 851 249 851 251 851 249 z m 1191 123 b 1186 53 1188 103 1188 82 b 1180 103 1180 69 1178 86 b 1201 257 1183 155 1190 206 b 1240 427 1213 314 1226 370 b 1247 435 1241 430 1244 432 b 1234 371 1243 414 1239 392 b 1191 123 1216 289 1201 207 z m 1272 511 b 1265 482 1264 502 1265 492 b 1272 511 1262 493 1256 504 z m 1268 526 l 1272 527 l 1272 511 l 1272 511 z m 1265 482 b 1253 450 1261 471 1257 460 b 1248 438 1251 446 1249 442 b 1256 479 1243 453 1250 466 b 1265 482 1257 481 1262 481 z m 1261 196 b 1241 42 1253 145 1247 93 b 1242 117 1241 67 1238 93 b 1269 285 1249 173 1260 229 b 1276 312 1271 294 1273 303 b 1285 318 1277 315 1282 316 b 1261 196 1277 277 1267 237 z m 1279 562 b 1280 559 1279 561 1280 560 b 1278 562 1279 560 1279 561 b 1279 572 1278 565 1279 568 b 1283 575 1280 572 1282 574 b 1284 577 1284 575 1284 576 b 1284 574 1284 576 1284 575 b 1279 572 1282 573 1281 572 b 1279 562 1279 568 1279 565 z m 1299 384 b 1286 321 1295 363 1290 342 b 1284 346 1281 328 1280 338 b 1299 383 1289 358 1285 374 b 1298 397 1299 388 1298 392 l 1300 397 b 1299 384 1299 393 1299 388 z m 1296 728 b 1231 507 1274 654 1252 581 b 1156 157 1197 392 1172 275 b 1149 12 1150 109 1147 60 b 1141 25 1140 13 1140 20 b 1143 135 1141 62 1140 99 b 1228 541 1157 273 1190 408 b 1289 733 1247 605 1268 669 b 1303 764 1293 744 1297 754 b 1296 728 1305 751 1299 740 z m 1307 424 b 1306 428 1307 425 1306 427 b 1307 430 1305 429 1307 429 l 1308 427 b 1308 424 1308 426 1308 425 z m 1316 789 b 1303 766 1314 780 1313 771 b 1316 808 1302 781 1310 794 b 1329 816 1318 812 1324 814 b 1316 789 1321 809 1320 798 z m 1329 817 b 1330 844 1327 826 1323 835 b 1329 817 1330 835 1330 826 z m 1331 847 b 1335 871 1333 855 1334 863 l 1335 871 b 1337 859 1336 867 1337 863 b 1331 847 1338 854 1336 849 z m 1335 871 b 1345 884 1338 876 1342 880 b 1343 876 1345 881 1345 878 b 1335 871 1341 873 1338 872 z m 1346 888 l 1351 901 b 1346 888 1352 896 1350 891 z m 1357 908 b 1353 905 1356 906 1354 905 b 1354 909 1353 906 1354 908 b 1356 912 1355 910 1355 911 b 1357 908 1356 911 1357 909 z "},"N":{"ha":879,"x_min":0,"x_max":0,"o":"m 995 999 b 973 1029 988 1009 981 1019 b 965 1032 971 1031 968 1032 b 958 1029 963 1033 960 1031 b 949 1025 955 1028 952 1026 b 930 1041 947 1045 947 1045 b 889 1060 915 1047 900 1051 b 845 1053 873 1072 859 1065 b 625 778 759 973 692 874 b 449 509 564 690 504 601 b 418 455 438 491 428 473 b 365 364 400 425 383 394 b 312 275 349 333 331 304 b 309 275 311 274 310 274 b 312 300 305 283 309 292 b 320 330 315 310 317 320 b 338 387 326 349 332 368 b 406 610 360 461 382 536 b 481 832 429 685 455 758 b 537 980 498 882 518 931 b 544 1003 540 988 543 995 b 542 1016 545 1007 545 1012 b 519 1039 535 1024 528 1035 b 463 1070 497 1046 486 1067 b 383 1059 436 1072 409 1068 b 148 939 299 1033 219 992 b 55 843 112 913 80 880 b 1 672 19 792 -6 737 b 71 543 8 622 32 576 b 102 526 79 534 90 528 b 116 542 110 525 120 533 b 105 560 113 549 109 555 b 97 647 85 585 83 619 b 151 732 112 677 130 705 b 245 824 178 766 210 797 b 349 880 273 847 309 881 b 297 736 331 832 313 784 b 231 526 273 666 251 596 b 139 204 198 419 168 311 b 78 -33 121 138 94 33 b 76 -59 76 -41 75 -50 b 81 -71 76 -64 78 -68 b 94 -74 85 -74 89 -75 b 106 -59 99 -70 95 -59 b 111 -74 108 -64 109 -69 b 119 -80 113 -77 116 -79 b 127 -75 122 -80 125 -78 b 136 -54 130 -68 134 -61 b 145 -83 140 -66 142 -74 b 201 -92 164 -85 183 -83 b 220 -82 209 -95 217 -90 b 238 -50 226 -72 233 -61 b 436 324 293 66 369 215 b 672 688 511 448 590 569 b 719 755 687 711 703 733 b 781 837 740 782 759 811 b 788 837 784 841 789 844 b 782 821 786 831 784 826 b 708 632 757 758 730 695 b 621 319 672 529 643 425 b 590 64 604 235 590 150 b 607 -43 591 28 597 -8 b 616 -65 609 -51 612 -58 b 655 -90 625 -79 633 -95 b 664 -94 659 -90 662 -92 b 686 -97 671 -100 679 -97 b 710 -105 694 -96 702 -103 b 724 -104 715 -106 719 -106 b 752 -96 733 -102 739 -86 b 760 -86 756 -93 758 -90 b 756 -37 765 -70 763 -52 b 741 46 746 -10 741 18 b 746 141 741 78 743 109 b 777 314 753 199 763 257 b 929 784 816 474 870 630 b 989 953 950 840 969 897 b 996 986 992 964 995 975 b 995 999 997 991 997 995 z m 172 921 l 172 918 l 169 917 b 169 920 169 918 168 919 b 172 921 169 920 171 920 z m 58 789 b 56 787 58 788 57 788 b 54 792 56 789 54 791 b 59 795 55 793 57 794 b 58 789 59 793 59 791 z m 67 801 b 59 796 65 799 62 797 b 59 799 59 797 59 798 b 139 892 77 836 104 869 b 139 886 139 890 140 887 b 67 801 115 857 91 829 z m 95 776 b 101 795 93 789 95 793 b 95 776 99 791 98 786 z m 102 796 b 110 814 104 802 107 808 b 197 894 134 846 163 873 b 194 885 196 890 196 886 b 110 800 166 856 138 828 b 102 796 108 798 105 797 z m 126 737 l 127 742 b 128 739 128 741 128 740 b 126 737 128 739 127 738 z m 202 816 b 141 758 182 797 161 777 b 199 821 155 784 177 803 b 203 819 201 820 202 819 b 202 816 203 818 203 817 z m 404 680 l 403 683 l 406 682 z m 500 953 l 501 950 b 499 948 500 950 500 949 b 498 951 499 949 498 950 b 500 953 498 951 499 952 z m 493 929 b 492 925 493 928 493 926 b 492 931 492 927 492 929 b 493 929 492 930 494 929 z m 491 921 b 485 904 489 915 487 909 b 491 921 482 914 483 915 z m 480 901 b 484 901 481 902 482 901 b 463 851 477 885 476 865 b 480 901 462 870 470 886 z m 462 850 b 460 834 462 844 462 839 b 419 714 447 794 433 754 b 411 704 417 710 414 707 b 457 847 424 753 439 801 b 462 850 458 848 460 849 z m 442 943 b 442 930 446 938 443 934 b 346 669 410 843 378 756 b 341 663 344 667 343 665 b 343 684 341 670 341 677 b 429 926 368 766 396 847 b 442 943 431 933 432 942 z m 373 873 b 398 930 380 891 384 911 b 400 919 399 925 401 921 b 347 781 382 873 364 827 b 340 773 345 778 342 775 b 373 873 346 808 361 840 z m 339 770 b 334 750 341 763 339 755 b 339 770 332 757 334 764 z m 340 660 b 333 643 341 654 338 647 b 340 660 334 650 332 657 z m 333 747 b 332 743 333 746 333 744 b 330 741 332 742 331 742 b 329 743 330 742 329 742 b 333 747 330 745 331 746 z m 332 640 b 325 626 333 634 330 629 b 332 640 328 631 330 635 z m 317 605 b 317 599 317 602 317 600 l 317 605 b 324 623 319 611 322 617 b 317 605 326 616 323 609 z m 323 722 b 318 713 326 715 322 715 b 323 722 320 716 321 719 z m 317 710 b 313 692 319 704 318 697 b 317 710 314 698 316 704 z m 310 195 b 309 197 309 195 309 196 b 311 199 309 197 310 198 z m 313 203 b 317 215 314 207 316 211 b 313 203 318 210 318 206 z m 318 219 b 323 232 320 223 322 227 l 324 232 b 318 219 323 227 322 223 z m 344 256 b 343 258 344 256 343 257 b 345 260 343 259 344 259 z m 346 264 b 350 279 348 269 349 274 l 350 279 b 346 264 350 274 353 267 z m 628 95 b 630 18 627 69 629 43 b 628 -7 631 9 631 1 b 622 12 626 -1 624 6 b 619 36 620 20 619 28 b 622 154 619 75 618 115 b 746 655 643 326 687 493 b 818 842 769 718 794 780 b 842 884 824 857 829 873 b 834 853 845 872 838 862 b 731 580 796 763 762 672 b 648 273 697 480 669 377 b 628 95 636 215 629 155 z m 842 789 l 837 777 b 842 789 837 782 837 787 z m 836 774 b 832 754 834 767 833 760 b 829 765 829 757 828 761 b 836 774 830 768 832 772 z m 691 291 b 665 79 676 221 667 151 b 664 26 665 63 664 46 b 653 82 656 43 652 63 b 669 236 654 134 659 186 b 815 732 701 406 749 572 b 824 750 817 738 820 744 b 831 752 825 752 828 752 b 761 548 808 684 784 617 b 691 291 733 464 710 378 z m 840 604 b 791 449 823 552 807 501 b 736 222 768 375 750 299 b 720 61 726 169 721 115 b 717 29 720 50 719 39 b 716 140 712 66 712 103 b 788 470 730 252 755 362 b 849 653 807 531 829 592 b 866 676 852 662 854 673 l 866 677 b 866 676 866 677 866 677 b 840 604 857 652 848 628 z m 844 792 b 851 805 844 797 844 803 b 844 792 849 801 846 796 z m 843 886 b 847 903 843 892 845 897 b 870 948 853 918 858 934 b 843 886 867 925 858 904 z m 872 708 l 873 711 l 874 710 z "},"O":{"ha":765,"x_min":0,"x_max":0,"o":"m 634 967 b 491 1063 598 1013 548 1050 b 321 1026 428 1076 373 1060 b 168 867 258 985 210 929 b 40 588 110 782 69 687 b 3 244 7 476 -6 360 b 17 165 5 217 10 191 b 26 117 22 149 25 133 b 27 89 26 108 26 98 b 55 -19 31 52 37 15 b 166 -96 78 -60 123 -84 b 511 40 311 -135 420 -66 b 737 628 648 199 737 415 b 634 967 738 747 710 871 z m 575 376 b 577 374 576 375 577 374 b 574 371 576 373 575 372 b 575 376 574 373 575 375 z m 267 921 b 270 922 268 922 269 922 b 269 920 270 922 269 921 b 267 919 268 920 267 919 b 267 921 267 920 266 921 z m 245 829 l 246 826 l 244 826 z m 241 883 l 228 869 b 241 883 226 878 232 881 z m 220 866 b 227 868 221 867 224 867 b 213 845 222 860 218 852 b 206 844 212 843 209 844 b 220 866 210 851 215 859 z m 195 871 b 197 871 195 871 197 871 b 197 868 197 870 197 869 l 194 869 z m 204 841 b 189 825 204 828 202 825 b 204 841 194 830 199 836 z m 188 821 l 190 802 b 188 821 186 807 186 814 z m 180 851 b 183 852 181 851 182 851 l 184 849 l 180 848 b 180 851 180 849 180 850 z m 174 796 b 190 801 177 801 184 804 l 190 801 b 183 796 187 800 185 798 b 168 790 179 792 173 789 b 174 796 170 792 172 794 z m 167 770 b 167 789 167 776 167 782 b 167 770 170 783 170 776 z m 168 826 l 169 816 l 165 825 z m 153 810 b 169 815 156 815 163 817 b 161 810 166 814 163 812 b 145 804 158 804 151 802 b 153 810 148 806 150 808 z m 166 766 b 160 753 164 762 162 757 b 166 766 159 759 158 764 z m 145 803 b 144 785 149 797 151 791 b 145 803 145 791 145 797 z m 143 783 b 138 770 141 778 139 774 b 143 783 136 775 136 780 z m 137 767 b 133 753 136 762 134 758 b 137 767 129 763 130 765 z m 132 751 b 124 740 130 748 127 744 b 132 751 122 747 125 750 z m 123 738 b 117 727 121 735 119 731 b 123 738 116 733 117 737 z m 115 725 b 108 717 113 723 110 720 b 115 725 109 721 111 724 z m 106 713 b 99 702 106 708 107 703 z m 98 700 b 94 683 100 694 100 687 b 98 700 95 689 97 694 z m 92 679 b 87 667 92 674 92 669 b 92 679 89 671 90 675 z m 85 664 b 76 650 86 658 82 652 b 85 664 79 655 82 659 z m 76 650 l 76 650 b 70 629 76 642 81 633 b 76 650 72 636 74 643 z m 48 540 b 47 543 47 541 47 542 b 49 543 47 547 48 547 b 48 540 49 543 48 541 z m 56 109 l 54 109 b 53 125 54 114 53 120 l 56 126 b 57 119 57 124 57 121 b 56 109 57 115 57 112 z m 56 587 l 56 572 l 55 572 l 55 586 b 63 607 58 593 60 600 l 63 607 b 56 587 65 599 62 591 z m 70 627 b 63 608 72 619 72 612 b 70 627 65 614 67 621 z m 72 240 b 66 233 71 238 69 237 b 66 262 65 242 66 252 b 105 385 74 305 87 346 b 115 397 107 390 111 393 b 112 381 115 392 114 386 b 72 240 95 336 81 288 z m 97 204 l 97 212 b 98 211 97 212 98 212 b 96 204 98 210 98 209 z m 108 281 b 146 397 116 321 128 360 b 171 432 152 410 157 424 b 170 423 171 429 171 426 b 101 241 142 364 119 304 b 108 281 103 255 106 268 z m 121 412 b 115 399 122 407 122 401 b 121 412 114 404 115 410 z m 122 414 b 124 421 123 417 123 419 l 127 419 z m 162 252 b 160 251 162 251 160 251 b 160 254 160 252 159 254 b 167 259 162 256 165 257 b 162 252 166 256 164 254 z m 168 259 b 173 288 166 270 161 281 b 168 259 171 279 170 269 z m 178 313 b 174 291 176 306 175 299 b 178 313 172 299 169 307 z m 173 435 l 175 439 b 176 436 175 438 176 436 b 173 435 175 436 174 435 z m 308 62 b 193 -2 292 43 213 -44 b 174 76 182 23 176 49 b 187 258 167 138 175 198 b 228 377 196 299 210 339 b 302 483 246 417 268 453 b 318 513 312 490 318 501 b 222 542 294 547 258 549 b 162 514 200 538 179 529 b 104 443 138 495 122 468 b 97 443 103 441 96 438 b 288 857 134 593 194 733 b 411 961 320 898 363 939 b 518 969 442 974 486 983 b 552 920 538 961 547 939 b 559 781 564 875 560 827 b 516 508 556 689 541 597 b 402 202 487 407 453 299 b 308 61 376 151 345 104 z m 199 368 b 179 316 196 350 189 332 b 199 368 177 336 184 355 z m 219 394 b 209 382 215 390 212 386 b 201 371 206 379 203 375 b 203 388 201 377 202 382 b 219 394 206 395 212 395 z m 214 402 l 216 403 l 219 394 z m 556 484 l 556 464 b 551 483 555 470 553 477 z m 453 206 b 436 192 449 199 446 191 b 435 187 436 190 436 189 l 435 191 b 452 221 441 201 447 211 b 532 427 481 289 513 356 b 545 463 535 439 541 451 l 556 463 b 531 380 548 435 540 408 b 453 206 512 319 486 261 z m 571 352 b 478 162 552 284 520 220 b 480 176 479 167 479 172 b 565 360 508 237 536 299 b 573 368 567 363 569 366 b 571 352 573 363 572 357 z m 574 187 b 574 190 574 188 574 190 b 578 195 575 192 576 193 b 579 190 579 193 579 191 b 574 187 579 189 576 188 z m 579 196 b 633 322 597 238 615 280 b 646 330 635 326 638 332 b 645 334 645 332 645 334 b 646 330 645 334 646 332 b 594 211 629 290 616 248 b 579 196 590 205 589 196 z "},"P":{"ha":813,"x_min":0,"x_max":0,"o":"m 782 926 b 124 919 615 1132 299 1093 b 22 770 80 876 46 826 b 4 631 5 727 -6 677 b 52 581 7 615 27 560 b 75 640 67 595 69 622 b 115 731 85 672 99 702 b 424 945 186 849 291 917 b 711 876 517 965 641 948 b 659 599 779 804 706 663 b 597 530 641 574 620 551 b 513 466 571 506 543 484 b 416 418 482 446 450 430 b 401 415 412 417 405 413 b 405 448 393 419 404 442 b 418 485 409 460 414 473 b 500 721 446 563 471 643 b 535 832 514 757 524 795 b 532 851 537 838 539 845 l 519 847 b 517 869 520 854 519 862 b 499 884 513 876 506 881 b 478 879 493 886 485 881 b 456 895 472 898 469 901 b 437 898 448 891 444 891 b 418 894 432 903 423 899 b 406 878 413 889 409 884 b 342 738 381 833 360 786 b 120 -41 249 483 160 228 b 119 -65 119 -49 118 -57 b 146 -88 120 -80 130 -86 b 156 -10 153 -63 144 -36 b 157 -56 157 -25 158 -41 b 159 -86 157 -66 158 -76 b 176 -95 160 -94 167 -97 b 181 -73 178 -88 180 -81 b 196 29 186 -39 188 -5 b 247 242 211 100 228 171 b 372 630 282 373 324 503 b 381 648 374 636 378 642 b 386 649 382 649 384 648 b 339 503 370 600 354 551 b 231 145 301 384 261 266 b 194 -74 213 73 196 1 b 194 -101 193 -83 194 -92 b 237 -100 208 -107 224 -107 b 244 -83 240 -94 241 -89 b 256 -99 247 -89 243 -99 b 267 -81 260 -94 264 -87 b 275 -44 270 -68 273 -56 b 300 84 283 -1 289 42 b 363 312 319 160 341 236 b 368 328 364 317 366 323 b 374 334 369 331 372 333 b 382 332 377 334 380 334 b 384 310 380 325 376 317 b 454 281 404 292 425 277 b 474 284 461 282 468 283 b 752 436 584 304 676 357 b 861 627 805 491 846 552 b 782 926 882 734 850 842 z m 79 828 b 77 829 79 828 77 828 b 78 831 78 830 78 831 b 80 831 79 831 80 831 b 79 828 80 830 80 829 z m 95 847 l 91 850 l 111 876 l 115 871 z m 179 933 l 164 920 b 179 933 164 930 170 933 z m 194 852 b 187 847 192 850 189 849 l 185 850 b 192 856 187 852 189 854 b 197 857 193 857 195 857 b 194 852 196 856 196 854 z m 186 904 b 136 857 174 883 152 873 b 185 905 149 877 162 896 b 208 927 187 917 199 918 b 186 905 207 916 198 906 z m 225 936 l 228 937 l 229 935 z m 464 852 l 464 849 l 463 852 z m 162 41 b 165 18 163 33 164 26 b 162 41 156 25 159 33 z m 175 69 b 171 57 173 65 172 61 b 163 44 170 52 168 47 b 174 69 166 53 163 64 l 174 88 l 176 88 z m 250 -35 l 250 -24 l 252 -24 l 252 -35 z m 258 0 b 256 6 257 2 256 4 b 258 11 256 7 257 9 b 259 7 258 10 259 8 b 258 0 259 5 258 3 z m 264 41 b 263 46 264 43 263 45 b 265 48 263 47 264 47 b 266 42 265 46 266 44 b 264 41 266 42 265 41 z m 270 57 b 269 74 270 68 269 71 l 273 73 b 270 57 273 71 272 68 z m 279 98 b 277 98 278 98 277 98 b 277 107 277 101 277 104 b 279 106 278 107 278 106 b 279 98 279 103 279 100 z m 285 149 l 286 134 l 285 134 l 285 149 b 297 167 291 153 287 165 b 294 156 297 163 296 159 b 285 149 292 153 288 151 z m 298 170 b 296 182 297 174 297 178 l 300 181 z m 304 208 l 306 221 b 308 208 307 217 307 212 z m 307 224 b 310 235 307 228 308 231 b 316 244 312 238 314 241 b 307 223 316 235 317 227 z m 317 246 b 322 267 314 253 316 262 b 317 246 325 260 323 251 z m 349 346 b 328 274 343 322 336 298 b 322 269 328 272 325 270 b 347 361 324 299 336 327 b 349 346 349 356 349 351 z m 421 581 l 423 584 l 423 581 z m 437 621 l 435 622 l 438 623 z m 444 654 b 443 654 443 654 443 654 b 444 654 443 654 443 654 z m 200 188 b 197 158 199 178 198 168 b 200 188 193 169 189 179 z m 182 115 b 179 125 180 118 179 122 b 186 133 180 129 183 132 b 184 122 186 129 185 125 b 182 115 184 120 183 117 z m 192 150 b 187 137 190 146 188 141 b 196 157 185 150 186 151 b 192 150 194 155 193 153 z m 201 206 b 201 191 206 199 204 195 z m 217 263 b 222 263 217 263 220 263 b 210 220 218 251 215 238 b 217 263 206 235 208 250 z m 232 296 b 222 265 229 285 225 275 b 231 316 216 284 226 299 b 232 296 234 310 234 302 z m 246 344 b 239 321 244 336 242 329 b 232 318 238 320 235 319 b 303 549 255 395 277 473 b 415 840 334 648 372 745 b 430 871 420 850 425 861 b 438 877 431 872 434 873 b 435 862 438 872 437 867 b 246 344 358 695 304 519 z m 410 730 b 409 731 409 731 409 731 l 410 731 z m 388 677 b 398 690 391 681 395 686 b 396 681 398 687 397 684 b 388 677 394 679 391 678 z m 387 675 b 387 650 392 667 392 657 b 387 675 382 658 388 667 z m 363 406 b 414 563 375 460 395 511 b 363 406 413 540 382 441 z m 596 481 l 594 485 b 638 528 608 499 623 513 b 685 577 653 542 667 557 b 680 558 684 570 682 564 b 604 484 660 529 634 504 b 596 481 602 483 599 482 z m 610 439 b 686 505 630 467 656 489 b 610 440 666 473 641 455 z m 677 399 l 663 397 b 677 399 667 406 672 405 z m 677 399 l 677 399 b 674 409 676 402 675 405 b 722 449 688 425 704 438 b 677 399 713 428 691 417 z "},"Q":{"ha":769,"x_min":0,"x_max":0,"o":"m 767 -117 b 762 -109 767 -114 766 -109 b 736 -124 750 -109 744 -118 b 673 -133 719 -139 694 -143 b 612 -92 650 -124 629 -110 b 531 31 580 -56 555 -12 b 527 48 528 36 526 42 b 533 59 529 52 531 56 b 622 195 567 102 596 147 b 708 407 657 262 686 333 b 727 787 746 529 757 662 b 502 1065 699 902 626 1036 b 316 1026 436 1081 371 1065 b 170 871 258 985 210 929 b 40 589 110 784 70 689 b 3 243 7 477 -6 359 b 17 163 5 216 10 189 b 26 115 23 147 25 131 b 27 86 26 105 26 96 b 123 -81 34 16 55 -48 b 409 -63 212 -126 328 -123 b 439 -50 418 -57 426 -49 b 464 -88 447 -62 456 -75 b 520 -160 480 -114 499 -138 b 611 -221 545 -187 576 -208 b 716 -218 645 -233 684 -238 b 754 -181 731 -208 744 -196 b 767 -117 767 -163 772 -140 z m 579 185 b 579 188 579 186 578 188 b 582 193 580 190 581 192 b 583 188 583 191 583 189 b 579 185 583 187 581 186 z m 638 321 b 651 329 640 326 643 331 b 650 333 651 331 650 333 l 651 329 b 598 209 634 289 621 247 b 583 194 595 203 593 194 b 638 321 601 236 620 279 z m 581 374 b 579 371 580 373 580 372 l 580 376 b 581 374 580 375 581 374 z m 269 925 b 272 926 270 926 271 926 b 271 924 272 926 272 925 b 269 923 270 924 270 923 b 269 925 269 924 269 925 z m 269 860 l 268 858 l 267 860 z m 247 832 l 248 829 l 246 829 z m 243 886 l 230 873 b 243 886 227 882 234 885 z m 229 871 b 214 848 224 863 220 855 b 208 847 213 847 210 847 b 222 869 212 854 217 862 b 229 871 223 871 226 871 z m 196 875 b 198 875 197 875 198 875 b 199 872 199 874 199 873 l 195 872 b 196 875 196 873 196 874 z m 206 844 b 191 828 206 831 203 828 b 206 845 196 834 201 839 z m 189 824 l 192 805 b 189 824 188 810 187 818 z m 182 854 b 184 855 182 855 183 855 l 185 852 l 181 851 b 182 854 181 852 181 853 z m 176 799 b 192 804 179 804 186 807 l 192 804 b 184 799 189 803 186 801 b 169 793 181 795 175 792 b 175 799 171 795 174 797 z m 154 740 b 154 740 154 740 154 740 b 154 745 154 742 154 743 b 154 740 154 743 154 742 z m 146 726 b 146 726 146 726 146 726 l 146 726 l 146 727 b 146 726 146 726 146 726 z m 133 698 l 133 698 l 133 698 b 133 698 133 698 133 698 z m 146 788 b 146 806 146 794 146 800 b 146 788 150 800 152 794 z m 139 712 b 139 712 139 712 139 712 l 139 712 l 139 713 b 139 712 139 713 139 712 z m 162 755 b 167 769 160 761 159 767 b 162 755 166 764 164 760 z m 169 773 l 168 792 b 169 773 171 786 171 779 z m 169 829 b 170 819 170 826 170 822 l 166 828 z m 154 813 b 170 818 157 818 164 820 b 163 813 167 817 165 815 b 147 807 159 807 153 805 b 154 813 149 809 152 811 z m 144 785 b 139 773 142 781 141 777 b 144 785 137 778 137 783 z m 138 770 b 134 755 137 765 136 760 b 138 770 130 766 131 768 z m 133 754 b 125 743 131 750 128 746 b 133 754 123 750 126 753 z m 124 741 b 118 730 122 737 120 733 b 124 741 116 735 118 740 z m 116 728 b 109 720 114 725 111 722 b 116 728 110 723 112 727 z m 100 704 b 107 715 103 708 105 712 b 100 704 107 710 107 705 z m 87 668 l 93 681 b 87 668 93 676 93 671 z m 77 652 b 86 666 80 656 83 661 b 77 652 87 659 83 653 z m 94 685 b 99 702 96 691 98 696 b 94 685 101 696 101 689 z m 77 652 b 71 630 77 644 82 635 b 77 652 73 638 75 645 z m 64 609 b 70 628 66 616 68 622 b 64 609 72 621 72 614 z m 48 541 b 47 544 48 542 47 543 b 50 544 48 548 49 548 b 48 541 50 543 49 542 z m 57 106 l 54 106 l 53 123 l 56 124 b 58 116 57 121 58 119 b 57 106 58 113 57 110 z m 56 588 l 56 574 l 55 574 b 56 588 55 578 56 583 b 63 608 58 594 61 601 l 64 608 b 56 588 66 600 63 592 z m 72 239 b 67 231 72 237 70 235 b 67 261 66 241 66 251 b 106 385 75 303 88 345 b 115 396 108 389 112 393 b 113 381 115 391 115 386 b 72 239 95 335 82 287 z m 122 412 b 116 398 123 406 123 401 b 122 412 115 404 116 410 z m 97 203 l 97 210 b 99 210 98 210 99 210 b 97 203 99 209 98 208 z m 102 240 b 109 280 104 253 107 267 b 147 397 117 320 130 360 b 172 432 154 409 158 424 b 171 423 172 429 172 426 b 102 240 143 364 120 303 z m 123 414 b 125 421 124 417 124 419 l 128 419 z m 201 367 b 180 315 197 349 191 331 b 201 367 178 335 186 354 z m 221 393 b 210 382 217 390 214 386 b 202 371 208 378 205 374 b 205 387 203 376 204 382 b 221 393 207 395 214 395 z m 215 402 l 218 403 l 221 394 z m 169 258 b 175 287 168 268 162 280 b 169 258 173 277 171 268 z m 175 290 b 179 312 173 298 171 306 b 175 290 178 305 176 297 z m 177 436 b 174 435 176 436 175 435 l 176 439 b 177 436 177 438 177 436 z m 161 249 b 161 253 161 251 161 252 b 168 257 163 254 166 256 b 164 250 167 255 165 252 b 161 249 163 250 162 250 z m 335 144 b 336 148 335 145 336 147 b 340 145 337 147 340 145 b 338 138 340 142 339 140 b 335 144 337 140 336 142 z m 338 138 l 338 138 l 346 141 l 346 140 z m 352 174 l 340 174 b 340 178 340 175 340 176 l 352 177 z m 406 199 b 397 185 404 194 400 190 b 284 194 360 202 321 215 b 211 86 243 171 212 136 b 248 76 220 76 235 73 b 290 83 262 79 276 81 b 324 74 302 86 315 82 b 237 -8 330 68 244 -3 b 194 -5 217 -20 206 -30 b 175 73 183 19 177 46 b 189 256 169 135 176 196 b 230 376 198 298 211 338 b 304 483 248 416 271 453 b 320 513 312 490 323 502 b 317 518 319 515 318 517 b 276 544 306 531 292 540 b 156 509 235 555 187 537 b 128 475 146 499 136 488 b 115 457 124 469 120 463 b 103 442 112 451 108 446 b 97 443 102 441 97 439 b 291 860 135 595 195 735 b 417 966 323 903 367 945 b 543 949 451 980 527 996 b 515 485 595 805 550 628 b 480 370 505 446 493 408 b 436 259 468 332 451 296 b 406 199 427 239 417 219 z m 561 464 b 556 484 559 471 557 477 l 561 484 z m 457 204 b 439 190 453 197 450 189 b 439 185 439 188 439 187 b 439 189 439 186 439 188 b 456 220 445 199 451 209 b 536 427 485 288 517 355 b 549 463 539 439 545 451 l 561 463 b 536 380 552 435 544 407 b 457 204 516 318 490 259 z m 482 160 b 484 174 483 165 483 169 b 569 359 512 236 541 297 b 577 367 571 362 574 365 b 576 352 577 362 577 357 b 482 160 556 283 524 218 z m 610 -202 l 610 -200 l 613 -201 z m 636 -165 b 639 -167 637 -165 638 -166 b 634 -166 638 -166 636 -166 b 636 -164 635 -165 636 -164 z m 643 -173 b 642 -169 643 -172 643 -170 l 647 -171 z m 662 -153 b 660 -150 661 -152 661 -151 b 663 -150 661 -149 662 -149 b 665 -151 664 -150 664 -151 b 662 -153 664 -152 662 -153 z "},"R":{"ha":786,"x_min":0,"x_max":0,"o":"m 435 256 b 604 317 495 266 552 286 b 812 616 710 378 800 492 b 669 969 824 748 766 881 b 61 861 477 1145 194 1071 b 8 594 10 781 -13 687 b 59 550 10 583 49 510 b 62 577 61 559 62 568 b 113 755 66 639 83 700 b 609 892 202 927 445 1007 b 640 648 691 834 673 730 b 467 431 604 559 549 485 b 339 381 429 406 386 386 b 337 404 325 381 334 397 b 352 449 342 419 347 434 b 383 538 362 479 372 508 b 472 768 409 616 439 693 b 486 806 477 780 482 793 b 483 825 486 812 486 819 l 466 820 b 433 865 469 841 454 860 b 410 853 422 863 421 850 b 407 873 409 859 408 867 b 376 867 385 877 385 877 b 361 852 371 862 366 857 b 362 880 363 861 367 870 b 323 854 341 881 330 871 b 270 721 305 810 286 766 b 186 485 241 643 213 564 b 99 192 153 388 126 290 b 52 -17 79 124 63 54 b 58 -81 50 -37 42 -65 b 72 -85 61 -84 67 -84 b 96 57 80 -36 88 11 l 108 60 b 99 28 105 49 101 39 b 88 -79 91 -7 87 -43 b 100 -96 88 -91 93 -97 b 110 -80 109 -95 109 -87 b 150 112 121 -16 135 48 b 318 645 194 293 250 471 b 334 682 323 657 328 670 b 346 686 336 685 342 685 b 334 663 341 679 337 671 b 183 201 279 510 230 356 b 132 -17 162 129 145 56 b 123 -100 127 -45 126 -73 b 154 -108 131 -108 143 -111 b 172 -90 163 -106 170 -99 b 180 -87 173 -89 177 -88 b 186 -103 180 -93 178 -98 b 195 -95 188 -101 193 -99 b 214 -33 203 -75 210 -55 b 231 31 220 -12 226 10 b 252 113 238 58 245 85 b 273 195 259 140 264 168 b 284 200 275 201 281 211 b 305 126 292 175 297 150 b 347 30 316 92 330 60 b 410 -56 365 -1 386 -30 b 534 -119 444 -92 484 -115 b 680 -85 586 -123 636 -118 b 714 -53 692 -76 704 -65 b 715 -40 717 -49 717 -44 b 704 -33 713 -36 709 -33 b 694 -32 701 -32 697 -32 b 633 -16 672 -33 651 -27 b 542 61 597 4 569 32 b 511 97 532 72 521 84 b 426 223 480 137 451 179 b 417 245 421 230 418 237 b 435 256 417 255 427 255 z m 87 861 l 85 863 l 91 870 l 94 868 b 87 861 91 866 89 863 z m 110 889 b 105 890 110 888 107 890 b 162 948 121 912 141 931 b 162 942 162 944 162 943 b 110 889 145 924 128 907 z m 140 887 b 168 914 145 899 155 909 b 140 887 162 902 152 892 z m 184 871 l 181 872 l 184 873 z m 184 925 b 181 925 183 924 182 925 b 182 929 181 926 181 928 b 189 935 184 931 186 933 l 193 932 b 184 925 190 929 187 927 z m 674 410 b 622 362 661 390 643 373 b 674 410 630 381 646 395 z m 557 407 l 624 468 b 557 407 613 437 600 423 z m 616 522 b 549 448 600 486 578 462 b 616 522 558 466 590 502 z m 526 431 l 526 429 l 524 430 z m 448 783 l 446 780 l 446 783 z m 180 -85 b 178 -71 180 -80 179 -76 l 182 -71 b 180 -85 181 -76 181 -80 z m 188 -22 l 188 -22 l 188 -11 b 189 -11 188 -11 188 -11 l 188 -11 z m 209 51 b 207 56 208 53 207 54 b 208 58 207 57 208 58 l 210 54 z m 216 78 b 214 85 215 80 214 82 b 216 87 213 85 215 86 l 217 84 z m 222 107 b 220 115 221 110 219 112 b 225 124 222 118 223 121 b 224 107 225 118 225 113 z m 226 127 l 226 141 b 226 127 232 134 230 130 z m 238 174 l 238 161 b 238 174 235 168 234 169 z m 256 222 b 240 177 252 207 250 191 b 263 269 242 209 254 239 b 256 222 270 252 260 237 z m 389 636 b 385 621 388 631 386 626 b 389 636 384 627 381 633 z m 390 640 b 390 648 390 642 390 645 l 394 647 b 390 640 393 645 392 642 z m 398 832 b 389 809 400 821 400 821 b 398 832 388 818 391 826 z m 388 807 b 385 789 387 801 386 795 l 385 789 b 388 807 386 795 381 802 z m 372 604 l 372 577 b 372 604 370 586 370 595 z m 365 742 l 365 742 l 365 743 b 365 742 364 747 365 745 z m 108 60 b 111 96 100 71 101 86 b 108 60 110 84 109 72 z m 111 100 l 111 109 l 115 109 b 111 100 114 106 112 103 z m 119 133 b 118 136 119 134 118 135 b 120 140 119 137 119 139 l 121 138 z m 123 163 b 132 194 126 173 129 184 b 140 197 133 196 137 196 b 127 162 136 185 131 174 z m 140 199 b 141 231 136 209 136 221 b 140 199 146 220 142 210 z m 146 233 b 142 233 146 233 144 233 b 155 277 146 248 151 262 b 146 233 161 261 154 247 z m 210 429 b 167 296 195 385 182 340 b 156 280 165 290 166 280 b 209 460 169 341 190 400 b 343 822 247 583 293 703 b 360 849 346 832 352 842 b 356 824 362 840 360 832 b 210 429 302 695 255 562 z m 364 741 b 356 726 361 736 358 731 b 346 717 354 721 351 718 b 354 732 348 722 351 727 b 364 741 357 735 360 738 z m 345 713 b 346 686 345 704 345 695 b 345 713 342 695 342 704 z m 297 376 b 296 387 296 379 296 383 b 357 563 316 445 336 504 b 372 577 359 570 362 578 b 362 553 368 570 365 561 b 311 399 345 502 328 450 b 297 376 308 390 303 382 z m 414 188 l 416 183 l 412 183 b 414 187 412 185 413 186 z m 344 95 b 346 99 344 96 345 98 l 348 94 z m 367 45 b 357 63 363 51 360 57 b 350 78 354 68 352 73 b 350 92 349 83 349 87 b 381 38 363 76 371 57 b 367 45 372 35 370 42 z m 385 159 b 434 72 405 132 422 103 b 385 159 406 95 394 126 z m 488 75 b 491 66 490 72 491 69 b 506 48 502 65 503 56 b 491 66 498 51 490 55 b 480 71 487 67 483 69 b 419 167 455 100 434 132 b 418 181 417 171 417 176 b 488 75 441 146 465 110 z "},"S":{"ha":664,"x_min":0,"x_max":0,"o":"m 736 875 b 454 1046 710 1005 585 1105 b 186 823 346 998 258 916 b 61 464 113 727 29 589 b 304 287 89 357 188 265 b 415 329 343 296 380 310 b 450 347 427 336 438 342 b 447 298 456 334 449 311 b 432 248 443 281 438 264 b 387 158 419 217 404 187 b 281 31 360 110 324 67 b 200 -17 257 11 229 -5 b 97 29 147 -38 112 -8 b 92 140 83 65 82 103 b 147 249 103 181 127 213 b 146 273 152 256 151 266 b 102 282 135 286 117 290 b 85 269 95 278 90 274 b 0 88 36 218 4 159 b 48 -22 -2 45 19 7 b 211 -103 91 -66 148 -103 b 441 5 295 -103 378 -48 b 575 205 503 57 556 125 b 578 222 576 211 578 216 b 442 428 594 317 531 400 b 399 420 428 433 411 430 b 271 373 361 394 317 378 b 246 374 263 372 255 372 b 224 517 189 390 214 478 b 378 804 250 624 308 720 b 618 954 405 836 587 1065 b 612 837 629 916 627 874 b 405 646 574 740 508 673 b 385 639 398 644 392 642 b 377 628 381 637 378 633 b 382 616 376 624 378 619 b 404 592 391 609 401 604 b 413 588 405 590 410 588 b 424 579 420 588 424 587 b 431 568 425 574 427 570 b 490 553 449 558 467 548 b 717 737 598 575 671 641 b 736 875 738 780 745 828 z m 411 77 b 411 89 405 82 408 86 b 444 130 422 103 433 117 b 411 77 440 109 428 90 z m 376 93 l 444 199 b 376 93 433 158 409 121 z m 482 89 b 496 105 485 94 489 98 b 474 73 496 90 489 84 b 482 89 477 79 479 84 z m 461 55 l 453 47 l 449 51 l 458 58 z m 107 617 l 107 618 b 106 611 107 616 106 614 z m 117 627 b 107 618 114 623 111 621 b 244 846 137 704 185 778 b 323 926 268 874 296 900 b 336 930 326 930 331 931 b 327 921 333 927 330 924 b 133 658 248 845 182 756 b 117 627 128 647 123 637 z m 191 703 l 191 702 b 191 703 191 702 191 702 b 202 714 194 707 198 711 b 209 718 204 716 206 717 b 191 703 208 709 200 703 z m 216 727 b 210 720 214 724 212 722 b 212 732 210 724 210 728 b 400 947 259 815 324 889 b 411 949 404 948 407 949 b 401 938 406 944 403 940 b 216 727 331 875 269 804 z m 299 747 b 293 729 298 743 296 738 b 299 747 291 741 293 746 z m 301 749 b 321 775 303 761 310 770 b 301 749 319 764 312 754 z m 322 777 b 350 811 325 792 336 804 b 322 777 347 796 336 783 z m 436 896 b 361 818 411 870 386 844 b 350 811 358 815 354 813 b 351 818 350 814 350 816 b 445 911 376 851 407 879 b 436 896 443 906 440 901 z m 613 769 b 614 787 613 775 614 781 b 613 769 617 781 620 774 z m 611 767 b 581 722 608 749 596 738 b 611 767 595 754 596 755 z m 610 717 l 627 736 b 610 717 627 725 624 716 z m 650 678 b 657 688 653 681 655 684 b 650 678 662 679 656 679 z "},"T":{"ha":354,"x_min":0,"x_max":0,"o":"m 411 1020 b 415 1047 410 1029 412 1038 b 422 1064 424 1049 424 1057 b 411 1070 419 1067 415 1070 b 390 1069 404 1071 395 1066 b 333 1048 363 1082 348 1066 b 311 1020 326 1039 319 1030 b 285 1022 303 1020 294 1021 b 120 1046 231 1034 176 1042 b -52 1035 63 1051 4 1054 b -173 884 -127 1010 -165 962 b -126 824 -176 857 -162 774 b -50 873 -107 849 -80 867 b 60 880 -14 880 23 883 b 223 861 114 876 169 869 b 234 857 227 860 231 859 b 233 828 243 851 236 836 b 97 370 174 680 135 526 b 26 -2 66 248 40 124 b 23 -69 23 -24 23 -47 b 39 -102 22 -82 24 -96 b 49 -102 42 -102 46 -103 b 53 -70 50 -92 51 -84 b 66 -100 59 -84 62 -92 b 75 -105 68 -103 71 -105 b 82 -98 78 -104 81 -102 b 89 -72 85 -91 86 -83 b 100 -104 93 -86 97 -95 b 150 -87 121 -109 135 -94 b 166 -53 161 -82 163 -66 b 169 -39 167 -48 168 -44 b 215 161 184 28 198 95 b 291 423 238 249 263 337 b 370 647 315 499 343 573 b 431 807 390 700 410 754 b 521 826 447 848 488 832 b 604 816 548 821 576 818 b 767 824 658 811 713 814 b 912 914 825 836 878 864 b 915 974 925 932 926 955 b 869 1009 909 987 885 1019 b 833 981 856 1001 847 988 b 791 966 820 973 806 968 b 700 962 761 961 731 960 b 528 980 643 964 585 970 b 496 988 517 982 506 985 b 447 1058 489 1017 472 1042 l 414 1047 b 411 1020 423 1037 420 1028 z m 823 866 b 829 869 825 867 827 868 b 831 868 829 869 830 868 l 822 867 b 819 866 821 867 820 866 l 823 866 z m 161 494 b 162 484 162 491 162 487 b 160 481 162 483 160 482 b 160 484 160 482 160 483 b 161 494 160 487 161 491 b 165 496 162 495 164 495 b 166 499 166 497 166 498 b 165 497 166 498 166 498 b 161 494 164 496 163 495 z m 176 529 l 175 529 l 175 543 b 185 560 179 549 182 555 b 207 631 189 585 192 609 b 207 648 206 637 206 642 b 271 839 228 712 249 775 b 285 856 272 844 277 847 b 285 837 285 850 285 843 b 212 635 260 769 236 702 b 206 631 211 633 208 632 b 206 614 207 626 207 620 b 184 561 199 597 198 576 b 176 544 185 554 185 546 z m 318 607 b 318 604 318 605 318 602 b 318 607 318 602 318 604 b 325 627 320 614 322 620 b 332 647 327 634 329 641 b 385 794 349 696 367 745 b 406 831 389 807 396 820 b 405 819 406 827 406 823 b 344 656 385 765 364 711 b 339 650 343 654 342 651 b 331 649 337 648 333 648 b 324 628 336 635 336 635 b 326 616 326 625 327 620 b 318 607 325 612 322 609 z m 206 470 b 202 474 204 472 202 474 b 205 484 203 477 204 481 b 216 523 208 497 212 510 b 223 529 216 526 221 527 b 228 553 219 537 221 547 b 229 570 228 559 228 565 b 315 825 255 656 281 742 b 333 842 318 832 319 842 b 329 823 332 836 331 829 b 286 703 315 783 300 743 b 242 579 271 662 257 620 b 227 554 238 570 239 558 b 222 530 230 545 228 536 b 204 485 220 513 217 497 z m 377 1044 b 356 1012 372 1030 368 1019 b 377 1044 357 1030 357 1030 z m -118 908 b -94 933 -116 924 -110 929 z m -132 948 b -129 947 -131 947 -130 948 b -128 944 -128 947 -128 945 b -135 938 -130 942 -132 940 b -137 939 -135 937 -137 939 b -132 948 -136 942 -134 945 z m 834 955 l 835 951 b 832 952 834 951 833 952 b 831 954 832 952 832 953 z m 827 920 b 829 918 827 920 828 919 b 824 916 827 917 825 917 b 822 918 823 916 822 917 l 827 920 z "},"U":{"ha":901,"x_min":0,"x_max":0,"o":"m 1031 1014 b 1007 1049 1024 1027 1016 1038 b 988 1056 1003 1056 995 1058 b 976 1063 980 1053 979 1057 b 969 1070 975 1066 972 1069 b 936 1076 958 1070 946 1072 b 916 1070 929 1077 922 1075 b 891 1041 907 1061 898 1052 b 801 845 852 980 830 911 b 735 692 778 794 760 742 b 505 282 666 552 589 415 b 357 74 461 209 412 140 b 281 -8 333 46 307 19 b 266 -16 278 -11 271 -17 b 261 3 258 -15 260 -3 b 310 245 273 85 289 165 b 345 376 321 289 333 333 b 395 527 361 427 378 477 b 449 689 413 581 430 635 b 528 912 475 763 503 837 b 544 992 538 937 543 964 b 532 1005 539 996 535 1000 b 491 1035 522 1020 512 1034 b 486 1039 489 1035 488 1038 b 313 1030 437 1069 363 1047 b 148 939 253 1010 199 976 b 55 843 112 913 80 880 b 1 672 19 792 -6 737 b 71 543 8 622 32 576 b 102 526 79 534 90 528 b 116 542 110 525 120 533 b 105 560 113 549 109 555 b 97 647 85 585 83 619 b 151 732 112 677 130 705 b 245 824 178 766 210 797 b 338 879 271 845 303 875 b 239 614 302 792 269 703 b 175 404 215 545 196 474 b 134 225 158 345 146 285 b 117 117 127 189 123 153 b 120 -6 110 76 111 34 b 194 -80 129 -46 149 -76 b 215 -84 201 -81 208 -83 b 326 -50 256 -93 297 -80 b 395 26 350 -26 373 0 b 544 246 450 95 497 171 b 651 425 581 305 615 365 b 666 443 656 432 661 438 b 664 423 665 433 665 428 b 645 341 658 396 651 368 b 610 157 633 280 621 218 b 591 -58 599 86 592 14 b 592 -72 590 -63 591 -68 b 600 -82 593 -76 596 -80 b 613 -82 604 -84 609 -84 b 616 -56 615 -73 615 -65 b 629 99 616 -4 620 48 b 651 225 636 141 644 183 b 738 579 671 345 703 462 b 758 613 742 591 745 605 b 749 574 755 600 753 586 b 654 200 710 451 679 326 b 625 -42 639 120 629 39 b 626 -84 624 -56 624 -70 b 644 -90 627 -91 633 -97 b 650 -29 646 -71 650 -50 b 668 129 652 24 658 77 b 793 615 696 294 738 457 b 802 638 795 623 798 631 b 809 642 803 640 806 641 b 800 609 806 631 804 620 b 690 184 756 469 720 328 b 658 -61 673 104 663 22 b 658 -89 658 -70 658 -80 b 664 -102 658 -94 660 -99 b 677 -105 667 -105 672 -106 b 693 -99 683 -105 689 -103 b 700 -83 697 -95 700 -89 b 704 -30 702 -66 701 -48 b 744 206 714 49 726 128 b 828 517 768 311 795 415 b 836 530 830 522 829 528 b 831 503 835 521 834 512 b 759 237 807 414 781 326 b 709 -49 736 143 719 48 b 711 -98 706 -65 706 -82 b 728 -72 721 -94 728 -83 b 731 -22 729 -55 729 -38 b 818 371 750 111 779 243 b 892 611 842 452 867 532 b 946 769 909 664 927 717 b 1011 933 967 824 990 878 b 1031 994 1019 953 1025 973 b 1031 1014 1033 1001 1033 1008 z m 172 921 b 172 918 172 920 172 919 l 169 917 b 169 920 169 918 168 919 b 172 921 169 920 171 920 z m 58 789 b 56 787 58 788 57 788 b 54 792 56 789 54 791 b 59 795 55 793 57 794 b 58 789 59 793 59 791 z m 67 801 b 59 796 65 799 62 797 b 59 799 59 797 59 798 b 139 892 77 836 104 869 b 139 886 139 890 140 887 b 67 801 115 857 91 829 z m 95 776 b 101 795 93 789 95 793 z m 102 796 b 110 814 104 802 107 808 b 197 894 134 846 163 873 b 194 885 196 890 196 886 b 110 800 166 856 138 828 b 102 796 108 798 105 797 z m 126 737 l 127 742 b 128 739 128 741 128 740 b 127 737 128 739 127 738 z m 202 816 b 141 758 182 797 161 777 b 199 821 155 784 177 803 b 203 819 201 820 202 819 b 202 816 203 818 203 817 z m 285 268 l 286 271 l 287 268 z m 352 474 b 317 364 340 437 329 400 b 301 338 313 354 314 342 l 301 326 l 301 326 l 301 338 b 375 579 325 418 350 499 b 396 635 381 598 389 616 b 405 641 397 639 401 642 b 352 474 387 585 370 530 z m 428 715 b 429 712 428 714 429 713 b 426 709 428 711 427 710 b 428 715 427 711 427 713 z m 424 706 b 421 697 425 702 424 699 b 413 693 419 694 416 693 b 424 706 417 697 420 702 z m 413 693 b 416 680 414 689 415 684 b 408 669 416 675 415 670 b 413 693 410 677 411 685 z m 408 668 b 405 643 411 659 410 650 b 408 668 402 651 403 660 z m 234 499 b 378 897 275 634 323 767 b 394 928 383 907 388 918 b 399 932 395 930 397 930 b 395 912 404 924 397 918 b 272 581 354 802 313 692 b 236 474 259 546 249 509 b 225 455 234 467 235 457 b 234 499 227 470 230 484 z m 225 453 b 226 441 226 449 226 445 b 206 384 222 421 215 402 b 225 453 206 408 212 432 z m 204 379 b 186 306 202 354 196 329 b 204 379 185 331 191 357 z m 180 281 b 172 268 185 272 178 271 b 180 281 174 273 177 277 z m 151 -4 b 143 12 147 1 145 6 b 143 79 142 34 142 57 b 151 87 143 81 148 84 b 151 39 151 70 151 54 b 151 -4 153 24 152 10 z m 151 89 b 149 132 144 101 149 114 b 151 89 155 114 152 101 z m 160 165 l 157 165 l 157 184 l 160 184 z m 165 211 b 172 228 163 218 162 225 b 165 211 169 222 167 216 z m 173 234 l 172 268 b 173 233 175 257 176 245 z m 189 44 b 189 1 189 31 189 18 b 177 38 180 11 176 25 b 186 122 179 66 182 94 b 192 156 187 134 189 145 b 201 164 193 160 197 162 b 189 44 192 125 188 84 z m 201 167 b 202 209 195 180 196 195 b 212 238 205 218 200 232 b 201 167 209 214 205 190 z m 213 240 b 217 270 210 250 211 261 b 213 240 221 260 219 249 z m 225 280 b 218 271 224 276 222 272 b 227 326 221 289 223 308 b 361 737 263 466 308 603 b 375 766 365 747 370 757 b 385 774 377 769 381 771 b 391 796 385 781 380 791 l 391 797 b 392 796 391 796 392 796 b 385 774 390 788 387 781 b 364 718 378 755 370 737 b 245 352 324 596 284 474 b 225 280 237 328 232 304 z m 803 766 b 852 889 819 807 835 848 b 857 892 853 890 855 891 b 855 875 857 886 857 881 b 816 774 843 842 829 808 b 808 759 814 769 811 764 b 803 766 805 763 802 765 z m 847 757 l 845 757 l 847 760 z m 838 731 b 838 729 838 730 838 729 b 838 733 838 730 838 732 b 838 731 838 732 838 732 z m 809 644 b 817 680 804 657 811 669 b 825 683 818 682 822 682 b 809 644 820 670 814 657 z m 825 684 b 826 711 820 693 823 702 b 825 684 830 702 827 693 z m 827 713 b 836 725 830 717 833 721 b 827 713 835 719 833 714 z m 837 531 b 847 569 835 545 839 558 b 852 571 847 570 850 570 b 837 531 848 557 847 542 z m 852 572 b 855 597 849 580 850 589 b 852 572 858 589 857 579 z m 867 625 b 861 622 865 623 863 623 b 856 599 860 614 865 605 b 861 622 858 607 859 614 b 866 626 863 623 864 625 b 867 629 866 627 867 628 b 867 624 867 628 868 625 z m 875 649 l 874 652 l 876 652 z m 858 894 b 878 941 858 911 865 929 b 858 893 877 924 870 907 z m 932 1040 b 885 950 917 1010 901 980 b 879 944 883 947 881 945 b 879 953 878 947 878 950 b 916 1029 891 978 903 1004 b 931 1049 920 1036 925 1042 b 932 1040 932 1044 933 1042 z "},"V":{"ha":931,"x_min":0,"x_max":0,"o":"m 895 1073 b 879 1054 880 1073 873 1065 b 895 910 901 1014 898 954 b 717 414 880 739 797 564 b 532 121 663 312 604 213 b 426 3 500 79 465 39 b 414 -4 423 0 418 -3 b 407 6 407 -5 407 2 b 419 128 410 47 414 88 b 445 296 426 184 435 240 b 504 590 462 394 481 493 b 535 714 514 632 524 673 b 588 912 552 780 571 846 b 595 951 591 925 594 938 b 426 1054 606 1036 489 1059 b 173 965 334 1048 251 1010 b 70 878 134 942 100 912 b 0 713 29 831 -1 779 b 56 578 1 663 21 615 b 85 558 64 569 74 561 b 101 573 94 556 104 563 b 92 592 98 580 95 586 b 93 679 75 619 76 652 b 155 757 111 707 131 733 b 258 840 186 789 220 817 b 322 872 278 854 299 864 b 376 868 333 875 381 890 b 368 838 373 858 370 848 b 233 185 311 624 252 407 b 227 32 229 134 227 83 b 229 -32 226 10 227 -11 b 237 -53 230 -40 232 -47 b 256 -61 238 -55 254 -66 b 260 -16 264 -46 260 -31 b 258 65 258 11 257 38 b 280 277 264 136 271 207 b 323 517 291 357 306 437 b 399 819 344 619 368 720 b 449 947 411 863 428 906 b 465 959 451 952 452 962 b 458 940 463 952 460 946 b 432 874 449 918 439 896 b 364 643 405 798 384 721 b 298 324 338 538 315 431 b 271 60 284 237 275 149 b 275 -46 270 25 273 -11 b 298 -66 275 -56 285 -86 b 301 -48 300 -60 302 -54 b 485 928 302 285 377 614 b 507 955 489 940 495 953 b 391 544 455 823 421 684 b 315 -82 347 338 309 129 b 370 -106 316 -105 355 -105 b 473 -64 412 -108 441 -88 b 576 21 509 -38 543 -10 b 720 186 628 72 677 127 b 851 384 768 249 812 315 b 1012 820 925 518 996 666 b 895 1073 1021 901 999 1071 z m 192 943 b 195 944 192 943 194 943 b 195 941 195 943 195 942 l 192 940 b 192 943 192 941 191 942 z m 69 824 b 66 822 69 824 67 823 b 65 828 66 824 64 826 b 69 830 65 829 68 829 b 69 824 69 828 69 826 z m 78 835 b 70 831 76 833 73 832 b 70 834 70 832 70 833 b 159 918 92 869 123 899 b 159 913 159 916 160 914 b 78 835 132 886 105 861 z m 104 807 b 111 826 103 821 105 825 b 104 807 110 822 108 817 z m 131 765 l 132 771 b 133 768 133 770 133 769 b 131 765 133 767 132 766 z m 215 836 b 148 785 192 819 170 802 b 212 842 165 809 188 826 b 215 839 214 840 215 840 b 215 836 216 838 215 837 z m 214 906 b 121 829 183 880 152 855 b 113 827 119 828 116 827 b 123 844 116 833 119 839 b 218 915 150 873 182 898 b 214 906 216 910 215 907 z m 522 794 l 519 760 b 522 794 514 771 515 784 z m 383 -1 b 379 -31 382 -11 385 -22 b 371 -21 371 -31 370 -26 b 383 130 375 29 379 80 b 389 176 385 145 388 161 b 423 385 397 246 410 316 b 458 562 435 444 445 503 b 506 756 473 627 490 692 l 518 759 b 511 740 515 753 513 746 b 444 432 489 637 465 535 b 400 185 428 350 412 268 b 383 -1 391 124 388 61 z m 907 803 l 906 832 b 907 803 912 822 908 813 z m 829 596 b 829 595 829 596 829 596 b 829 596 829 595 829 596 b 836 603 831 599 834 601 l 837 602 z m 848 640 b 849 624 848 636 849 631 b 845 632 847 626 845 629 b 848 640 845 635 846 638 z m 849 643 b 896 792 865 693 880 742 b 906 798 897 794 903 796 b 878 702 897 766 888 734 b 858 650 873 684 865 667 b 849 643 857 647 853 645 z m 865 581 b 857 572 863 577 860 574 b 919 741 877 629 898 685 b 865 581 912 684 891 631 z m 932 602 b 921 595 930 599 925 597 b 921 581 921 590 921 586 l 920 581 l 921 594 b 945 655 929 615 938 635 b 956 666 946 660 951 664 b 932 602 948 644 940 623 z m 957 669 b 956 688 957 675 957 682 l 961 688 b 957 669 959 681 958 675 z "}}}
